<?xml version="1.0" standalone="no"?><!DOCTYPE svg PUBLIC "-//W3C//DTD SVG 1.1//EN" "http://www.w3.org/Graphics/SVG/1.1/DTD/svg11.dtd"><svg class="icon" width="16px" height="16.00px" viewBox="0 0 1024 1024" version="1.1" xmlns="http://www.w3.org/2000/svg"><path d="M315.076923 315.076923v433.230769h433.230769V315.076923H315.076923z m0-39.384615h433.230769a39.384615 39.384615 0 0 1 39.384616 39.384615v433.230769a39.384615 39.384615 0 0 1-39.384616 39.384616H315.076923a39.384615 39.384615 0 0 1-39.384615-39.384616V315.076923a39.384615 39.384615 0 0 1 39.384615-39.384615z"  /><path d="M413.538462 512h236.307692a19.692308 19.692308 0 0 1 0 39.384615h-236.307692a19.692308 19.692308 0 0 1 0-39.384615z"  /></svg>