<?xml version="1.0" standalone="no"?><!DOCTYPE svg PUBLIC "-//W3C//DTD SVG 1.1//EN" "http://www.w3.org/Graphics/SVG/1.1/DTD/svg11.dtd"><svg t="1617544723619" class="icon" viewBox="0 0 1024 1024" version="1.1" xmlns="http://www.w3.org/2000/svg" p-id="1125" xmlns:xlink="http://www.w3.org/1999/xlink" width="16" height="16"><defs><style type="text/css"></style></defs><path d="M512 1255.489906" p-id="1126"></path><path d="M865.682191 310.085948l-554.675195 0c-14.634419 0-26.403358 11.973616-26.403358 26.710374L284.603638 423.681791l-92.309414 0c-14.634419 0-26.403358 11.973616-26.403358 26.710374l0 349.998001c0 14.634419 11.768939 26.505697 26.403358 26.505697l554.675195 0c14.634419 0 26.710374-11.871277 26.710374-26.505697L773.679792 713.30002l92.002399 0c14.634419 0 26.710374-11.871277 26.710374-26.505697l0-349.998001C892.392564 322.059564 880.31661 310.085948 865.682191 310.085948zM728.65081 781.86688 210.817509 781.86688 210.817509 468.710774l517.8333 0L728.65081 781.86688zM847.363582 668.271037l-73.68379 0L773.679792 450.392165c0-14.634419-12.075954-26.710374-26.710374-26.710374L329.530282 423.681791l0-68.56686 517.8333 0L847.363582 668.271037z" p-id="1127"></path></svg>