<?xml version="1.0" standalone="no"?><!DOCTYPE svg PUBLIC "-//W3C//DTD SVG 1.1//EN" "http://www.w3.org/Graphics/SVG/1.1/DTD/svg11.dtd"><svg t="1635132182451" class="icon" viewBox="0 0 1024 1024" version="1.1" xmlns="http://www.w3.org/2000/svg" p-id="8313" xmlns:xlink="http://www.w3.org/1999/xlink" width="16" height="16"><defs><style type="text/css"></style></defs><path d="M121.670716 438.19889l-50.839058 60.259387-22.475676-30.104095c-11.826609-15.052047-18.943053-31.640018-20.018199-46.692065-0.40958-5.9901 0.051197-16.536773 0.20479-31.640018l24.011599-326.742063L105.59472 0l42.698665 63.228839-26.622669 374.970051z m257.01115 13.516124l43.773811 61.744113-58.160292 58.723464H166.929254c-10.80266 0-17.970301 0-21.656518-1.535923-10.751462 0-24.472376-7.526024-30.974451-15.052048l-30.360082-40.650767 54.269287-63.280036 240.474376 0.051197z m72.700365 512.025599L399.314434 1024l-43.671416-60.259387 26.673866-373.485326 51.043848-57.238738 44.644168 57.238738-26.622669 373.485326z m36.452577-525.541723L435.818209 498.40708 393.221939 436.662967l25.59872-371.898205L471.758812 0l42.80106 64.764762-26.725064 373.434128zM616.237988 434.461477l-50.736663 56.777961-29.182541-35.326234c-9.369132-12.236188-12.440978-21.451727-13.311334-33.739113-0.716764-10.700265-0.767962-29.182541 0.460777-46.026498l13.874506-202.639468c3.532623-36.810959 8.549973-52.170191 25.39393-72.188391l28.005-33.739113 47.152842 67.529423-21.656517 299.351433z m226.651068 466.715864l48.279186 65.9935-26.929854 32.254388c-15.615219 19.967002-27.441828 24.574771-56.624369 24.574771h-231.924403l-47.869607-59.901005L584.188391 901.126144l258.700665 0.051197z m-193.884706-326.99805c-24.318784 0-31.896005-4.60777-48.074396-27.646618l-23.090046-35.275036 55.344433-59.901005h239.245638l45.463326 59.901005-53.962102 62.921654h-214.926853z m7.628418-451.305435l-49.815109-70.652467 20.171792-24.574771C647.212439 4.658967 656.632768 0.051197 691.80541 0.051197h184.617969c40.036398 0 46.384881 3.020649 63.843208 27.646618l17.509524 24.574771-63.126443 70.60127h-238.0169z m224.142393 466.664667l54.0133-61.436928 43.108244 61.436928-17.970301 267.148243c-2.611069 32.20319-6.758062 42.954652-23.653218 61.38573l-29.233738 33.790311-47.050447-65.9935 20.78616-296.330784z m31.947203-451.305435l59.79861-66.044697 21.656517 32.254387c9.369132 12.287386 13.823309 24.574771 14.591271 35.275036 0.563172 7.730813-0.102395 15.359232-0.61437 26.110695l-18.482276 259.366231-55.856407 70.60127-41.674716-58.313884 20.581371-299.249038z" p-id="8314"></path></svg>