<?xml version="1.0" standalone="no"?><!DOCTYPE svg PUBLIC "-//W3C//DTD SVG 1.1//EN" "http://www.w3.org/Graphics/SVG/1.1/DTD/svg11.dtd"><svg t="1635132257905" class="icon" viewBox="0 0 1024 1024" version="1.1" xmlns="http://www.w3.org/2000/svg" p-id="9382" xmlns:xlink="http://www.w3.org/1999/xlink" width="16" height="16"><defs><style type="text/css"></style></defs><path d="M116.2752 435.968L60.7232 494.2848l-24.5248-32.2048c-12.8512-15.36-19.2-30.72-20.48-47.5648-0.4608-6.144-1.024-13.824-0.4096-23.0912L43.6224 18.432l94.8224 119.7056-22.1696 297.8304z m240.2304 465.2032l54.7328 70.6048-26.5216 29.184c-15.5648 18.432-29.5424 23.04-59.4944 23.04H72.6528l-48.6912-59.904L81.7664 901.12l274.7392 0.0512zM159.4368 122.8288L63.0784 0h381.4912l48.9984 64.512-58.112 58.3168H159.4368z m202.8032 328.4992c31.232 0 35.3792 3.0208 58.368 32.3072l22.9888 29.184-61.8496 61.3376h-210.944c-40.3456 0-49.8176-4.608-71.3216-30.72l-22.9888-29.184 60.416-62.976 225.3312 0.0512z m37.5808 138.1888l58.0608-59.904 25.7024 30.72c10.0352 12.2368 16.5888 30.72 17.6128 44.4928 0.5632 7.68 0.1536 19.968-0.1024 33.792l-15.872 207.2064c-2.5088 36.8128-9.984 58.368-22.0672 70.6048l-36.1984 38.4-49.0496-64.512 21.9136-300.8zM610.7648 885.76l-59.8016 65.9968-21.6064-30.72c-9.472-13.7728-13.824-24.5248-14.6944-36.8128-0.4096-6.144 0.0512-16.896 0.6144-26.112l18.2784-262.5024 56.1664-65.9968 41.5744 56.7808-20.5312 299.3664z m32.0512-449.792l-51.8144 58.3168-45.3632-58.3168 17.8176-268.6464c2.7648-30.72 6.7584-43.008 23.7056-61.44l29.3376-32.256 46.9504 64.512-20.6336 297.8304z m224.1024 465.2032l49.92 72.192-20.2752 22.9888c-20.2752 23.04-30.8736 27.648-64.9216 27.648h-184.6272c-40.0896 0-46.3872-3.072-63.8464-27.648l-17.3568-22.9888 63.0272-72.192h238.08z m7.7312-449.8432c24.32 0 31.744 3.0208 47.9744 26.112l23.0912 35.328-55.2448 61.3376h-239.2576l-45.568-61.3888 54.0672-61.44 214.9376 0.0512z m-193.9968-328.4992l-49.408-64.512 28.0064-33.7408c15.7696-18.432 27.4432-24.576 56.6272-24.576h231.9872l47.872 59.904L939.3664 122.88h-258.7136z m226.6112 466.688l51.968-56.7808 28.0576 36.8128c9.3696 12.2368 12.3392 19.968 13.2608 33.7408 0.6656 9.216 0.7168 27.648-0.5632 44.4928l-13.8752 202.6496c-3.5328 36.864-8.5504 52.224-25.3952 72.192l-28.0064 33.792-47.2064-67.584 21.76-299.3152z" p-id="9383"></path></svg>