<?xml version="1.0" standalone="no"?><!DOCTYPE svg PUBLIC "-//W3C//DTD SVG 1.1//EN" "http://www.w3.org/Graphics/SVG/1.1/DTD/svg11.dtd"><svg t="1635132381306" class="icon" viewBox="0 0 1024 1024" version="1.1" xmlns="http://www.w3.org/2000/svg" p-id="14375" xmlns:xlink="http://www.w3.org/1999/xlink" width="16" height="16"><defs><style type="text/css"></style></defs><path d="M613.449865 887.558615l-57.825401 68.910306-17.419136-24.519604c-8.786192-13.792278-14.200938-27.584556-15.120423-41.376834-0.306495-4.597426 0.40866-10.727327 0.153247-15.27367l20.177592-300.262995 48.170807-59.766537 42.347401 59.766537-20.484087 312.522797z m28.452959-434.967574l-50.265191 62.831487-40.3041-62.831487 16.755063-266.497456c2.196548-18.389704 2.656291-29.117031 3.371446-35.246932 1.379228-13.741195 6.334231-24.519605 15.835578-35.19585l30.445176-36.728325 43.930959 67.377831-19.768931 306.290732z m208.978549 448.810934l48.885962 73.507733-25.183677 30.700588c-10.420832 13.741195-22.57847 18.389704-44.084207 18.389704h-199.22179c-21.505737 0-34.327447-6.129901-43.062556-18.389704l-20.126509-30.700588 60.890352-73.507733h221.902425zM678.426818 124.845655l-47.251322-65.845356 21.812232-30.700588c13.536865-18.389704 26.613988-26.05208 43.573381-26.052081h207.139579c15.835578 0 31.262496 10.727327 41.325751 26.052081l17.725631 29.11703-59.051382 67.377831h-225.27387z m211.379428 450.241245l50.316272-61.24793 40.201936 61.24793-16.806146 265.016063c-0.970568 19.922179-2.45196 32.181981-2.145466 36.779408-1.379228 13.741195-6.436396 22.936047-16.959393 35.195849l-32.794971 35.19585-41.325751-61.24793 19.513519-310.93924z m28.861618-428.837673l58.898134-68.910307 13.84336 21.454655c10.063255 15.324753 15.478001 29.117031 16.448569 44.390701 0.40866 6.129901 0.81732 12.259802 0.051082 18.389704l-18.542951 291.017061-51.49117 61.299012-39.078121-61.299012 19.871097-306.341814zM115.599721 434.150254l-50.622768 56.650504-29.117031-35.246932c-9.348099-12.20872-12.41305-21.403572-13.281452-33.663374-0.715155-10.676245-0.766238-29.117031 0.459742-45.923177L36.932655 173.7827c3.524693-36.728325 8.530779-52.053078 25.336925-72.02634l27.942133-33.663374 47.046992 67.377831-21.658984 298.679437z m226.09119 465.668164l48.170807 65.845355-26.8694 32.181982c-15.580166 19.922179-27.380225 24.519605-56.497257 24.519605h-231.403771l-47.762147-59.766537 56.241844-62.831488 258.119924 0.051083z m-193.449466-326.315076c-24.264192 0-31.824404-4.597426-47.966477-27.584555l-23.038213-35.19585 55.220194-59.766537h238.70857l45.361269 59.766537-53.840965 62.780405H148.241445z m7.611294-450.241245l-49.703283-70.493864 20.126509-24.519605C146.453557 5.312581 155.852739 0.715155 190.997506 0.715155h184.203532c39.946523 0 46.280754 3.013868 63.69989 27.584556l17.470218 24.519605-63.035817 70.442781H155.852739z m223.690312 465.617081l53.892048-61.299012 43.011474 61.299012-17.929961 266.548538c-2.605208 32.130899-6.742891 42.858226-23.60012 61.24793l-29.168113 33.714457-46.944827-65.845356 20.739499-295.665569z m31.824404-450.292328l59.664372-65.896438 21.607902 32.181981c9.348099 12.259802 13.792278 24.519605 14.558515 35.19585 0.561908 7.713459-0.102165 15.324753-0.61299 26.05208l-18.440786 258.783997-55.731019 70.493864-41.581163-58.182979 20.535169-298.628355z" p-id="14376"></path></svg>