<?xml version="1.0" standalone="no"?><!DOCTYPE svg PUBLIC "-//W3C//DTD SVG 1.1//EN" "http://www.w3.org/Graphics/SVG/1.1/DTD/svg11.dtd"><svg t="1635132123447" class="icon" viewBox="0 0 1024 1024" version="1.1" xmlns="http://www.w3.org/2000/svg" p-id="7707" xmlns:xlink="http://www.w3.org/1999/xlink" width="16" height="16"><defs><style type="text/css"></style></defs><path d="M121.943742 437.892381l-50.803497 60.217237-22.459955-30.083038c-11.818336-15.041519-18.929803-31.617887-20.004197-46.659405-0.409293-5.985911 0.051162-16.525206 0.204646-31.617887l23.994804-326.513515L105.878991 0l42.668798 63.184612-26.604047 374.707769z m256.831377 13.50667l43.743192 61.700924-58.11961 58.682388H167.170622c-10.795104 0-17.957732 0-21.641369-1.534849-10.743942 0-24.455259-7.520759-30.952785-15.041518l-30.338846-40.622334 54.231326-63.235773 240.306171 0.051162z m72.649513 511.667449L399.393255 1023.283737l-43.640869-60.217237 26.655208-373.224082 51.008144-57.198701 44.61294 57.198701-26.604046 373.224082z m36.427079-525.174119L435.871496 498.058456 393.305021 436.357532l25.580815-371.638072L471.78696 0l42.771121 64.71946-26.70637 373.172921zM613.14654 436.408693l-55.561529 58.273096-24.50642-32.180665c-12.841569-15.348489-19.185611-30.696977-20.464651-47.529153-0.460455-6.139395-1.023233-13.81364-0.409293-23.073895l28.29238-372.763627 94.751337 119.615888-22.101824 297.658356z m240.050362 464.85456l54.691781 70.551886-26.501723 29.162128c-15.553135 18.418186-29.52026 23.022733-59.449813 23.022733h-252.380315l-48.654709-59.859106 57.761479-62.928803h274.5333zM656.275793 123.504172L559.989608 0.767424h381.205296l48.961679 64.463653-58.119611 58.273095h-275.761179z m202.60005 328.25301c31.208594 0 35.352685 3.018536 58.324257 32.282988l22.971571 29.162128-61.803247 61.291632h-210.785911c-40.315363 0-49.780265-4.604547-71.268149-30.696978l-22.971571-29.162128 60.370722-62.928804 225.162328 0.051162z m37.603797 138.085236l58.017287-59.859105 25.683138 30.696977c10.027679 12.227629 16.576368 30.696977 17.5996 44.459455 0.562778 7.674244 0.153485 19.953035-0.102323 33.766675l-15.860105 207.051112c-2.50692 36.785211-9.976518 58.324257-22.050662 70.551886l-36.171271 38.371222-49.012841-64.463653 21.897177-300.574569z" p-id="7708"></path></svg>