<?xml version="1.0" standalone="no"?><!DOCTYPE svg PUBLIC "-//W3C//DTD SVG 1.1//EN" "http://www.w3.org/Graphics/SVG/1.1/DTD/svg11.dtd"><svg t="1635131999407" class="icon" viewBox="0 0 1024 1024" version="1.1" xmlns="http://www.w3.org/2000/svg" p-id="3297" xmlns:xlink="http://www.w3.org/1999/xlink" width="16" height="16"><defs><style type="text/css"></style></defs><path d="M218.090191 121.383062l-36.860314-54.266574L224.950305 0.051195h140.222778L280.087191 121.383062H218.090191z m24.522348 446.931307l54.112988-56.314369 47.252875 56.314369-29.385861 395.224477L259.250875 1023.948805l-46.024198-60.921908 29.385862-394.712528z m31.126487-423.893611L383.60324 24.624738l-31.075293 422.357764-55.80242 65.017498-45.153884-65.529447 22.167383-302.049795zM601.181482 890.330167l-56.058394 64.505549-21.60424-35.324467c-6.29697-9.215078-10.494951-21.50185-11.365263-35.273273-0.409559-6.143386 0.255974-13.771423 0.870313-21.50185l14.539346-231.810419c2.047795-21.50185 6.60414-38.39616 16.023997-50.631736l38.908109-49.147086 38.70333 53.70343-20.017198 305.479852z m29.744225-452.818718l-47.457654 56.775122-22.525747-32.201579c-10.034197-13.771423-16.843116-32.252775-17.764624-46.024198-0.460754-7.679232 0.051195-16.894311 0.460754-27.645236l13.771423-208.772722c1.535846-29.181082 6.39936-41.416658 22.064994-62.918508l28.105989-39.932007 42.90131 65.990201-19.556445 294.728927z m214.148186 463.620838l45.614638 72.184781-23.242476 27.645236c-15.768023 19.966003-22.372163 23.037696-51.911608 23.037696h-189.830617c-28.413159 0-40.085591-4.607539-51.50205-23.037696l-17.611039-26.109389 61.177882-73.669433 227.30527-0.051195z m30.0002-449.79822l41.570243 62.969703-50.682932 59.846815h-226.178982l-42.542946-59.89801 50.478152-62.969703 227.356465 0.051195z m-207.697631-328.466354l-45.102689-64.505549 22.884111-32.252775c13.515448-19.966003 23.344866-26.109389 42.645336-26.109389h205.70103c18.225377 0 28.822718 6.143386 40.341565 26.109389l21.348266 30.768123-59.386062 65.990201h-228.431557z m211.230077 471.19768l50.580542-61.382661 25.034297 35.273272c7.525647 10.750925 11.826017 24.522348 12.79872 39.932007 0.614339 9.163884 0.051195 18.430157-0.409559 29.181082l-14.846515 227.151685c-0.358364 12.286771-2.047795 21.50185-2.866914 26.109389-1.689431 9.215078-5.682632 16.894311-17.303869 30.716928l-28.413159 35.324468-44.027597-66.041396 19.454054-296.264774z m29.795421-452.818718l58.259774-65.990201 18.890911 29.181082c7.628037 12.286771 11.826017 24.573543 12.59394 36.809119 0.460754 7.679232-0.153585 15.358464-0.665533 24.573543l-13.873813 224.079992c-3.174083 38.39616-8.907909 55.290471-24.778322 73.720628l-27.338066 33.737426-42.542946-59.89801 19.454055-296.213579z" p-id="3298"></path></svg>