<?xml version="1.0" standalone="no"?><!DOCTYPE svg PUBLIC "-//W3C//DTD SVG 1.1//EN" "http://www.w3.org/Graphics/SVG/1.1/DTD/svg11.dtd"><svg t="1635132048020" class="icon" viewBox="0 0 1024 1024" version="1.1" xmlns="http://www.w3.org/2000/svg" p-id="4983" xmlns:xlink="http://www.w3.org/1999/xlink" width="16" height="16"><defs><style type="text/css"></style></defs><path d="M119.00845 885.715714l-97.275137 118.266087 23.858007-365.344933c0.563172-9.215539 1.126344-18.431078 2.867057-26.110694 1.79191-7.679616 3.635018-13.772111 6.706865-18.431079 0 0 6.297285-7.679616 16.639168-21.502925l30.155292-39.882805 37.271736 53.706114L119.00845 885.715714z m254.707264 15.41043l41.21394 61.436928-49.047148 61.436928H34.225489l101.524523-122.822659 237.965702-0.051197z m24.984351-348.500975c-12.440978 16.895155-22.322084 21.502925-48.227989 21.502925H156.484976l-41.060347-59.901005 32.100795-44.490576c4.146993-6.143693 9.471526-10.751462 14.898455-13.823309 5.426929-3.020649 9.829909-4.60777 15.461627-4.607769h213.18614l41.060347 59.901005-33.431928 41.418729zM172.560972 122.822659l-41.060347-59.901005L179.319034 0h230.081296c22.526874 0 33.227139 7.679616 45.770511 27.646618l15.103245 24.574771-57.494725 70.60127H172.560972z m251.686616 19.915804l58.621069-70.60127 20.018199 30.718464c2.457477 3.071846 5.222139 10.751462 8.140393 21.502925 1.433528 4.60777 1.740713 9.266737 1.9967 13.823309 0.40958 6.143693-0.051197 16.895155-0.307185 30.718464l-15.871206 227.163042c-1.638318 27.646618-5.426929 38.39808-19.915804 58.313884l-31.281636 39.934003-40.957953-58.313884 19.557423-293.258937zM574.512074 121.59392l-49.098345-54.730063L583.727614 0h387.411029L853.486926 121.59392h-278.974852z m264.076397 446.544073l59.18424-56.265987 46.589671 56.265987-30.872057 393.452327L857.377931 1023.948803l-49.661517-62.256088 30.872057-393.554722z m32.510374-423.812409l115.040648-121.542723-32.510374 423.812409-55.856408 65.327934-49.917504-65.327934 23.243638-302.269686z" p-id="4984"></path></svg>