<?xml version="1.0" standalone="no"?><!DOCTYPE svg PUBLIC "-//W3C//DTD SVG 1.1//EN" "http://www.w3.org/Graphics/SVG/1.1/DTD/svg11.dtd"><svg t="1635132326768" class="icon" viewBox="0 0 1024 1024" version="1.1" xmlns="http://www.w3.org/2000/svg" p-id="12259" xmlns:xlink="http://www.w3.org/1999/xlink" width="16" height="16"><defs><style type="text/css"></style></defs><path d="M610.759862 885.766912l-59.79861 65.9935-21.60532-30.718464c-9.471526-13.772111-13.823309-24.523574-14.693665-36.81096-0.40958-6.143693 0.051197-16.895155 0.614369-26.110694l18.277486-262.489276 56.163592-65.9935 41.572321 56.777961-20.530173 299.351433z m32.049598-449.769512l-51.81181 58.313884-45.360932-58.313884 17.816709-268.632968c2.764662-30.718464 6.758062-43.00585 23.704415-61.436928l29.336133-32.254388 46.948053 64.508775-20.632568 297.815509z m224.091195 465.179941l49.917504 72.188391-20.274186 22.98765c-20.274186 23.038848-30.872056 27.646618-64.918354 27.646618h-184.617969c-40.087596 0-46.384881-3.071846-63.843208-27.646618l-17.355932-22.98765 63.024048-72.188391h238.068097z m7.730813-449.820709c24.318784 0 31.742413 3.020649 47.972002 26.110695l23.090045 35.326233-55.242038 61.334534h-239.245637l-45.565722-61.385731 54.064497-61.436928 214.926853 0.051197z m-193.9871-328.482776l-49.40553-64.508774 28.005-33.739113c15.768812-18.431078 27.441828-24.574771 56.624369-24.574772h231.975601l47.869606 59.901005L939.345033 122.925054h-258.700665z m226.59987 466.664667l51.965402-56.777961 28.056197 36.810959c9.369132 12.236188 12.338583 19.967002 13.260137 33.739113 0.665567 9.215539 0.716764 27.646618-0.563172 44.490576l-13.874506 202.639468c-3.532623 36.862157-8.549973 52.221389-25.393931 72.188391l-28.004999 33.79031-47.20404-67.580621 21.758912-299.300235zM83.426229 121.59392l-49.149543-54.730063L92.692965 0h387.41103L362.40108 121.59392H83.426229z m264.076396 446.544073l59.184241-56.265987 46.58967 56.265987-30.872056 393.452327-56.112395 62.307285-49.661517-62.256087 30.872057-393.503525z m32.510374-423.812409L495.053647 22.782861l-32.510374 423.812409-55.856407 65.327934-49.917504-65.327934 23.243637-302.269686z" p-id="12260"></path></svg>