<?xml version="1.0" standalone="no"?><!DOCTYPE svg PUBLIC "-//W3C//DTD SVG 1.1//EN" "http://www.w3.org/Graphics/SVG/1.1/DTD/svg11.dtd"><svg t="1635132078735" class="icon" viewBox="0 0 1024 1024" version="1.1" xmlns="http://www.w3.org/2000/svg" p-id="6195" xmlns:xlink="http://www.w3.org/1999/xlink" width="16" height="16"><defs><style type="text/css"></style></defs><path d="M344.744279 901.25712l50.652543 70.555411-26.247227 30.698511c-13.712002 15.298091-29.317078 21.488958-57.7132 21.488958H70.862396L25.940242 964.137903l62.164485-62.931947h256.639552z m31.312481-449.52853l47.4292 59.862097-56.024783 62.829619H112.049565l-48.861796-62.880784 57.457379-59.862096 255.411612 0.051164zM143.208554 123.459179l-46.150095-59.862097L151.855301 0.716299h243.081044c11.102628 0 18.623763 1.483761 21.079644 1.483761 8.749076 1.534926 21.847107 12.279404 32.796242 27.679824l16.526032 24.507645-65.490157 69.07165H143.208554z m239.090237 469.380233l55.922454-64.415709 21.693615 27.62866c12.279404 16.884181 16.833017 29.163585 18.060957 46.047767 0.562806 7.674628 1.074448 15.298091 0.358149 22.972719l-17.702808 239.346058c-1.739582 27.62866-7.060658 39.908064-24.200659 59.862096l-28.651944 30.698511-46.559408-66.001798 21.079644-296.138304z m32.284601-452.547217l64.31338-67.48556 16.321375 21.488958c9.618867 13.81433 15.502748 27.62866 16.577196 42.977916 0.409313 6.139702-0.051164 16.884181-1.22794 35.252123l-16.372539 222.461877c-1.637254 29.163585-5.832717 39.908064-19.442391 56.741081l-36.4289 42.926751-46.09893-58.276007 22.358749-296.087139zM613.151594 436.379334l-55.564305 58.276007-24.507645-32.182272c-12.84221-15.349256-19.186569-30.698511-20.465674-47.531528-0.460478-6.139702-1.023284-13.81433-0.409313-23.075048l28.293794-372.782252 94.756071 119.621865-22.102928 297.673228z m240.062356 464.877786l54.694514 70.555411-26.503048 29.163586c-15.553912 18.419107-29.521735 23.023883-59.452783 23.023883h-252.392925l-48.65714-59.862097 57.764365-62.931947h274.547017zM656.283002 123.459179L559.992006 0.716299h381.224343l48.964125 64.466873-58.122515 58.276007h-275.774957z m202.610173 328.269411c31.210153 0 35.354452 3.018687 58.327171 32.284601l22.972719 29.163585-61.806336 61.294694h-210.796442c-40.317378 0-49.782752-4.604777-71.27171-30.698511l-22.972719-29.163586 60.373738-62.931947 225.173579 0.051164z m37.605676 138.092135l58.020186-59.862096 25.684421 30.698511c10.02818 12.22824 16.577196 30.698511 17.600479 44.461677 0.562806 7.674628 0.153493 19.954032-0.102328 33.768362l-15.860897 207.061457c-2.507045 36.787049-9.977016 58.327171-22.051764 70.555411l-36.173079 38.373139-49.015289-64.466873 21.898271-300.589588z" p-id="6196"></path></svg>