<?xml version="1.0" standalone="no"?><!DOCTYPE svg PUBLIC "-//W3C//DTD SVG 1.1//EN" "http://www.w3.org/Graphics/SVG/1.1/DTD/svg11.dtd"><svg t="1635132317233" class="icon" viewBox="0 0 1024 1024" version="1.1" xmlns="http://www.w3.org/2000/svg" p-id="11812" xmlns:xlink="http://www.w3.org/1999/xlink" width="16" height="16"><defs><style type="text/css"></style></defs><path d="M615.618438 885.722628l-97.270273 118.260174 23.856815-365.326668c0.563144-9.215078 1.126287-18.430157 2.866913-26.109389 1.791821-7.679232 3.634837-13.771423 6.706529-18.430157 0 0 6.29697-7.679232 16.638336-21.501849l30.153785-39.880812 37.269873 53.703429-20.221978 299.285272z m254.694531 15.409659l41.211879 61.433856-49.044696 61.433857h-331.589241l101.519448-122.816518 237.90261-0.051195z m24.983101-348.483552c-12.440356 16.894311-22.320968 21.50185-48.225577 21.50185h-193.977402l-41.058294-59.89801 32.09919-44.488351c4.146785-6.143386 9.471053-10.750925 14.89771-13.822618 5.426657-3.020498 9.829417-4.607539 15.460854-4.607539h213.175482l41.058294 59.89801-33.430257 41.416658zM669.168283 122.867713l-41.058294-59.89801L675.926007 0.051195h230.069793c22.525747 0 33.225477 7.679232 45.768224 27.645235l15.102489 24.573543-57.49185 70.59774H669.168283z m251.674033 19.914809l58.618138-70.59774 20.017198 30.716928c2.457354 3.071693 5.221878 10.750925 8.139986 21.50185 1.433457 4.607539 1.740626 9.266273 1.996601 13.822617 0.409559 6.143386-0.051195 16.894311-0.30717 30.716929l-15.870413 227.151685c-1.638236 27.645235-5.426657 38.39616-19.914808 58.310968l-31.280072 39.932007-40.955905-58.310969 19.556445-293.244275zM83.447655 121.587841l-49.147085-54.727327L92.713929 0h387.39166L362.408559 121.587841H83.447655z m264.063194 446.521748l59.181282-56.263174 46.587341 56.263174-30.870513 393.432657-56.109589 62.304169-49.659034-62.252974 30.870513-393.483852z m32.508749-423.791221L495.054495 22.781722l-32.50875 423.791221-55.853614 65.324667-49.915009-65.324667 23.242476-302.254575z" p-id="11813"></path></svg>