<?xml version="1.0" standalone="no"?><!DOCTYPE svg PUBLIC "-//W3C//DTD SVG 1.1//EN" "http://www.w3.org/Graphics/SVG/1.1/DTD/svg11.dtd"><svg t="1635132116388" class="icon" viewBox="0 0 1024 1024" version="1.1" xmlns="http://www.w3.org/2000/svg" p-id="7556" xmlns:xlink="http://www.w3.org/1999/xlink" width="16" height="16"><defs><style type="text/css"></style></defs><path d="M831.011249 901.177341l50.685466 70.60127-26.264287 30.718464c-13.720914 15.308035-29.336133 21.502925-57.750712 21.502925h-240.730364L512 964.098995l62.20489-62.972851h256.806359z m31.332834-449.820709l47.460027 59.901005-56.061197 62.870457h-255.526424l-48.893555-62.921654 57.494725-59.901005 255.526424 0.051197z m-232.99955-328.482776l-46.180091-59.901005L637.9969 0.051197h243.239038c11.109845 0 18.635868 1.484726 21.093346 1.484726 8.754762 1.535923 21.861307 12.287386 32.817559 27.697815l16.536773 24.523574-65.481526 69.065347h-256.857557z m239.245637 469.685316l55.958803-64.457577 21.707714 27.646618c12.287386 16.895155 16.843958 29.182541 18.072697 46.077696 0.563172 7.679616 1.075146 15.308035 0.358382 22.98765l-17.714315 239.501625c-1.79191 27.646618-7.065247 39.934003-24.216389 59.901005l-28.670566 30.718464-46.589671-66.044697 21.093345-296.330784z m32.305585-452.841358l64.355182-67.529423 16.331984 21.502924c9.625119 13.823309 15.512824 27.646618 16.58797 43.00585 0.40958 6.143693-0.051197 16.895155-1.228738 35.275036l-16.434378 222.60647c-1.638318 29.182541-5.836508 39.934003-19.455028 56.777961l-36.452577 42.954652-46.128894-58.313884 22.424479-296.279586zM121.670716 438.19889l-50.839058 60.259387-22.475676-30.104095c-11.826609-15.052047-18.943053-31.640018-20.018199-46.692065-0.40958-5.9901 0.051197-16.536773 0.20479-31.640018l24.011599-326.742063L105.59472 0l42.698665 63.228839-26.622669 374.970051z m257.01115 13.516124l43.773811 61.744113-58.160292 58.723464H166.929254c-10.80266 0-17.970301 0-21.656518-1.535923-10.751462 0-24.472376-7.526024-30.974451-15.052048l-30.360082-40.650767 54.269287-63.280036 240.474376 0.051197z m72.700365 512.025599L399.314434 1024l-43.671416-60.259387 26.673866-373.485326 51.043848-57.238738 44.644168 57.238738-26.622669 373.485326z m36.452577-525.541723L435.818209 498.40708 393.221939 436.662967l25.59872-371.898205L471.758812 0l42.80106 64.764762-26.725064 373.434128z" p-id="7557"></path></svg>