<?xml version="1.0" standalone="no"?><!DOCTYPE svg PUBLIC "-//W3C//DTD SVG 1.1//EN" "http://www.w3.org/Graphics/SVG/1.1/DTD/svg11.dtd"><svg t="1635132071206" class="icon" viewBox="0 0 1024 1024" version="1.1" xmlns="http://www.w3.org/2000/svg" p-id="5893" xmlns:xlink="http://www.w3.org/1999/xlink" width="16" height="16"><defs><style type="text/css"></style></defs><path d="M344.744279 901.25712l50.652543 70.555411-26.247227 30.698511c-13.712002 15.298091-29.317078 21.488958-57.7132 21.488958H70.862396L25.940242 964.137903l62.164485-62.931947h256.639552z m31.312481-449.52853l47.4292 59.862097-56.024783 62.829619H112.049565l-48.861796-62.880784 57.457379-59.862096 255.411612 0.051164zM143.208554 123.459179l-46.150095-59.862097L151.855301 0.716299h243.081044c11.102628 0 18.623763 1.483761 21.079644 1.483761 8.749076 1.534926 21.847107 12.279404 32.796242 27.679824l16.526032 24.507645-65.490157 69.07165H143.208554z m239.090237 469.380233l55.922454-64.415709 21.693615 27.62866c12.279404 16.884181 16.833017 29.163585 18.060957 46.047767 0.562806 7.674628 1.074448 15.298091 0.358149 22.972719l-17.702808 239.346058c-1.739582 27.62866-7.060658 39.908064-24.200659 59.862096l-28.651944 30.698511-46.559408-66.001798 21.079644-296.138304z m32.284601-452.547217l64.31338-67.48556 16.321375 21.488958c9.618867 13.81433 15.502748 27.62866 16.577196 42.977916 0.409313 6.139702-0.051164 16.884181-1.22794 35.252123l-16.372539 222.461877c-1.637254 29.163585-5.832717 39.908064-19.442391 56.741081l-36.4289 42.926751-46.09893-58.276007 22.358749-296.087139zM830.804037 900.540821l50.652543 70.555412-26.247227 30.698511c-13.712002 15.298091-29.317078 21.488958-57.7132 21.488957h-240.573999L512 963.421605l62.164485-62.931948h256.639552z m31.312481-449.52853l47.4292 59.862097-56.024783 62.829619h-255.360447l-48.861797-62.880783 57.45738-59.862097 255.360447 0.051164z m-232.848206-328.269411l-46.150095-59.862097L637.915059 0h243.081044c11.102628 0 18.623763 1.483761 21.079644 1.483761 8.749076 1.534926 21.847107 12.279404 32.796243 27.679824l16.526031 24.507645-65.438992 69.020486h-256.690717z m239.090237 469.380234l55.922454-64.415709 21.693615 27.62866c12.279404 16.884181 16.833017 29.163585 18.060957 46.047766 0.562806 7.674628 1.074448 15.298091 0.358149 22.972719l-17.702808 239.346058c-1.790746 27.62866-7.060658 39.908064-24.200659 59.862097l-28.651944 30.698511-46.559408-66.001799 21.079644-296.138303z m32.284601-452.547217l64.31338-67.48556 16.321375 21.488957c9.618867 13.81433 15.502748 27.62866 16.577196 42.977916 0.409313 6.139702-0.051164 16.884181-1.22794 35.252123l-16.423703 222.461877c-1.637254 29.163585-5.832717 39.908064-19.442391 56.741081l-36.4289 42.926752-46.09893-58.276007 22.409913-296.087139z" p-id="5894"></path></svg>