<?xml version="1.0" standalone="no"?><!DOCTYPE svg PUBLIC "-//W3C//DTD SVG 1.1//EN" "http://www.w3.org/Graphics/SVG/1.1/DTD/svg11.dtd"><svg t="1635132397294" class="icon" viewBox="0 0 1024 1024" version="1.1" xmlns="http://www.w3.org/2000/svg" p-id="15134" xmlns:xlink="http://www.w3.org/1999/xlink" width="16" height="16"><defs><style type="text/css"></style></defs><path d="M610.695713 885.140402l-59.759768 65.950634-21.591286-30.698511c-9.465374-13.763166-13.81433-24.507645-14.684121-36.787049-0.409313-6.139702 0.051164-16.884181 0.61397-26.093734l18.265614-262.318777 56.127111-65.950635 41.545318 56.741082-20.516838 299.15699z m32.02878-449.477366l-51.778155 58.276007-45.331468-58.276007 17.805136-268.458479c2.762866-30.698511 6.753672-42.977915 23.689018-61.397022l29.317078-32.233437 46.917557 64.466873-20.619166 297.622065z m223.945638 464.877785l49.88508 72.141501-20.261017 22.972719c-20.261017 23.023883-30.852004 27.62866-64.876187 27.62866h-184.498051c-40.061557 0-46.354752-3.069851-63.801739-27.62866l-17.344658-22.972719 62.983111-72.141501h237.913461z m7.725792-449.52853c24.302988 0 31.721795 3.018687 47.940841 26.093735l23.075048 35.303287-55.206156 61.294694h-239.090237l-45.536125-61.345858 54.02938-61.397022 214.787249 0.051164z m-193.861097-328.269411l-49.373439-64.466873 27.986809-33.717198c15.758569-18.419107 27.424003-24.558809 56.587589-24.558809h231.824923l47.838513 59.862097L939.067453 122.794044h-258.532627z m226.452683 466.361547l51.931648-56.741081 28.037973 36.787049c9.363046 12.22824 12.330569 19.954032 13.251524 33.717198 0.665134 9.209553 0.716299 27.62866-0.562806 44.461677l-13.865494 202.507844c-3.530329 36.838213-8.544419 52.187469-25.377436 72.141501l-27.986809 33.768362-47.173379-67.536724 21.744779-299.105826zM114.965924 434.844409l-50.703708 56.741081-29.163585-35.303288c-9.363046-12.22824-12.432897-21.437794-13.302688-33.717198-0.716299-10.693315-0.767463-29.163585 0.460478-45.996602L36.173079 174.060558c3.530329-36.787049 8.544419-52.136305 25.377436-72.141501l27.986809-33.717198 47.122214 67.48556-21.693614 299.15699z m226.452683 466.412711l48.247826 65.950635-26.912361 32.233436c-15.605076 19.954032-27.424003 24.558809-56.587589 24.558809h-231.773758l-47.838513-59.862097 56.331768-62.931947 258.532627 0.051164z m-193.758769-326.836814c-24.302988 0-31.875287-4.604777-48.04317-27.62866l-23.075047-35.252124 55.308484-59.862096h239.090237l45.433796 59.862096-53.927051 62.880784H147.659838z m7.623464-450.961127l-49.782752-70.606576 20.158689-24.558809C145.869092 5.321075 155.283302 0.716299 190.484261 0.716299h184.498051c40.010393 0 46.354752 3.018687 63.801739 27.62866l17.498151 24.558808-63.136604 70.555412H155.283302z m224.047966 466.361546l53.978215-61.397022 43.080244 61.397022-17.958629 266.974718c-2.609373 32.182272-6.753672 42.926751-23.637853 61.345858l-29.21475 33.768362-47.019886-65.950634 20.772659-296.138304z m31.875287-451.012291l59.759769-66.001799 21.64245 32.233437c9.363046 12.279404 13.81433 24.558809 14.581793 35.252123 0.562806 7.725792-0.102328 15.349256-0.613971 26.093735l-18.47027 259.197761-55.820126 70.606576-41.647647-58.276007 20.568002-299.105826z" p-id="15135"></path></svg>