<?xml version="1.0" standalone="no"?><!DOCTYPE svg PUBLIC "-//W3C//DTD SVG 1.1//EN" "http://www.w3.org/Graphics/SVG/1.1/DTD/svg11.dtd"><svg t="1635132067646" class="icon" viewBox="0 0 1024 1024" version="1.1" xmlns="http://www.w3.org/2000/svg" p-id="5742" xmlns:xlink="http://www.w3.org/1999/xlink" width="16" height="16"><defs><style type="text/css"></style></defs><path d="M615.556311 885.140402l-97.211952 118.189267 23.84251-365.107624c0.562806-9.209553 1.125612-18.419107 2.865195-26.093735 1.790746-7.674628 3.632657-13.763166 6.702508-18.419106 0 0 6.293195-7.674628 16.62836-21.488958l30.135705-39.8569 37.247527 53.67123-20.209853 299.105826z m254.54182 15.400419l41.187169 61.397023-49.015289 61.397022h-331.390427l101.458579-122.74288 237.759968-0.051165z m24.968123-348.274607c-12.432897 16.884181-22.307585 21.488958-48.196663 21.488957h-193.861097l-41.033676-59.862096 32.079944-44.461677c4.144299-6.139702 9.465374-10.744479 14.888778-13.81433 5.423404-3.018687 9.823524-4.604777 15.451583-4.604777h213.047667l41.033676 59.862097-33.410212 41.391826zM669.074048 122.74288l-41.033676-59.862097L675.827721 0h229.931847c22.512241 0 33.205556 7.674628 45.740782 27.62866l15.093434 24.558809-57.457379 70.555411H669.074048z m251.523134 19.902868l58.582992-70.555411 20.005196 30.698511c2.455881 3.069851 5.218747 10.744479 8.135106 21.488958 1.432597 4.604777 1.739582 9.260717 1.995403 13.81433 0.409313 6.139702-0.051164 16.884181-0.306985 30.698511l-15.860898 227.015489c-1.637254 27.62866-5.423404 38.373139-19.902868 58.276007l-31.261317 39.908064-40.931348-58.276007 19.544719-293.068452zM344.744279 901.25712l50.652543 70.555411-26.247227 30.698511c-13.712002 15.298091-29.317078 21.488958-57.7132 21.488958H70.862396L25.940242 964.137903l62.164485-62.931947h256.639552z m31.312481-449.52853l47.4292 59.862097-56.024783 62.829619H112.049565l-48.861796-62.880784 57.457379-59.862096 255.411612 0.051164zM143.208554 123.459179l-46.150095-59.862097L151.855301 0.716299h243.081044c11.102628 0 18.623763 1.483761 21.079644 1.483761 8.749076 1.534926 21.847107 12.279404 32.796242 27.679824l16.526032 24.507645-65.490157 69.07165H143.208554z m239.090237 469.380233l55.922454-64.415709 21.693615 27.62866c12.279404 16.884181 16.833017 29.163585 18.060957 46.047767 0.562806 7.674628 1.074448 15.298091 0.358149 22.972719l-17.702808 239.346058c-1.739582 27.62866-7.060658 39.908064-24.200659 59.862096l-28.651944 30.698511-46.559408-66.001798 21.079644-296.138304z m32.284601-452.547217l64.31338-67.48556 16.321375 21.488958c9.618867 13.81433 15.502748 27.62866 16.577196 42.977916 0.409313 6.139702-0.051164 16.884181-1.22794 35.252123l-16.372539 222.461877c-1.637254 29.163585-5.832717 39.908064-19.442391 56.741081l-36.4289 42.926751-46.09893-58.276007 22.358749-296.087139z" p-id="5743"></path></svg>