<?xml version="1.0" standalone="no"?><!DOCTYPE svg PUBLIC "-//W3C//DTD SVG 1.1//EN" "http://www.w3.org/Graphics/SVG/1.1/DTD/svg11.dtd"><svg t="1635132291449" class="icon" viewBox="0 0 1024 1024" version="1.1" xmlns="http://www.w3.org/2000/svg" p-id="10751" xmlns:xlink="http://www.w3.org/1999/xlink" width="16" height="16"><defs><style type="text/css"></style></defs><path d="M613.151594 436.379334l-55.564305 58.276007-24.507645-32.182272c-12.84221-15.349256-19.186569-30.698511-20.465674-47.531528-0.460478-6.139702-1.023284-13.81433-0.409313-23.075048l28.293794-372.782252 94.756071 119.621865-22.102928 297.673228z m240.062356 464.877786l54.694514 70.555411-26.503048 29.163586c-15.553912 18.419107-29.521735 23.023883-59.452783 23.023883h-252.392925l-48.65714-59.862097 57.764365-62.931947h274.547017zM656.283002 123.459179L559.992006 0.716299h381.224343l48.964125 64.466873-58.122515 58.276007h-275.774957z m202.610173 328.269411c31.210153 0 35.354452 3.018687 58.327171 32.284601l22.972719 29.163585-61.806336 61.294694h-210.796442c-40.317378 0-49.782752-4.604777-71.27171-30.698511l-22.972719-29.163586 60.373738-62.931947 225.173579 0.051164z m37.605676 138.092135l58.020186-59.862096 25.684421 30.698511c10.02818 12.22824 16.577196 30.698511 17.600479 44.461677 0.562806 7.674628 0.153493 19.954032-0.102328 33.768362l-15.860897 207.061457c-2.507045 36.787049-9.977016 58.327171-22.051764 70.555411l-36.173079 38.373139-49.015289-64.466873 21.898271-300.589588zM124.635955 885.140402l-59.708604 66.001798-21.591286-30.698511c-9.465374-13.763166-13.81433-24.507645-14.684121-36.787049-0.409313-6.139702 0.051164-16.884181 0.61397-26.093734l18.265614-262.318777 56.127111-65.950634 41.545318 56.741081L124.635955 885.140402z m32.02878-449.477366L104.886579 493.939043l-45.331468-58.276007 17.805137-268.458479c2.762866-30.698511 6.753672-42.977915 23.689018-61.397022l29.317078-32.233437 46.917557 64.466873-20.619166 297.622065z m223.945638 464.877785l49.88508 72.141501-20.261017 22.972719c-20.261017 23.023883-30.852004 27.62866-64.876187 27.62866H160.911362c-40.061557 0-46.354752-3.069851-63.801739-27.62866l-17.344658-22.972719 62.983111-72.141501h237.862297z m7.725792-449.52853c24.302988 0 31.721795 3.018687 47.940841 26.093735l23.075048 35.303287-55.206156 61.294694H164.953333l-45.536125-61.345858 54.029379-61.397022 214.889578 0.051164zM194.475067 122.74288l-49.373438-64.466873 27.986809-33.717198C188.847007 6.139702 200.512441 0 229.624863 0h231.824922l47.838513 59.862097L452.95653 122.794044H194.475067z m226.452684 466.361547l51.931647-56.741081 28.037974 36.787049c9.363046 12.22824 12.330569 19.954032 13.251524 33.717198 0.665134 9.209553 0.716299 27.62866-0.562806 44.461677L499.720596 849.837114c-3.530329 36.838213-8.544419 52.187469-25.377436 72.141501l-27.986809 33.768362-47.173379-67.536724 21.744779-299.105826z" p-id="10752"></path></svg>