<?xml version="1.0" standalone="no"?><!DOCTYPE svg PUBLIC "-//W3C//DTD SVG 1.1//EN" "http://www.w3.org/Graphics/SVG/1.1/DTD/svg11.dtd"><svg t="1635132003655" class="icon" viewBox="0 0 1024 1024" version="1.1" xmlns="http://www.w3.org/2000/svg" p-id="3450" xmlns:xlink="http://www.w3.org/1999/xlink" width="16" height="16"><defs><style type="text/css"></style></defs><path d="M218.0608 121.344l-36.864-54.272L224.9216 0h140.2368L280.064 121.344H218.0608z m24.5248 446.976l54.1184-56.32 47.2576 56.32-29.3888 395.264L259.2256 1024l-46.0288-60.928 29.3888-394.752z m31.1296-423.936L383.5904 24.576l-31.0784 422.4-55.808 65.024-45.1584-65.536 22.1696-302.08zM616.2432 434.432l-50.7392 56.7808-29.184-35.328c-9.3696-12.2368-12.4416-21.4528-13.312-33.7408-0.7168-10.7008-0.768-29.184 0.4608-46.0288l13.8752-202.6496c3.5328-36.8128 8.5504-52.1728 25.3952-72.192l28.0064-33.7408 47.1552 67.5328-21.6576 299.3664z m226.6624 466.7392l48.2816 65.9968-26.9312 32.256c-15.616 19.968-27.4432 24.576-56.6272 24.576h-231.936l-47.872-59.904L584.192 901.12l258.7136 0.0512z m-193.8944-327.0144c-24.32 0-31.8976-4.608-48.0768-27.648l-23.0912-35.2768 55.3472-59.904h239.2576l45.4656 59.904-53.9648 62.9248h-214.9376z m7.6288-451.328l-49.8176-70.656 20.1728-24.576C647.2192 4.608 656.64 0 691.8144 0h184.6272c40.0384 0 46.3872 3.0208 63.8464 27.648l17.5104 24.576-63.1296 70.6048h-238.0288z m224.1536 466.688l54.016-61.44 43.1104 61.44-17.9712 267.1616c-2.6112 32.2048-6.7584 42.9568-23.6544 61.3888l-29.2352 33.792-47.0528-65.9968 20.7872-296.3456z m31.9488-451.328l59.8016-66.048 21.6576 32.256c9.3696 12.288 13.824 24.576 14.592 35.2768 0.5632 7.7312-0.1024 15.36-0.6144 26.112l-18.4832 259.3792-55.8592 70.6048-41.6768-58.3168 20.5824-299.264z" p-id="3451"></path></svg>