<?xml version="1.0" standalone="no"?><!DOCTYPE svg PUBLIC "-//W3C//DTD SVG 1.1//EN" "http://www.w3.org/Graphics/SVG/1.1/DTD/svg11.dtd"><svg t="1635131611428" class="icon" viewBox="0 0 1024 1024" version="1.1" xmlns="http://www.w3.org/2000/svg" p-id="5892" xmlns:xlink="http://www.w3.org/1999/xlink" width="16" height="16"><defs><style type="text/css"></style></defs><path d="M305.525 887.319l-78.413 69.09-23.62-24.585c-11.945-13.833-19.266-27.627-20.5-41.46-0.385-4.586 0.58-10.751 0.193-15.298l27.397-300.936 65.35-59.88 57.452 59.88-27.86 313.189z m38.61-435.991l-68.202 62.961-54.64-62.961 22.696-267.105c3.006-18.457 3.584-29.17 4.586-35.335 1.85-13.794 8.593-24.583 21.462-35.295l41.306-36.837 59.61 67.547-26.819 307.025z m283.442 449.825l66.314 73.673-34.14 30.75c-14.139 13.755-30.632 18.417-59.802 18.417H329.761c-29.168 0-46.584-6.165-58.413-18.418l-27.281-30.75 82.612-73.672h300.898z m-233.89-778.314l-64.118-66.005 29.554-30.75C377.465 7.669 395.228 0 418.233 0H699.17c21.5 0 42.384 10.75 56.025 26.086l24.044 29.208-80.07 67.546H393.687zM680.329 574.13l68.28-61.383 54.522 61.383-22.81 265.602c-1.31 19.96-3.315 32.251-2.93 36.875-1.85 13.756-8.747 23.004-23.004 35.258l-44.504 35.295-56.026-61.382 26.472-311.648z m39.149-429.827l79.915-69.089 18.766 21.501c13.64 15.336 20.96 29.17 22.31 44.505 0.54 6.166 1.079 12.292 0.077 18.419l-25.123 291.688-69.86 61.46-52.981-61.46 26.896-307.024z" p-id="5893"></path></svg>