<?xml version="1.0" standalone="no"?><!DOCTYPE svg PUBLIC "-//W3C//DTD SVG 1.1//EN" "http://www.w3.org/Graphics/SVG/1.1/DTD/svg11.dtd"><svg t="1635131665158" class="icon" viewBox="0 0 1024 1024" version="1.1" xmlns="http://www.w3.org/2000/svg" p-id="7068" xmlns:xlink="http://www.w3.org/1999/xlink" width="16" height="16"><defs><style type="text/css"></style></defs><path d="M323.039165 434.45345 258.921157 491.250291l-36.875561-35.334263c-11.829464-12.214789-15.721242-21.462578-16.800151-33.754432-0.924779-10.712023-1.001844-29.16907 0.577987-46.046286l17.5708-202.64219c4.469765-36.837029 10.789088-52.172946 32.097536-72.171292l35.411328-33.754432 59.609711 67.547397L323.039165 434.45345zM609.489449 901.158566l61.035412 66.006098-34.024159 32.251666c-19.76715 19.959813-34.717744 24.583707-71.554772 24.583707L271.752465 1024.000039l-60.495957-59.879438 71.246513-62.962034L609.489449 901.158566zM364.423024 574.133606c-30.710368 0-40.343482-4.585362-60.765684-27.627772l-29.16907-35.29573 69.974941-59.91797 302.441253 0 57.451893 59.91797L636.153909 574.133606 364.423024 574.133606zM374.056138 122.841472 311.055571 52.172946l25.508486-24.583707C362.149609 4.585362 374.056138 0 418.561125 0l233.352558 0c50.631648 0 58.607867 3.044064 80.686964 27.627772l22.11763 24.583707-79.800718 70.629993L374.056138 122.841472zM657.423825 589.508056l68.279513-61.420736 54.523426 61.420736-22.695617 267.145523c-3.313791 32.213134-8.515673 42.963689-29.901186 61.382204l-36.952626 33.792965-59.494113-66.006098L657.423825 589.508056zM697.767307 138.17739l75.562148-66.044631 27.396577 32.251666c11.829464 12.291854 17.493735 24.583707 18.418514 35.29573 0.693584 7.706491-0.15413 15.37445-0.770649 26.125006l-23.350669 259.400499-70.591461 70.629993-52.712401-58.33814L697.767307 138.17739z" p-id="7069"></path></svg>