<?xml version="1.0" standalone="no"?><!DOCTYPE svg PUBLIC "-//W3C//DTD SVG 1.1//EN" "http://www.w3.org/Graphics/SVG/1.1/DTD/svg11.dtd"><svg t="1635132387755" class="icon" viewBox="0 0 1024 1024" version="1.1" xmlns="http://www.w3.org/2000/svg" p-id="14679" xmlns:xlink="http://www.w3.org/1999/xlink" width="16" height="16"><defs><style type="text/css"></style></defs><path d="M615.556311 885.140402l-97.211952 118.189267 23.84251-365.107624c0.562806-9.209553 1.125612-18.419107 2.865195-26.093735 1.790746-7.674628 3.632657-13.763166 6.702508-18.419106 0 0 6.293195-7.674628 16.62836-21.488958l30.135705-39.8569 37.247527 53.67123-20.209853 299.105826z m254.54182 15.400419l41.187169 61.397023-49.015289 61.397022h-331.390427l101.458579-122.74288 237.759968-0.051165z m24.968123-348.274607c-12.432897 16.884181-22.307585 21.488958-48.196663 21.488957h-193.861097l-41.033676-59.862096 32.079944-44.461677c4.144299-6.139702 9.465374-10.744479 14.888778-13.81433 5.423404-3.018687 9.823524-4.604777 15.451583-4.604777h213.047667l41.033676 59.862097-33.410212 41.391826zM669.074048 122.74288l-41.033676-59.862097L675.827721 0h229.931847c22.512241 0 33.205556 7.674628 45.740782 27.62866l15.093434 24.558809-57.457379 70.555411H669.074048z m251.523134 19.902868l58.582992-70.555411 20.005196 30.698511c2.455881 3.069851 5.218747 10.744479 8.135106 21.488958 1.432597 4.604777 1.739582 9.260717 1.995403 13.81433 0.409313 6.139702-0.051164 16.884181-0.306985 30.698511l-15.860898 227.015489c-1.637254 27.62866-5.423404 38.373139-19.902868 58.276007l-31.261317 39.908064-40.931348-58.276007 19.544719-293.068452zM114.965924 434.844409l-50.703708 56.741081-29.163585-35.303288c-9.363046-12.22824-12.432897-21.437794-13.302688-33.717198-0.716299-10.693315-0.767463-29.163585 0.460478-45.996602L36.173079 174.060558c3.530329-36.787049 8.544419-52.136305 25.377436-72.141501l27.986809-33.717198 47.122214 67.48556-21.693614 299.15699z m226.452683 466.412711l48.247826 65.950635-26.912361 32.233436c-15.605076 19.954032-27.424003 24.558809-56.587589 24.558809h-231.773758l-47.838513-59.862097 56.331768-62.931947 258.532627 0.051164z m-193.758769-326.836814c-24.302988 0-31.875287-4.604777-48.04317-27.62866l-23.075047-35.252124 55.308484-59.862096h239.090237l45.433796 59.862096-53.927051 62.880784H147.659838z m7.623464-450.961127l-49.782752-70.606576 20.158689-24.558809C145.869092 5.321075 155.283302 0.716299 190.484261 0.716299h184.498051c40.010393 0 46.354752 3.018687 63.801739 27.62866l17.498151 24.558808-63.136604 70.555412H155.283302z m224.047966 466.361546l53.978215-61.397022 43.080244 61.397022-17.958629 266.974718c-2.609373 32.182272-6.753672 42.926751-23.637853 61.345858l-29.21475 33.768362-47.019886-65.950634 20.772659-296.138304z m31.875287-451.012291l59.759769-66.001799 21.64245 32.233437c9.363046 12.279404 13.81433 24.558809 14.581793 35.252123 0.562806 7.725792-0.102328 15.349256-0.613971 26.093735l-18.47027 259.197761-55.820126 70.606576-41.647647-58.276007 20.568002-299.105826z" p-id="14680"></path></svg>