<?xml version="1.0" standalone="no"?><!DOCTYPE svg PUBLIC "-//W3C//DTD SVG 1.1//EN" "http://www.w3.org/Graphics/SVG/1.1/DTD/svg11.dtd"><svg t="1635132320429" class="icon" viewBox="0 0 1024 1024" version="1.1" xmlns="http://www.w3.org/2000/svg" p-id="11961" xmlns:xlink="http://www.w3.org/1999/xlink" width="16" height="16"><defs><style type="text/css"></style></defs><path d="M608.046398 438.19889l-50.839058 60.259387-22.475677-30.104095c-11.826609-15.052047-18.943053-31.640018-20.018199-46.692065-0.40958-5.9901 0.051197-16.536773 0.20479-31.640018l24.0116-326.742063L591.970401 0.051197l42.698666 63.228839-26.622669 374.918854z m257.011149 13.567322l43.773811 61.744112-58.160292 58.723464H653.304935c-10.80266 0-17.970301 0-21.656517-1.535923-10.751462 0-24.472376-7.526024-30.974452-15.052047l-30.360082-40.650768 54.269287-63.280036 240.474376 0.051198z m72.700365 511.974401L885.690115 1024l-43.671416-60.259387 26.673866-373.485326 51.043848-57.238738 44.644168 57.238738-26.622669 373.485326z m36.452577-525.541723l-52.067796 60.259387-42.59627-61.744113 25.59872-371.898205L958.134493 0.051197l42.80106 64.764762-26.725064 373.382931zM83.426229 121.59392l-49.149543-54.730063L92.692965 0h387.41103L362.40108 121.59392H83.426229z m264.076396 446.544073l59.184241-56.265987 46.58967 56.265987-30.872056 393.452327-56.112395 62.307285-49.661517-62.256087 30.872057-393.503525z m32.510374-423.812409L495.053647 22.782861l-32.510374 423.812409-55.856407 65.327934-49.917504-65.327934 23.243637-302.269686z" p-id="11962"></path></svg>