<?xml version="1.0" standalone="no"?><!DOCTYPE svg PUBLIC "-//W3C//DTD SVG 1.1//EN" "http://www.w3.org/Graphics/SVG/1.1/DTD/svg11.dtd"><svg t="1635132367153" class="icon" viewBox="0 0 1024 1024" version="1.1" xmlns="http://www.w3.org/2000/svg" p-id="13767" xmlns:xlink="http://www.w3.org/1999/xlink" width="16" height="16"><defs><style type="text/css"></style></defs><path d="M610.690782 885.096178l-59.756782 65.947339-21.590208-30.696977c-9.464901-13.762478-13.81364-24.50642-14.683387-36.785211-0.409293-6.139395 0.051162-16.883337 0.613939-26.092431l18.264702-262.30567 56.124306-65.94734 41.543243 56.738246-20.515813 299.142044z m32.02718-449.454909l-51.775569 58.273095-45.329203-58.273095 17.804247-268.445066c2.762728-30.696977 6.753335-42.975768 23.687834-61.393955l29.315613-32.231826 46.915214 64.463652-20.618136 297.607195z m223.934449 464.854559l49.882588 72.137897-20.260005 22.971571c-20.260005 23.022733-30.850462 27.62728-64.872946 27.62728h-184.488833c-40.059555 0-46.352436-3.069698-63.798551-27.62728l-17.343792-22.971571 62.979965-72.137897h237.901574z m7.725406-449.50607c24.301774 0 31.72021 3.018536 47.938446 26.09243l23.073894 35.301524-55.203397 61.291631h-239.078291l-45.53385-61.342792 54.02668-61.393955 214.776518 0.051162z m-193.851412-328.253011l-49.370972-64.463652 27.985411-33.715513c15.757782-18.418186 27.422633-24.557582 56.584762-24.557582h231.81334l47.836123 59.859106L939.046115 122.787909h-258.51971z m226.441369 466.338247l51.929053-56.738247 28.036573 36.785212c9.362578 12.227629 12.329953 19.953035 13.250862 33.715513 0.665101 9.209093 0.716263 27.62728-0.562778 44.459455l-13.864802 202.497727c-3.530152 36.836373-8.543992 52.184861-25.376167 72.137897l-27.985411 33.766675-47.171022-67.53335 21.743692-299.090882zM117.646165 890.416987l-56.021983 64.463653-21.590207-35.301524c-6.29288-9.209093-10.488134-21.487884-11.357882-35.250363-0.409293-6.139395 0.255808-13.762478 0.869748-21.487884l14.529902-231.659855c2.046465-21.487884 6.59985-38.371222 16.01359-50.598851l38.882838-49.115163 38.678191 53.668548-20.004197 305.281439z m29.724907-452.524606l-47.42683 56.738246-22.511117-32.180664c-10.027679-13.762478-16.832176-32.231826-17.753085-45.994305-0.460455-7.674244 0.051162-16.883337 0.460455-27.627279l13.762478-208.637122c1.534849-29.162128 6.395204-41.389758 22.050662-62.877642l28.087734-39.906071 42.873445 65.94734-19.543742 294.537497z m214.009093 463.31971l45.585011 72.137897-23.227379 27.627279c-15.757782 19.953035-22.357632 23.022733-51.877892 23.022733H142.203747c-28.394704 0-40.059555-4.604547-51.468598-23.022733l-17.599601-26.092431 61.138147-73.621583h227.10647z m29.980714-449.506071l41.543243 62.928804-50.650013 59.807944H156.222033l-42.515313-59.859106 50.445366-62.928803 227.208793 0.051161zM183.798151 123.45301l-45.073395-64.463652 22.869248-32.231826c13.50667-19.953035 23.329703-26.092431 42.617637-26.092431h205.567425c18.21354 0 28.803997 6.139395 40.315363 26.092431l21.334399 30.748139-59.347489 65.947339H183.798151z m211.092881 470.891632l50.547689-61.342793 25.018036 35.250362c7.520759 10.743942 11.818336 24.50642 12.790408 39.90607 0.61394 9.157932 0.051162 18.418186-0.409293 29.162129l-14.836873 227.004147c-0.358131 12.278791-2.046465 21.487884-2.865051 26.09243-1.688334 9.209093-5.678941 16.883337-17.29263 30.696978l-28.394704 35.301523-43.999001-65.998501 19.441419-296.072345z m29.776068-452.524607l58.221933-65.94734 18.878641 29.162129c7.623083 12.278791 11.818336 24.557582 12.585761 36.785211 0.460455 7.674244-0.153485 15.348489-0.665101 24.557582l-13.864802 223.934449c-3.172021 38.371222-8.902123 55.254559-24.762228 73.672745l-27.32031 33.715514-42.515313-59.859106 19.441419-296.021184z" p-id="13768"></path></svg>