<?xml version="1.0" standalone="no"?><!DOCTYPE svg PUBLIC "-//W3C//DTD SVG 1.1//EN" "http://www.w3.org/Graphics/SVG/1.1/DTD/svg11.dtd"><svg t="1635132038746" class="icon" viewBox="0 0 1024 1024" version="1.1" xmlns="http://www.w3.org/2000/svg" p-id="4679" xmlns:xlink="http://www.w3.org/1999/xlink" width="16" height="16"><defs><style type="text/css"></style></defs><path d="M119.263715 885.140402l-97.211951 118.189267 23.84251-365.107624c0.562806-9.209553 1.125612-18.419107 2.865194-26.093735 1.790746-7.674628 3.632657-13.763166 6.702509-18.419106 0 0 6.293195-7.674628 16.62836-21.488958l30.135705-39.8569 37.247527 53.67123L119.263715 885.140402z m254.541821 15.400419l41.187169 61.397023-49.015289 61.397022H34.535825l101.458579-122.74288 237.811132-0.051165z m24.968122-348.274607c-12.432897 16.884181-22.307585 21.488958-48.196662 21.488957H156.715899l-41.033677-59.862096 32.079944-44.461677c4.144299-6.139702 9.465374-10.744479 14.888778-13.81433 5.423404-3.018687 9.823524-4.604777 15.451584-4.604777h213.047667l41.033676 59.862097-33.410213 41.391826zM172.781453 122.74288l-41.033676-59.862097L179.535125 0h229.931848c22.512241 0 33.205556 7.674628 45.740782 27.62866l15.093434 24.558809-57.45738 70.555411H172.781453z m251.523134 19.902868l58.582992-70.555411 20.005196 30.698511c2.455881 3.069851 5.218747 10.744479 8.135105 21.488958 1.432597 4.604777 1.739582 9.260717 1.995404 13.81433 0.409313 6.139702-0.051164 16.884181-0.306985 30.698511l-15.860898 227.015489c-1.637254 27.62866-5.423404 38.373139-19.902868 58.276007l-31.261317 39.908064-40.931348-58.276007 19.544719-293.068452zM613.151594 436.379334l-55.564305 58.276007-24.507645-32.182272c-12.84221-15.349256-19.186569-30.698511-20.465674-47.531528-0.460478-6.139702-1.023284-13.81433-0.409313-23.075048l28.293794-372.782252 94.756071 119.621865-22.102928 297.673228z m240.062356 464.877786l54.694514 70.555411-26.503048 29.163586c-15.553912 18.419107-29.521735 23.023883-59.452783 23.023883h-252.392925l-48.65714-59.862097 57.764365-62.931947h274.547017zM656.283002 123.459179L559.992006 0.716299h381.224343l48.964125 64.466873-58.122515 58.276007h-275.774957z m202.610173 328.269411c31.210153 0 35.354452 3.018687 58.327171 32.284601l22.972719 29.163585-61.806336 61.294694h-210.796442c-40.317378 0-49.782752-4.604777-71.27171-30.698511l-22.972719-29.163586 60.373738-62.931947 225.173579 0.051164z m37.605676 138.092135l58.020186-59.862096 25.684421 30.698511c10.02818 12.22824 16.577196 30.698511 17.600479 44.461677 0.562806 7.674628 0.153493 19.954032-0.102328 33.768362l-15.860897 207.061457c-2.507045 36.787049-9.977016 58.327171-22.051764 70.555411l-36.173079 38.373139-49.015289-64.466873 21.898271-300.589588z" p-id="4680"></path></svg>