<?xml version="1.0" standalone="no"?><!DOCTYPE svg PUBLIC "-//W3C//DTD SVG 1.1//EN" "http://www.w3.org/Graphics/SVG/1.1/DTD/svg11.dtd"><svg t="1635132400309" class="icon" viewBox="0 0 1024 1024" version="1.1" xmlns="http://www.w3.org/2000/svg" p-id="15287" xmlns:xlink="http://www.w3.org/1999/xlink" width="16" height="16"><defs><style type="text/css"></style></defs><path d="M601.123557 889.751886l-56.021983 64.463652-21.590208-35.301524c-6.29288-9.209093-10.488134-21.487884-11.357881-35.250362-0.409293-6.139395 0.255808-13.762478 0.869748-21.487884l14.529902-231.659855c2.046465-21.487884 6.59985-38.371222 16.01359-50.598851l38.882838-49.115163 38.678191 53.668548-20.004197 305.281439z m29.724907-452.524606l-47.42683 56.738246-22.511117-32.180665c-10.027679-13.762478-16.832176-32.231826-17.753085-45.994304-0.460455-7.674244 0.051162-16.883337 0.460455-27.627279l13.762478-208.637123c1.534849-29.162128 6.395204-41.389758 22.050662-62.877641l28.087734-39.906071 42.873445 65.94734-19.543742 294.537497z m214.009093 463.31971l45.585011 72.137896-23.227379 27.62728c-15.757782 19.953035-22.357632 23.022733-51.877892 23.022733h-189.707319c-28.394704 0-40.059555-4.604547-51.468599-23.022733l-17.5996-26.092431 61.138146-73.621584 227.157632-0.051161z m29.980714-449.506071l41.543243 62.928804-50.650013 59.807944h-226.032076l-42.515313-59.859106 50.445366-62.928803 227.208793 0.051161z m-207.562728-328.25301l-45.073395-64.463652 22.869248-32.231826c13.50667-19.953035 23.329703-26.092431 42.617637-26.092431h205.567425c18.21354 0 28.803997 6.139395 40.315363 26.092431l21.334399 30.748139-59.347489 65.947339h-228.283188z m211.092881 470.891631l50.547689-61.342793 25.018036 35.250363c7.520759 10.743942 11.818336 24.50642 12.790408 39.90607 0.61394 9.157932 0.051162 18.418186-0.409293 29.162129l-14.836873 227.004146c-0.358131 12.278791-2.046465 21.487884-2.865051 26.092431-1.688334 9.209093-5.678941 16.883337-17.292631 30.696977l-28.394704 35.301524-43.999-65.998501 19.441419-296.072346z m29.776068-452.524606l58.221933-65.94734 18.878641 29.162129c7.623083 12.278791 11.818336 24.557582 12.585761 36.785211 0.460455 7.674244-0.153485 15.348489-0.665101 24.557582l-13.864802 223.934449c-3.172021 38.371222-8.902123 55.254559-24.762228 73.672745l-27.32031 33.715514-42.515313-59.859106 19.441419-296.021184zM114.985761 434.873845l-50.701174 56.738246-29.162129-35.301524c-9.362578-12.227629-12.432276-21.436722-13.302023-33.715513-0.716263-10.69278-0.767424-29.162128 0.460454-45.994305L36.196852 174.103023c3.530152-36.785211 8.543992-52.1337 25.376168-72.137897l27.985411-33.715513 47.11986 67.482188-21.69253 299.142044z m226.441369 466.389408l48.245416 65.947339-26.911017 32.231826c-15.604297 19.953035-27.422633 24.557582-56.584762 24.557582h-231.762178l-47.836123-59.859106 56.328953-62.928803 258.519711 0.051162z m-193.749089-326.820485c-24.301774 0-31.873695-4.604547-48.040769-27.62728l-23.073895-35.250362 55.305721-59.859106h239.078291l45.431527 59.859106-53.924357 62.877642H147.678041z m7.623083-450.938596l-49.780265-70.603048 20.157682-24.557582C145.887384 5.371971 155.301124 0.767424 190.500325 0.767424h184.488833c40.008394 0 46.352436 3.018536 63.798551 27.62728l17.497277 24.557582-63.13345 70.551886H155.301124z m224.036773 466.338246l53.975518-61.393954 43.078091 61.393954-17.957731 266.961379c-2.609243 32.180665-6.753335 42.924607-23.636673 61.342793l-29.21329 33.766675-47.017537-65.947339 20.771622-296.123508z m31.873694-450.989757l59.756783-65.998502 21.641369 32.231827c9.362578 12.278791 13.81364 24.557582 14.581064 35.250362 0.562778 7.725406-0.102323 15.348489-0.61394 26.09243l-18.469348 259.184812-55.817337 70.603048-41.645565-58.273096 20.566974-299.090881z" p-id="15288"></path></svg>