<?xml version="1.0" standalone="no"?><!DOCTYPE svg PUBLIC "-//W3C//DTD SVG 1.1//EN" "http://www.w3.org/Graphics/SVG/1.1/DTD/svg11.dtd"><svg t="1635132141569" class="icon" viewBox="0 0 1024 1024" version="1.1" xmlns="http://www.w3.org/2000/svg" p-id="7858" xmlns:xlink="http://www.w3.org/1999/xlink" width="16" height="16"><defs><style type="text/css"></style></defs><path d="M121.670716 438.19889l-50.839058 60.259387-22.475676-30.104095c-11.826609-15.052047-18.943053-31.640018-20.018199-46.692065-0.40958-5.9901 0.051197-16.536773 0.20479-31.640018l24.011599-326.742063L105.59472 0l42.698665 63.228839-26.622669 374.970051z m257.01115 13.516124l43.773811 61.744113-58.160292 58.723464H166.929254c-10.80266 0-17.970301 0-21.656518-1.535923-10.751462 0-24.472376-7.526024-30.974451-15.052048l-30.360082-40.650767 54.269287-63.280036 240.474376 0.051197z m72.700365 512.025599L399.314434 1024l-43.671416-60.259387 26.673866-373.485326 51.043848-57.238738 44.644168 57.238738-26.622669 373.485326z m36.452577-525.541723L435.818209 498.40708 393.221939 436.662967l25.59872-371.898205L471.758812 0l42.80106 64.764762-26.725064 373.434128zM610.759862 885.766912l-59.79861 65.9935-21.60532-30.718464c-9.471526-13.772111-13.823309-24.523574-14.693665-36.81096-0.40958-6.143693 0.051197-16.895155 0.614369-26.110694l18.277486-262.489276 56.163592-65.9935 41.572321 56.777961-20.530173 299.351433z m32.049598-449.769512l-51.81181 58.313884-45.360932-58.313884 17.816709-268.632968c2.764662-30.718464 6.758062-43.00585 23.704415-61.436928l29.336133-32.254388 46.948053 64.508775-20.632568 297.815509z m224.091195 465.179941l49.917504 72.188391-20.274186 22.98765c-20.274186 23.038848-30.872056 27.646618-64.918354 27.646618h-184.617969c-40.087596 0-46.384881-3.071846-63.843208-27.646618l-17.355932-22.98765 63.024048-72.188391h238.068097z m7.730813-449.820709c24.318784 0 31.742413 3.020649 47.972002 26.110695l23.090045 35.326233-55.242038 61.334534h-239.245637l-45.565722-61.385731 54.064497-61.436928 214.926853 0.051197z m-193.9871-328.482776l-49.40553-64.508774 28.005-33.739113c15.768812-18.431078 27.441828-24.574771 56.624369-24.574772h231.975601l47.869606 59.901005L939.345033 122.925054h-258.700665z m226.59987 466.664667l51.965402-56.777961 28.056197 36.810959c9.369132 12.236188 12.338583 19.967002 13.260137 33.739113 0.665567 9.215539 0.716764 27.646618-0.563172 44.490576l-13.874506 202.639468c-3.532623 36.862157-8.549973 52.221389-25.393931 72.188391l-28.004999 33.79031-47.20404-67.580621 21.758912-299.300235z" p-id="7859"></path></svg>