<?xml version="1.0" standalone="no"?><!DOCTYPE svg PUBLIC "-//W3C//DTD SVG 1.1//EN" "http://www.w3.org/Graphics/SVG/1.1/DTD/svg11.dtd"><svg t="1635132204976" class="icon" viewBox="0 0 1024 1024" version="1.1" xmlns="http://www.w3.org/2000/svg" p-id="9076" xmlns:xlink="http://www.w3.org/1999/xlink" width="16" height="16"><defs><style type="text/css"></style></defs><path d="M608.0512 438.1696l-50.8416 60.2624-22.4768-30.1056c-11.8272-15.0528-18.944-31.6416-20.0192-46.6944-0.4096-5.9904 0.0512-16.5376 0.2048-31.6416l24.0128-326.7584L591.9744 0l42.7008 63.232-26.624 374.9376z m257.024 13.568l43.776 61.7472-58.1632 58.7264H653.312c-10.8032 0-17.9712 0-21.6576-1.536-10.752 0-24.4736-7.5264-30.976-15.0528l-30.3616-40.6528 54.272-63.2832 240.4864 0.0512z m72.704 512L885.7088 1024l-43.6736-60.2624 26.6752-373.504 51.0464-57.2416 44.6464 57.2416-26.624 373.504z m36.4544-525.568l-52.0704 60.2624-42.5984-61.7472 25.6-371.9168L958.1568 0l42.8032 64.768-26.7264 373.4016zM116.2752 435.968L60.7232 494.2848l-24.5248-32.2048c-12.8512-15.36-19.2-30.72-20.48-47.5648-0.4608-6.144-1.024-13.824-0.4096-23.0912L43.6224 18.432l94.8224 119.7056-22.1696 297.8304z m240.2304 465.2032l54.7328 70.6048-26.5216 29.184c-15.5648 18.432-29.5424 23.04-59.4944 23.04H72.6528l-48.6912-59.904L81.7664 901.12l274.7392 0.0512zM159.4368 122.8288L63.0784 0h381.4912l48.9984 64.512-58.112 58.3168H159.4368z m202.8032 328.4992c31.232 0 35.3792 3.0208 58.368 32.3072l22.9888 29.184-61.8496 61.3376h-210.944c-40.3456 0-49.8176-4.608-71.3216-30.72l-22.9888-29.184 60.416-62.976 225.3312 0.0512z m37.5808 138.1888l58.0608-59.904 25.7024 30.72c10.0352 12.2368 16.5888 30.72 17.6128 44.4928 0.5632 7.68 0.1536 19.968-0.1024 33.792l-15.872 207.2064c-2.5088 36.8128-9.984 58.368-22.0672 70.6048l-36.1984 38.4-49.0496-64.512 21.9136-300.8z" p-id="9077"></path></svg>