<?xml version="1.0" standalone="no"?><!DOCTYPE svg PUBLIC "-//W3C//DTD SVG 1.1//EN" "http://www.w3.org/Graphics/SVG/1.1/DTD/svg11.dtd"><svg t="1635132082345" class="icon" viewBox="0 0 1024 1024" version="1.1" xmlns="http://www.w3.org/2000/svg" p-id="6346" xmlns:xlink="http://www.w3.org/1999/xlink" width="16" height="16"><defs><style type="text/css"></style></defs><path d="M344.744279 901.25712l50.652543 70.555411-26.247227 30.698511c-13.712002 15.298091-29.317078 21.488958-57.7132 21.488958H70.862396L25.940242 964.137903l62.164485-62.931947h256.639552z m31.312481-449.52853l47.4292 59.862097-56.024783 62.829619H112.049565l-48.861796-62.880784 57.457379-59.862096 255.411612 0.051164zM143.208554 123.459179l-46.150095-59.862097L151.855301 0.716299h243.081044c11.102628 0 18.623763 1.483761 21.079644 1.483761 8.749076 1.534926 21.847107 12.279404 32.796242 27.679824l16.526032 24.507645-65.490157 69.07165H143.208554z m239.090237 469.380233l55.922454-64.415709 21.693615 27.62866c12.279404 16.884181 16.833017 29.163585 18.060957 46.047767 0.562806 7.674628 1.074448 15.298091 0.358149 22.972719l-17.702808 239.346058c-1.739582 27.62866-7.060658 39.908064-24.200659 59.862096l-28.651944 30.698511-46.559408-66.001798 21.079644-296.138304z m32.284601-452.547217l64.31338-67.48556 16.321375 21.488958c9.618867 13.81433 15.502748 27.62866 16.577196 42.977916 0.409313 6.139702-0.051164 16.884181-1.22794 35.252123l-16.372539 222.461877c-1.637254 29.163585-5.832717 39.908064-19.442391 56.741081l-36.4289 42.926751-46.09893-58.276007 22.358749-296.087139zM610.695713 885.140402l-59.759768 65.950634-21.591286-30.698511c-9.465374-13.763166-13.81433-24.507645-14.684121-36.787049-0.409313-6.139702 0.051164-16.884181 0.61397-26.093734l18.265614-262.318777 56.127111-65.950635 41.545318 56.741082-20.516838 299.15699z m32.02878-449.477366l-51.778155 58.276007-45.331468-58.276007 17.805136-268.458479c2.762866-30.698511 6.753672-42.977915 23.689018-61.397022l29.317078-32.233437 46.917557 64.466873-20.619166 297.622065z m223.945638 464.877785l49.88508 72.141501-20.261017 22.972719c-20.261017 23.023883-30.852004 27.62866-64.876187 27.62866h-184.498051c-40.061557 0-46.354752-3.069851-63.801739-27.62866l-17.344658-22.972719 62.983111-72.141501h237.913461z m7.725792-449.52853c24.302988 0 31.721795 3.018687 47.940841 26.093735l23.075048 35.303287-55.206156 61.294694h-239.090237l-45.536125-61.345858 54.02938-61.397022 214.787249 0.051164z m-193.861097-328.269411l-49.373439-64.466873 27.986809-33.717198c15.758569-18.419107 27.424003-24.558809 56.587589-24.558809h231.824923l47.838513 59.862097L939.067453 122.794044h-258.532627z m226.452683 466.361547l51.931648-56.741081 28.037973 36.787049c9.363046 12.22824 12.330569 19.954032 13.251524 33.717198 0.665134 9.209553 0.716299 27.62866-0.562806 44.461677l-13.865494 202.507844c-3.530329 36.838213-8.544419 52.187469-25.377436 72.141501l-27.986809 33.768362-47.173379-67.536724 21.744779-299.105826z" p-id="6347"></path></svg>