<?xml version="1.0" standalone="no"?><!DOCTYPE svg PUBLIC "-//W3C//DTD SVG 1.1//EN" "http://www.w3.org/Graphics/SVG/1.1/DTD/svg11.dtd"><svg t="1635132209285" class="icon" viewBox="0 0 1024 1024" version="1.1" xmlns="http://www.w3.org/2000/svg" p-id="9229" xmlns:xlink="http://www.w3.org/1999/xlink" width="16" height="16"><defs><style type="text/css"></style></defs><path d="M116.552014 435.663036L61.038873 493.939043l-24.507645-32.182273c-12.84221-15.349256-19.186569-30.698511-20.465674-47.531528-0.460478-6.139702-1.023284-13.81433-0.409313-23.075047L43.950035 18.419107l94.756071 119.621864-22.154092 297.622065z m240.062356 464.877785l54.694514 70.555412-26.503048 29.163585c-15.553912 18.419107-29.521735 23.023883-59.452783 23.023883H72.960128l-48.65714-59.862096L82.067353 900.489657l274.547017 0.051164zM159.683422 122.74288L63.392425 0h381.224343l48.964125 64.466873-58.07135 58.276007H159.683422z m202.661337 328.269411c31.210153 0 35.354452 3.018687 58.327171 32.284601l22.972719 29.163586-61.806336 61.294693h-210.796442c-40.317378 0-49.782752-4.604777-71.27171-30.698511l-22.972719-29.163585 60.373738-62.931948 225.173579 0.051164z m37.554512 138.092136l58.020185-59.862097 25.684421 30.698511c10.02818 12.22824 16.577196 30.698511 17.60048 44.461677 0.562806 7.674628 0.153493 19.954032-0.102328 33.768362l-15.860898 207.061457c-2.507045 36.787049-9.977016 58.327171-22.051764 70.555412l-36.173078 38.373138-49.01529-64.466873 21.898272-300.589587zM613.151594 436.379334l-55.564305 58.276007-24.507645-32.182272c-12.84221-15.349256-19.186569-30.698511-20.465674-47.531528-0.460478-6.139702-1.023284-13.81433-0.409313-23.075048l28.293794-372.782252 94.756071 119.621865-22.102928 297.673228z m240.062356 464.877786l54.694514 70.555411-26.503048 29.163586c-15.553912 18.419107-29.521735 23.023883-59.452783 23.023883h-252.392925l-48.65714-59.862097 57.764365-62.931947h274.547017zM656.283002 123.459179L559.992006 0.716299h381.224343l48.964125 64.466873-58.122515 58.276007h-275.774957z m202.610173 328.269411c31.210153 0 35.354452 3.018687 58.327171 32.284601l22.972719 29.163585-61.806336 61.294694h-210.796442c-40.317378 0-49.782752-4.604777-71.27171-30.698511l-22.972719-29.163586 60.373738-62.931947 225.173579 0.051164z m37.605676 138.092135l58.020186-59.862096 25.684421 30.698511c10.02818 12.22824 16.577196 30.698511 17.600479 44.461677 0.562806 7.674628 0.153493 19.954032-0.102328 33.768362l-15.860897 207.061457c-2.507045 36.787049-9.977016 58.327171-22.051764 70.555411l-36.173079 38.373139-49.015289-64.466873 21.898271-300.589588z" p-id="9230"></path></svg>