<?xml version="1.0" standalone="no"?><!DOCTYPE svg PUBLIC "-//W3C//DTD SVG 1.1//EN" "http://www.w3.org/Graphics/SVG/1.1/DTD/svg11.dtd"><svg t="1635131635333" class="icon" viewBox="0 0 1024 1024" version="1.1" xmlns="http://www.w3.org/2000/svg" p-id="6333" xmlns:xlink="http://www.w3.org/1999/xlink" width="16" height="16"><defs><style type="text/css"></style></defs><path d="M323.634639 438.182194l-63.990551 60.248634L231.371831 468.306511c-14.854274-15.04326-23.849993-31.636203-25.172892-46.679463-0.52916-5.971947 0.037797-16.555145 0.226783-31.636203L236.625633 63.234608 303.375374 0l53.70973 63.234608L323.634639 438.182194zM647.064729 451.713569l55.108224 61.76052-73.175255 58.736749L380.557126 572.210837c-13.569172 0-22.602687 0-27.251735-1.511885-13.531375 0-30.766868-7.52163-38.968847-15.04326l-38.175107-40.631921 68.261627-63.272405L647.064729 451.751366zM738.533798 963.751366l-65.502436 60.248634-54.957035-60.248634 33.563856-373.511295 64.255131-57.224863 56.204341 57.224863L738.533798 963.751366zM784.41952 438.182194l-65.502436 60.248634-53.596338-61.76052 32.20316-371.923815L764.160256 0l53.860918 64.746493L784.41952 438.182194z" p-id="6334"></path></svg>