<?xml version="1.0" standalone="no"?><!DOCTYPE svg PUBLIC "-//W3C//DTD SVG 1.1//EN" "http://www.w3.org/Graphics/SVG/1.1/DTD/svg11.dtd"><svg t="1635132370663" class="icon" viewBox="0 0 1024 1024" version="1.1" xmlns="http://www.w3.org/2000/svg" p-id="13920" xmlns:xlink="http://www.w3.org/1999/xlink" width="16" height="16"><defs><style type="text/css"></style></defs><path d="M601.119105 889.707434l-56.019185 64.460432-21.589129-35.29976c-6.292566-9.208633-10.48761-21.486811-11.357314-35.248602-0.409273-6.139089 0.255795-13.761791 0.869704-21.48681l14.529177-231.648282c2.046363-21.486811 6.59952-38.369305 16.01279-50.596322l38.880895-49.11271 38.676259 53.665867-20.003197 305.266187z m29.723421-452.501998l-47.42446 56.735411-22.509992-32.179056c-10.027178-13.761791-16.831335-32.230216-17.752199-45.992007-0.460432-7.673861 0.051159-16.882494 0.460432-27.625899l13.761791-208.626699c1.534772-29.160671 6.394884-41.38769 22.04956-62.8745l28.086331-39.904077 42.871303 65.944045-19.542766 294.522782z m213.998401 463.296562l45.582734 72.134293-23.226219 27.625899c-15.756994 19.952038-22.356515 23.021583-51.8753 23.021583h-189.697841c-28.393285 0-40.057554-4.604317-51.466028-23.021583l-17.598721-26.091127 61.135092-73.617906 227.146283-0.051159z m29.979217-449.483613l41.541167 62.92566-50.647482 59.804956h-226.020783l-42.51319-59.856115 50.442846-62.92566 227.197442 0.051159z m-207.552358-328.23661l-45.071143-64.460432 22.868105-32.230216c13.505995-19.952038 23.328537-26.091127 42.615508-26.091127h205.557154c18.21263 0 28.802558 6.139089 40.313349 26.091127l21.333334 30.746603-59.344525 65.944045h-228.271782z m211.082334 470.868105l50.545164-61.339728 25.016786 35.248601c7.520384 10.743405 11.817746 24.505196 12.789769 39.904077 0.613909 9.157474 0.051159 18.417266-0.409273 29.160671l-14.836131 226.992806c-0.358114 12.278177-2.046363 21.486811-2.864908 26.091127-1.688249 9.208633-5.678657 16.882494-17.291767 30.695444l-28.393285 35.29976-43.996803-65.995204 19.440448-296.057554z m29.77458-452.501998l58.219025-65.944045 18.877698 29.160671c7.622702 12.278177 11.817746 24.556355 12.585132 36.783374 0.460432 7.673861-0.153477 15.347722-0.665068 24.556355l-13.864109 223.923261c-3.171863 38.369305-8.901679 55.251799-24.760991 73.669065l-27.318945 33.713829-42.513189-59.856115 19.440447-296.006395zM117.665867 890.423661l-56.019184 64.460432-21.589129-35.29976c-6.292566-9.208633-10.48761-21.486811-11.357314-35.248602-0.409273-6.139089 0.255795-13.761791 0.869704-21.48681l14.529177-231.648282c2.046363-21.486811 6.59952-38.369305 16.012789-50.596322l38.880896-49.11271 38.676259 53.665867-20.003198 305.266187z m29.723422-452.501998l-47.424461 56.735411-22.509992-32.179056c-10.027178-13.761791-16.831335-32.230216-17.752198-45.992007-0.460432-7.673861 0.051159-16.882494 0.460432-27.625899l13.76179-208.626699c1.534772-29.160671 6.394884-41.38769 22.04956-62.8745l28.086331-39.904077 42.871303 65.944045-19.542765 294.522782z m213.998401 463.296562l45.582734 72.134293-23.226219 27.625899c-15.756994 19.952038-22.356515 23.021583-51.8753 23.021583H142.222222c-28.393285 0-40.057554-4.604317-51.466027-23.021583l-17.598721-26.091127 61.135092-73.617906h227.095124z m29.979216-449.483613l41.541168 62.92566-50.647482 59.804956H156.239808l-42.513189-59.856115 50.442845-62.92566 227.197442 0.051159zM183.814548 123.498002l-45.071143-64.460432 22.868106-32.230216c13.505995-19.952038 23.328537-26.091127 42.615507-26.091127h205.557155c18.21263 0 28.802558 6.139089 40.313349 26.091127l21.333333 30.746603-59.344524 65.944045H183.814548z m211.082334 470.868105l50.545164-61.339728 25.016787 35.248601c7.520384 10.743405 11.817746 24.505196 12.789768 39.904077 0.613909 9.157474 0.051159 18.417266-0.409272 29.160671l-14.836132 226.992806c-0.358114 12.278177-2.046363 21.486811-2.864908 26.091127-1.688249 9.208633-5.678657 16.882494-17.291766 30.695444l-28.393286 35.29976-43.996802-65.995204 19.440447-296.057554z m29.774581-452.501998l58.219025-65.944045 18.877697 29.160671c7.622702 12.278177 11.817746 24.556355 12.585132 36.783374 0.460432 7.673861-0.153477 15.347722-0.665068 24.556355l-13.864108 223.923261c-3.171863 38.369305-8.901679 55.251799-24.760992 73.669065l-27.318944 33.713829-42.51319-59.856115 19.440448-296.006395z" p-id="13921"></path></svg>