<?xml version="1.0" standalone="no"?><!DOCTYPE svg PUBLIC "-//W3C//DTD SVG 1.1//EN" "http://www.w3.org/Graphics/SVG/1.1/DTD/svg11.dtd"><svg t="1635131640657" class="icon" viewBox="0 0 1024 1024" version="1.1" xmlns="http://www.w3.org/2000/svg" p-id="6480" xmlns:xlink="http://www.w3.org/1999/xlink" width="16" height="16"><defs><style type="text/css"></style></defs><path d="M344.615008 435.956216l-65.543709 58.33814-28.899343-32.213134c-15.181788-15.335918-22.657085-30.710368-24.121318-47.549052-0.539454-6.165193-1.194506-13.833152-0.462389-23.080942l33.369108-373.032714 111.782657 119.720343L344.615008 435.956216zM627.828565 901.158566l64.541865 70.629993-31.249822 29.16907c-18.341449 18.418514-34.833341 23.042409-70.129071 23.042409L293.174178 1024.000039l-57.413361-59.879438 68.163916-62.962034L627.828565 901.158566zM395.477851 122.841472 281.884168 0l449.789368 0 57.798685 64.503333-68.549241 58.33814L395.477851 122.841472zM634.571745 451.330666c36.837029 0 41.730651 3.044064 68.818968 32.290199l27.12685 29.16907L657.575622 574.133606 408.887146 574.133606c-47.587584 0-58.761997-4.585362-84.077821-30.710368l-27.12685-29.16907 71.246513-62.962034L634.571745 451.292134zM678.88407 589.508056l68.433643-59.879438 30.325043 30.710368c11.829464 12.253321 19.535956 30.710368 20.768994 44.504988 0.655052 7.667959 0.192662 19.959813-0.115597 33.792965l-18.726774 207.227552c-2.928467 36.837029-11.790932 58.376672-26.047941 70.629993l-42.693962 38.378327-57.837218-64.503333L678.88407 589.508056z" p-id="6481"></path></svg>