<?xml version="1.0" standalone="no"?><!DOCTYPE svg PUBLIC "-//W3C//DTD SVG 1.1//EN" "http://www.w3.org/Graphics/SVG/1.1/DTD/svg11.dtd"><svg t="1635133044664" class="icon" viewBox="0 0 1024 1024" version="1.1" xmlns="http://www.w3.org/2000/svg" p-id="17591" xmlns:xlink="http://www.w3.org/1999/xlink" width="16" height="16"><defs><style type="text/css"></style></defs><path d="M613.449865 887.558615l-57.825401 68.910306-17.419136-24.519604c-8.786192-13.792278-14.200938-27.584556-15.120423-41.376834-0.306495-4.597426 0.40866-10.727327 0.153247-15.27367l20.177592-300.262995 48.170807-59.766537 42.347401 59.766537-20.484087 312.522797z m28.452959-434.967574l-50.265191 62.831487-40.3041-62.831487 16.755063-266.497456c2.196548-18.389704 2.656291-29.117031 3.371446-35.246932 1.379228-13.741195 6.334231-24.519605 15.835578-35.19585l30.445176-36.728325 43.930959 67.377831-19.768931 306.290732z m208.978549 448.810934l48.885962 73.507733-25.183677 30.700588c-10.420832 13.741195-22.57847 18.389704-44.084207 18.389704h-199.22179c-21.505737 0-34.327447-6.129901-43.062556-18.389704l-20.126509-30.700588 60.890352-73.507733h221.902425zM678.426818 124.845655l-47.251322-65.845356 21.812232-30.700588c13.536865-18.389704 26.613988-26.05208 43.573381-26.052081h207.139579c15.835578 0 31.262496 10.727327 41.325751 26.052081l17.725631 29.11703-59.051382 67.377831h-225.27387z m211.379428 450.241245l50.316272-61.24793 40.201936 61.24793-16.806146 265.016063c-0.970568 19.922179-2.45196 32.181981-2.145466 36.779408-1.379228 13.741195-6.436396 22.936047-16.959393 35.195849l-32.794971 35.19585-41.325751-61.24793 19.513519-310.93924z m28.861618-428.837673l58.898134-68.910307 13.84336 21.454655c10.063255 15.324753 15.478001 29.117031 16.448569 44.390701 0.40866 6.129901 0.81732 12.259802 0.051082 18.389704l-18.542951 291.017061-51.49117 61.299012-39.078121-61.299012 19.871097-306.341814zM218.735309 121.065549l-36.779408-54.147461L225.580365 0h139.914996L280.596229 121.065549H218.735309z m24.468522 445.950315l53.994213-56.190762 47.149157 56.190762-29.32136 394.356978L259.805647 1021.650205l-45.923177-60.788188 29.321361-393.846153z m31.058166-422.963185L383.885064 24.519605l-31.007083 421.430709-55.679937 64.874788-45.054774-65.385613 22.118727-301.38681z" p-id="17592"></path></svg>