<?xml version="1.0" standalone="no"?><!DOCTYPE svg PUBLIC "-//W3C//DTD SVG 1.1//EN" "http://www.w3.org/Graphics/SVG/1.1/DTD/svg11.dtd"><svg t="1635131972007" class="icon" viewBox="0 0 1024 1024" version="1.1" xmlns="http://www.w3.org/2000/svg" p-id="2693" xmlns:xlink="http://www.w3.org/1999/xlink" width="16" height="16"><defs><style type="text/css"></style></defs><path d="M218.0608 121.344l-36.864-54.272L224.9216 0h140.2368L280.064 121.344H218.0608z m24.5248 446.976l54.1184-56.32 47.2576 56.32-29.3888 395.264L259.2256 1024l-46.0288-60.928 29.3888-394.752z m31.1296-423.936L383.5904 24.576l-31.0784 422.4-55.808 65.024-45.1584-65.536 22.1696-302.08zM608.0512 438.1696l-50.8416 60.2624-22.4768-30.1056c-11.8272-15.0528-18.944-31.6416-20.0192-46.6944-0.4096-5.9904 0.0512-16.5376 0.2048-31.6416l24.0128-326.7584L591.9744 0l42.7008 63.232-26.624 374.9376z m257.024 13.568l43.776 61.7472-58.1632 58.7264H653.312c-10.8032 0-17.9712 0-21.6576-1.536-10.752 0-24.4736-7.5264-30.976-15.0528l-30.3616-40.6528 54.272-63.2832 240.4864 0.0512z m72.704 512L885.7088 1024l-43.6736-60.2624 26.6752-373.504 51.0464-57.2416 44.6464 57.2416-26.624 373.504z m36.4544-525.568l-52.0704 60.2624-42.5984-61.7472 25.6-371.9168L958.1568 0l42.8032 64.768-26.7264 373.4016z" p-id="2694"></path></svg>