<?xml version="1.0" standalone="no"?><!DOCTYPE svg PUBLIC "-//W3C//DTD SVG 1.1//EN" "http://www.w3.org/Graphics/SVG/1.1/DTD/svg11.dtd"><svg t="1635131647046" class="icon" viewBox="0 0 1024 1024" version="1.1" xmlns="http://www.w3.org/2000/svg" p-id="6627" xmlns:xlink="http://www.w3.org/1999/xlink" width="16" height="16"><defs><style type="text/css"></style></defs><path d="M326.20594 885.784116l-75.562148 66.006098-27.280979-30.710368c-11.945062-13.756087-17.493735-24.545175-18.572644-36.837029-0.539454-6.165193 0.038532-16.877216 0.770649-26.125006l23.119474-262.521628 70.976785-66.006098 52.558271 56.796841L326.20594 885.784116zM366.703552 435.956216l-65.505177 58.33814-57.336296-58.33814 22.541487-268.648289c3.467921-30.710368 8.515673-43.002222 29.939719-61.420736l37.068223-32.251666 59.378516 64.503333L366.703552 435.956216zM649.955642 901.158566l63.116164 72.171292-25.624084 23.003877c-25.624084 23.042409-39.033379 27.666304-82.0356 27.666304L372.059564 1024.000039c-50.670181 0-58.607867-3.082597-80.686964-27.666304l-21.9635-23.003877 79.646588-72.171292L649.955642 901.158566zM659.742886 451.330666c30.710368 0 40.15082 3.044064 60.611554 26.125006l29.16907 35.334263L679.664166 574.133606 377.222913 574.133606l-57.56749-61.382204 68.318046-61.459269L659.742886 451.292134zM414.522331 122.841472 352.061219 58.33814l35.411328-33.754432C407.393827 6.126661 422.19029 0 459.027319 0l293.231996 0 60.495957 59.879438-71.246513 62.962034L414.522331 122.841472zM700.972615 589.508056l65.659306-56.796841 35.44986 36.837029c11.829464 12.253321 15.567113 19.959813 16.761619 33.754432 0.809182 9.209257 0.886247 27.666304-0.732117 44.504988l-17.5708 202.64219c-4.469765 36.875561-10.789088 52.211479-32.097536 72.171292l-35.411328 33.792965-59.648243-67.585929L700.972615 589.508056z" p-id="6628"></path></svg>