<?xml version="1.0" standalone="no"?><!DOCTYPE svg PUBLIC "-//W3C//DTD SVG 1.1//EN" "http://www.w3.org/Graphics/SVG/1.1/DTD/svg11.dtd"><svg t="1635131628361" class="icon" viewBox="0 0 1024 1024" version="1.1" xmlns="http://www.w3.org/2000/svg" p-id="6186" xmlns:xlink="http://www.w3.org/1999/xlink" width="16" height="16"><defs><style type="text/css"></style></defs><path d="M606.286 901.159l63 70.63-32.636 30.71c-17.07 15.297-36.49 21.501-71.786 21.501H265.505l-55.91-59.88 77.373-62.961h319.318z m38.957-449.828l58.993 59.918-69.744 62.885H316.715L255.91 511.21l71.516-59.918h317.816zM355.517 122.84l-57.413-59.917L366.268 0h302.44c13.834 0 23.159 1.503 26.241 1.503 10.905 1.541 27.204 12.292 40.806 27.705l20.577 24.545-81.458 69.088H355.517z m297.47 469.711l69.59-64.465 27.011 27.628c15.298 16.877 20.962 29.17 22.465 46.085 0.693 7.668 1.348 15.297 0.462 23.004l-22.002 239.518c-2.196 27.627-8.785 39.92-30.094 59.879l-35.68 30.71-57.954-66.044 26.203-296.315z m40.228-452.872l80.032-67.547 20.307 21.5c11.984 13.834 19.305 27.667 20.653 43.003 0.54 6.127-0.038 16.877-1.541 35.296l-20.422 222.602c-2.042 29.169-7.244 39.92-24.199 56.797l-45.352 42.963-57.337-58.338 27.86-296.276z" p-id="6187"></path></svg>