<?xml version="1.0" standalone="no"?><!DOCTYPE svg PUBLIC "-//W3C//DTD SVG 1.1//EN" "http://www.w3.org/Graphics/SVG/1.1/DTD/svg11.dtd"><svg t="1635132360311" class="icon" viewBox="0 0 1024 1024" version="1.1" xmlns="http://www.w3.org/2000/svg" p-id="13465" xmlns:xlink="http://www.w3.org/1999/xlink" width="16" height="16"><defs><style type="text/css"></style></defs><path d="M607.979216 437.841219l-50.803498 60.217237-22.459955-30.083038c-11.818336-15.041519-18.929803-31.617887-20.004197-46.659405-0.409293-5.985911 0.051162-16.525206 0.204647-31.617887l23.994804-326.513514L591.914464 0l42.668799 63.184612-26.604047 374.656607z m256.831376 13.557832l43.743193 61.700924-58.119611 58.682388H653.206095c-10.795104 0-17.957732 0-21.641369-1.534849-10.743942 0-24.455259-7.520759-30.952785-15.041518l-30.338846-40.622334 54.231327-63.235773 240.30617 0.051162z m72.649513 511.616287L885.428728 1023.232576l-43.640869-60.217238 26.655209-373.224081 51.008144-57.198701 44.61294 57.198701-26.604047 373.224081z m36.42708-525.174119l-52.031377 60.217237-42.566475-61.700924 25.580814-371.638072L957.822433 0l42.771122 64.71946-26.70637 373.121759zM117.646165 890.416987l-56.021983 64.463653-21.590207-35.301524c-6.29288-9.209093-10.488134-21.487884-11.357882-35.250363-0.409293-6.139395 0.255808-13.762478 0.869748-21.487884l14.529902-231.659855c2.046465-21.487884 6.59985-38.371222 16.01359-50.598851l38.882838-49.115163 38.678191 53.668548-20.004197 305.281439z m29.724907-452.524606l-47.42683 56.738246-22.511117-32.180664c-10.027679-13.762478-16.832176-32.231826-17.753085-45.994305-0.460455-7.674244 0.051162-16.883337 0.460455-27.627279l13.762478-208.637122c1.534849-29.162128 6.395204-41.389758 22.050662-62.877642l28.087734-39.906071 42.873445 65.94734-19.543742 294.537497z m214.009093 463.31971l45.585011 72.137897-23.227379 27.627279c-15.757782 19.953035-22.357632 23.022733-51.877892 23.022733H142.203747c-28.394704 0-40.059555-4.604547-51.468598-23.022733l-17.599601-26.092431 61.138147-73.621583h227.10647z m29.980714-449.506071l41.543243 62.928804-50.650013 59.807944H156.222033l-42.515313-59.859106 50.445366-62.928803 227.208793 0.051161zM183.798151 123.45301l-45.073395-64.463652 22.869248-32.231826c13.50667-19.953035 23.329703-26.092431 42.617637-26.092431h205.567425c18.21354 0 28.803997 6.139395 40.315363 26.092431l21.334399 30.748139-59.347489 65.947339H183.798151z m211.092881 470.891632l50.547689-61.342793 25.018036 35.250362c7.520759 10.743942 11.818336 24.50642 12.790408 39.90607 0.61394 9.157932 0.051162 18.418186-0.409293 29.162129l-14.836873 227.004147c-0.358131 12.278791-2.046465 21.487884-2.865051 26.09243-1.688334 9.209093-5.678941 16.883337-17.29263 30.696978l-28.394704 35.301523-43.999001-65.998501 19.441419-296.072345z m29.776068-452.524607l58.221933-65.94734 18.878641 29.162129c7.623083 12.278791 11.818336 24.557582 12.585761 36.785211 0.460455 7.674244-0.153485 15.348489-0.665101 24.557582l-13.864802 223.934449c-3.172021 38.371222-8.902123 55.254559-24.762228 73.672745l-27.32031 33.715514-42.515313-59.859106 19.441419-296.021184z" p-id="13466"></path></svg>