<?xml version="1.0" standalone="no"?><!DOCTYPE svg PUBLIC "-//W3C//DTD SVG 1.1//EN" "http://www.w3.org/Graphics/SVG/1.1/DTD/svg11.dtd"><svg t="1635132055908" class="icon" viewBox="0 0 1024 1024" version="1.1" xmlns="http://www.w3.org/2000/svg" p-id="5289" xmlns:xlink="http://www.w3.org/1999/xlink" width="16" height="16"><defs><style type="text/css"></style></defs><path d="M119.00845 885.715714l-97.275137 118.266087 23.858007-365.344933c0.563172-9.215539 1.126344-18.431078 2.867057-26.110694 1.79191-7.679616 3.635018-13.772111 6.706865-18.431079 0 0 6.297285-7.679616 16.639168-21.502925l30.155292-39.882805 37.271736 53.706114L119.00845 885.715714z m254.707264 15.41043l41.21394 61.436928-49.047148 61.436928H34.225489l101.524523-122.822659 237.965702-0.051197z m24.984351-348.500975c-12.440978 16.895155-22.322084 21.502925-48.227989 21.502925H156.484976l-41.060347-59.901005 32.100795-44.490576c4.146993-6.143693 9.471526-10.751462 14.898455-13.823309 5.426929-3.020649 9.829909-4.60777 15.461627-4.607769h213.18614l41.060347 59.901005-33.431928 41.418729zM172.560972 122.822659l-41.060347-59.901005L179.319034 0h230.081296c22.526874 0 33.227139 7.679616 45.770511 27.646618l15.103245 24.574771-57.494725 70.60127H172.560972z m251.686616 19.915804l58.621069-70.60127 20.018199 30.718464c2.457477 3.071846 5.222139 10.751462 8.140393 21.502925 1.433528 4.60777 1.740713 9.266737 1.9967 13.823309 0.40958 6.143693-0.051197 16.895155-0.307185 30.718464l-15.871206 227.163042c-1.638318 27.646618-5.426929 38.39808-19.915804 58.313884l-31.281636 39.934003-40.957953-58.313884 19.557423-293.258937zM616.237988 434.410279l-50.736663 56.777962-29.182541-35.326234c-9.369132-12.236188-12.440978-21.451727-13.311334-33.739113-0.716764-10.700265-0.767962-29.182541 0.460777-46.026499l13.874506-202.639468c3.532623-36.810959 8.549973-52.170191 25.39393-72.18839l28.005-33.739113 47.152842 67.529423-21.656517 299.351432z m226.651068 466.715865l48.279186 65.9935-26.929854 32.254387c-15.615219 19.967002-27.441828 24.574771-56.624369 24.574772h-231.924403l-47.869607-59.901005L584.188391 901.074946l258.700665 0.051198z m-193.884706-326.99805c-24.318784 0-31.896005-4.60777-48.074396-27.646618l-23.090046-35.275036 55.344433-59.901005h239.245638l45.463326 59.901005-53.962102 62.921654h-214.926853z m7.628418-451.305435l-49.815109-70.652468 20.171792-24.574771C647.212439 4.60777 656.632768 0 691.80541 0h184.617969c40.036398 0 46.384881 3.020649 63.843208 27.646618l17.509524 24.574771-63.126443 70.60127h-238.0169z m224.142393 466.664667l54.0133-61.436929 43.108244 61.436929-17.970301 267.148242c-2.611069 32.20319-6.758062 42.954652-23.653218 61.385731l-29.233738 33.79031-47.050447-65.9935 20.78616-296.330783z m31.947203-451.305435l59.79861-66.044698 21.656517 32.254387c9.369132 12.287386 13.823309 24.574771 14.591271 35.275037 0.563172 7.730813-0.102395 15.359232-0.61437 26.110694l-18.482276 259.366232-55.856407 70.60127-41.674716-58.313885 20.581371-299.249037z" p-id="5290"></path></svg>