<?xml version="1.0" standalone="no"?><!DOCTYPE svg PUBLIC "-//W3C//DTD SVG 1.1//EN" "http://www.w3.org/Graphics/SVG/1.1/DTD/svg11.dtd"><svg t="1635132030115" class="icon" viewBox="0 0 1024 1024" version="1.1" xmlns="http://www.w3.org/2000/svg" p-id="4375" xmlns:xlink="http://www.w3.org/1999/xlink" width="16" height="16"><defs><style type="text/css"></style></defs><path d="M119.00845 885.715714l-97.275137 118.266087 23.858007-365.344933c0.563172-9.215539 1.126344-18.431078 2.867057-26.110694 1.79191-7.679616 3.635018-13.772111 6.706865-18.431079 0 0 6.297285-7.679616 16.639168-21.502925l30.155292-39.882805 37.271736 53.706114L119.00845 885.715714z m254.707264 15.41043l41.21394 61.436928-49.047148 61.436928H34.225489l101.524523-122.822659 237.965702-0.051197z m24.984351-348.500975c-12.440978 16.895155-22.322084 21.502925-48.227989 21.502925H156.484976l-41.060347-59.901005 32.100795-44.490576c4.146993-6.143693 9.471526-10.751462 14.898455-13.823309 5.426929-3.020649 9.829909-4.60777 15.461627-4.607769h213.18614l41.060347 59.901005-33.431928 41.418729zM172.560972 122.822659l-41.060347-59.901005L179.319034 0h230.081296c22.526874 0 33.227139 7.679616 45.770511 27.646618l15.103245 24.574771-57.494725 70.60127H172.560972z m251.686616 19.915804l58.621069-70.60127 20.018199 30.718464c2.457477 3.071846 5.222139 10.751462 8.140393 21.502925 1.433528 4.60777 1.740713 9.266737 1.9967 13.823309 0.40958 6.143693-0.051197 16.895155-0.307185 30.718464l-15.871206 227.163042c-1.638318 27.646618-5.426929 38.39808-19.915804 58.313884l-31.281636 39.934003-40.957953-58.313884 19.557423-293.258937zM831.011249 901.126144l50.685466 70.60127-26.264287 30.718464c-13.720914 15.308035-29.336133 21.502925-57.750712 21.502925h-240.730364L512 964.047798l62.20489-62.972852h256.806359z m31.332834-449.820709l47.460027 59.901005-56.061197 62.870456h-255.526424l-48.893555-62.921654 57.494725-59.901005 255.526424 0.051198z m-232.99955-328.482776l-46.180091-59.901005L637.9969 0h243.239038c11.109845 0 18.635868 1.484726 21.093346 1.484726 8.754762 1.535923 21.861307 12.287386 32.817559 27.697815l16.536773 24.523574-65.481526 69.065346h-256.857557z m239.245637 469.685316l55.958803-64.457578 21.707714 27.646618c12.287386 16.895155 16.843958 29.182541 18.072697 46.077696 0.563172 7.679616 1.075146 15.308035 0.358382 22.987651l-17.714315 239.501625c-1.79191 27.646618-7.065247 39.934003-24.216389 59.901005l-28.670566 30.718464-46.589671-66.044698 21.093345-296.330783z m32.305585-452.841358l64.355182-67.529424 16.331984 21.502925c9.625119 13.823309 15.512824 27.646618 16.58797 43.00585 0.40958 6.143693-0.051197 16.895155-1.228738 35.275036l-16.434378 222.60647c-1.638318 29.182541-5.836508 39.934003-19.455028 56.777961l-36.452577 42.954652-46.128894-58.313884 22.424479-296.279586z" p-id="4376"></path></svg>