<?xml version="1.0" standalone="no"?><!DOCTYPE svg PUBLIC "-//W3C//DTD SVG 1.1//EN" "http://www.w3.org/Graphics/SVG/1.1/DTD/svg11.dtd"><svg t="1635132333206" class="icon" viewBox="0 0 1024 1024" version="1.1" xmlns="http://www.w3.org/2000/svg" p-id="12561" xmlns:xlink="http://www.w3.org/1999/xlink" width="16" height="16"><defs><style type="text/css"></style></defs><path d="M613.14654 436.408693l-55.561529 58.273096-24.50642-32.180665c-12.841569-15.348489-19.185611-30.696977-20.464651-47.529153-0.460455-6.139395-1.023233-13.81364-0.409293-23.073895l28.29238-372.763627 94.751337 119.615888-22.101824 297.658356z m240.050362 464.85456l54.691781 70.551886-26.501723 29.162128c-15.553135 18.418186-29.52026 23.022733-59.449813 23.022733h-252.380315l-48.654709-59.859106 57.761479-62.928803h274.5333zM656.275793 123.504172L559.989608 0.767424h381.205296l48.961679 64.463653-58.119611 58.273095h-275.761179z m202.60005 328.25301c31.208594 0 35.352685 3.018536 58.324257 32.282988l22.971571 29.162128-61.803247 61.291632h-210.785911c-40.315363 0-49.780265-4.604547-71.268149-30.696978l-22.971571-29.162128 60.370722-62.928804 225.162328 0.051162z m37.603797 138.085236l58.017287-59.859105 25.683138 30.696977c10.027679 12.227629 16.576368 30.696977 17.5996 44.459455 0.562778 7.674244 0.153485 19.953035-0.102323 33.766675l-15.860105 207.051112c-2.50692 36.785211-9.976518 58.324257-22.050662 70.551886l-36.171271 38.371222-49.012841-64.463653 21.897177-300.574569zM83.726005 121.508868l-49.115163-54.691781L92.98626 0h387.140045L362.505721 121.508868H83.726005z m263.891682 446.231727l59.142843-56.22663 46.557082 56.22663-30.850462 393.177117-56.073146 62.263702-49.626779-62.212541 30.850462-393.228278z m32.487634-423.515963L495.065501 22.766925l-32.487634 423.515963-55.817337 65.282238-49.882588-65.282238 23.227379-302.058256z" p-id="12562"></path></svg>