<?xml version="1.0" standalone="no"?><!DOCTYPE svg PUBLIC "-//W3C//DTD SVG 1.1//EN" "http://www.w3.org/Graphics/SVG/1.1/DTD/svg11.dtd"><svg t="1635132089801" class="icon" viewBox="0 0 1024 1024" version="1.1" xmlns="http://www.w3.org/2000/svg" p-id="6652" xmlns:xlink="http://www.w3.org/1999/xlink" width="16" height="16"><defs><style type="text/css"></style></defs><path d="M344.752636 901.263253l50.650012 70.551886-26.245916 30.696977c-13.711317 15.297327-29.315613 21.487884-57.710317 21.487884H70.884437L25.964527 964.140894l62.161379-62.928803h256.62673z m31.310916-449.506071l47.42683 59.859106-56.021983 62.82648H112.069548l-48.859356-62.877642 57.454509-59.859106 255.398851 0.051162zM143.22698 123.504172l-46.147789-59.859106L151.873295 0.767424h243.068898c11.102073 0 18.622833 1.483687 21.078591 1.483688 8.748639 1.534849 21.846015 12.278791 32.794604 27.678441l16.525207 24.50642-65.486885 69.068199H143.22698z m239.078291 469.356782l55.91966-64.41249 21.692531 27.627279c12.278791 16.883337 16.832176 29.162128 18.060055 46.045466 0.562778 7.674244 1.074394 15.297327 0.358131 22.971571l-17.701923 239.3341c-1.739495 27.62728-7.060305 39.90607-24.199451 59.859106l-28.650512 30.696977-46.557082-65.998501 21.078591-296.123508z m32.282988-452.524606l64.310167-67.482189 16.32056 21.487884c9.618386 13.81364 15.501974 27.62728 16.576367 42.975769 0.409293 6.139395-0.051162 16.883337-1.227879 35.250362l-16.371721 222.450762c-1.637172 29.162128-5.832426 39.90607-19.441419 56.738246l-36.427079 42.924607-46.096628-58.273096 22.357632-296.072345zM601.123557 889.751886l-56.021983 64.463652-21.590208-35.301524c-6.29288-9.209093-10.488134-21.487884-11.357881-35.250362-0.409293-6.139395 0.255808-13.762478 0.869748-21.487884l14.529902-231.659855c2.046465-21.487884 6.59985-38.371222 16.01359-50.598851l38.882838-49.115163 38.678191 53.668548-20.004197 305.281439z m29.724907-452.524606l-47.42683 56.738246-22.511117-32.180665c-10.027679-13.762478-16.832176-32.231826-17.753085-45.994304-0.460455-7.674244 0.051162-16.883337 0.460455-27.627279l13.762478-208.637123c1.534849-29.162128 6.395204-41.389758 22.050662-62.877641l28.087734-39.906071 42.873445 65.94734-19.543742 294.537497z m214.009093 463.31971l45.585011 72.137896-23.227379 27.62728c-15.757782 19.953035-22.357632 23.022733-51.877892 23.022733h-189.707319c-28.394704 0-40.059555-4.604547-51.468599-23.022733l-17.5996-26.092431 61.138146-73.621584 227.157632-0.051161z m29.980714-449.506071l41.543243 62.928804-50.650013 59.807944h-226.032076l-42.515313-59.859106 50.445366-62.928803 227.208793 0.051161z m-207.562728-328.25301l-45.073395-64.463652 22.869248-32.231826c13.50667-19.953035 23.329703-26.092431 42.617637-26.092431h205.567425c18.21354 0 28.803997 6.139395 40.315363 26.092431l21.334399 30.748139-59.347489 65.947339h-228.283188z m211.092881 470.891631l50.547689-61.342793 25.018036 35.250363c7.520759 10.743942 11.818336 24.50642 12.790408 39.90607 0.61394 9.157932 0.051162 18.418186-0.409293 29.162129l-14.836873 227.004146c-0.358131 12.278791-2.046465 21.487884-2.865051 26.092431-1.688334 9.209093-5.678941 16.883337-17.292631 30.696977l-28.394704 35.301524-43.999-65.998501 19.441419-296.072346z m29.776068-452.524606l58.221933-65.94734 18.878641 29.162129c7.623083 12.278791 11.818336 24.557582 12.585761 36.785211 0.460455 7.674244-0.153485 15.348489-0.665101 24.557582l-13.864802 223.934449c-3.172021 38.371222-8.902123 55.254559-24.762228 73.672745l-27.32031 33.715514-42.515313-59.859106 19.441419-296.021184z" p-id="6653"></path></svg>