<?xml version="1.0" standalone="no"?><!DOCTYPE svg PUBLIC "-//W3C//DTD SVG 1.1//EN" "http://www.w3.org/Graphics/SVG/1.1/DTD/svg11.dtd"><svg t="1635132195986" class="icon" viewBox="0 0 1024 1024" version="1.1" xmlns="http://www.w3.org/2000/svg" p-id="8770" xmlns:xlink="http://www.w3.org/1999/xlink" width="16" height="16"><defs><style type="text/css"></style></defs><path d="M615.623619 885.715714l-97.275136 118.266087 23.858007-365.344933c0.563172-9.215539 1.126344-18.431078 2.867056-26.110694 1.79191-7.679616 3.635018-13.772111 6.706865-18.431079 0 0 6.297285-7.679616 16.639168-21.502925l30.155292-39.882805 37.271737 53.706114-20.222989 299.300235z m254.707264 15.41043l41.21394 61.436928-49.047148 61.436928h-331.60582l101.524524-122.822659 237.914504-0.051197z m24.984351-348.500975c-12.440978 16.895155-22.322084 21.502925-48.227988 21.502925h-193.987101l-41.060347-59.901005 32.100795-44.490576c4.146993-6.143693 9.471526-10.751462 14.898455-13.823309 5.426929-3.020649 9.829909-4.60777 15.461627-4.607769h213.186141l41.060347 59.901005-33.431929 41.418729zM669.176141 122.822659l-41.060347-59.901005L675.934203 0h230.081296c22.526874 0 33.227139 7.679616 45.770512 27.646618l15.103245 24.574771-57.494726 70.60127H669.176141z m251.686616 19.915804l58.621069-70.60127 20.018199 30.718464c2.457477 3.071846 5.222139 10.751462 8.140393 21.502925 1.433528 4.60777 1.740713 9.266737 1.9967 13.823309 0.40958 6.143693-0.051197 16.895155-0.307185 30.718464l-15.871206 227.163042c-1.638318 27.646618-5.426929 38.39808-19.915804 58.313884l-31.281636 39.934003-40.957952-58.313884 19.557422-293.258937zM116.294985 435.946203L60.745763 494.260087l-24.523574-32.20319c-12.850557-15.359232-19.19904-30.718464-20.478976-47.562422-0.460777-6.143693-1.023949-13.823309-0.40958-23.090045L43.645818 18.431078l94.817659 119.699615-22.168492 297.81551z m240.218389 465.179941l54.730064 70.60127-26.520274 29.182541c-15.564022 18.431078-29.540923 23.038848-59.491426 23.038848H72.674766l-48.688765-59.901005L81.787911 901.074946l274.725463 0.051198zM159.454427 122.822659L63.100845 0h381.472126l48.995951 64.508775-58.109095 58.313884H159.454427z m202.793061 328.482776c31.230438 0 35.377431 3.020649 58.365081 32.305584l22.987651 29.182541-61.846508 61.334534h-210.933453c-40.343583 0-49.815109-4.60777-71.318034-30.718464l-22.987651-29.182541 60.41298-62.972852 225.319934 0.051198z m37.578921 138.181891l58.057897-59.901005 25.701115 30.718464c10.034698 12.236188 16.587971 30.718464 17.611919 44.490575 0.563172 7.679616 0.153592 19.967002-0.102395 33.790311l-15.871206 207.19604c-2.508675 36.810959-9.983501 58.365082-22.066097 70.60127l-36.19659 38.39808-49.047148-64.508775 21.912505-300.78496z" p-id="8771"></path></svg>