<?xml version="1.0" standalone="no"?><!DOCTYPE svg PUBLIC "-//W3C//DTD SVG 1.1//EN" "http://www.w3.org/Graphics/SVG/1.1/DTD/svg11.dtd"><svg t="1635131994745" class="icon" viewBox="0 0 1024 1024" version="1.1" xmlns="http://www.w3.org/2000/svg" p-id="3146" xmlns:xlink="http://www.w3.org/1999/xlink" width="16" height="16"><defs><style type="text/css"></style></defs><path d="M218.0608 121.344l-36.864-54.272L224.9216 0h140.2368L280.064 121.344H218.0608z m24.5248 446.976l54.1184-56.32 47.2576 56.32-29.3888 395.264L259.2256 1024l-46.0288-60.928 29.3888-394.752z m31.1296-423.936L383.5904 24.576l-31.0784 422.4-55.808 65.024-45.1584-65.536 22.1696-302.08zM574.5152 121.6l-49.1008-54.7328L583.7312 0h387.4304L853.504 121.6h-278.9888z m264.0896 446.5664l59.1872-56.2688 46.592 56.2688-30.8736 393.472L857.3952 1024l-49.664-62.2592 30.8736-393.5744z m32.512-423.8336l115.0464-121.5488-32.512 423.8336-55.8592 65.3312-49.92-65.3312 23.2448-302.2848z" p-id="3147"></path></svg>