<?xml version="1.0" standalone="no"?><!DOCTYPE svg PUBLIC "-//W3C//DTD SVG 1.1//EN" "http://www.w3.org/Graphics/SVG/1.1/DTD/svg11.dtd"><svg t="1635132344855" class="icon" viewBox="0 0 1024 1024" version="1.1" xmlns="http://www.w3.org/2000/svg" p-id="12861" xmlns:xlink="http://www.w3.org/1999/xlink" width="16" height="16"><defs><style type="text/css"></style></defs><path d="M613.449865 887.558615l-57.825401 68.910306-17.419136-24.519604c-8.786192-13.792278-14.200938-27.584556-15.120423-41.376834-0.306495-4.597426 0.40866-10.727327 0.153247-15.27367l20.177592-300.262995 48.170807-59.766537 42.347401 59.766537-20.484087 312.522797z m28.452959-434.967574l-50.265191 62.831487-40.3041-62.831487 16.755063-266.497456c2.196548-18.389704 2.656291-29.117031 3.371446-35.246932 1.379228-13.741195 6.334231-24.519605 15.835578-35.19585l30.445176-36.728325 43.930959 67.377831-19.768931 306.290732z m208.978549 448.810934l48.885962 73.507733-25.183677 30.700588c-10.420832 13.741195-22.57847 18.389704-44.084207 18.389704h-199.22179c-21.505737 0-34.327447-6.129901-43.062556-18.389704l-20.126509-30.700588 60.890352-73.507733h221.902425zM678.426818 124.845655l-47.251322-65.845356 21.812232-30.700588c13.536865-18.389704 26.613988-26.05208 43.573381-26.052081h207.139579c15.835578 0 31.262496 10.727327 41.325751 26.052081l17.725631 29.11703-59.051382 67.377831h-225.27387z m211.379428 450.241245l50.316272-61.24793 40.201936 61.24793-16.806146 265.016063c-0.970568 19.922179-2.45196 32.181981-2.145466 36.779408-1.379228 13.741195-6.436396 22.936047-16.959393 35.195849l-32.794971 35.19585-41.325751-61.24793 19.513519-310.93924z m28.861618-428.837673l58.898134-68.910307 13.84336 21.454655c10.063255 15.324753 15.478001 29.117031 16.448569 44.390701 0.40866 6.129901 0.81732 12.259802 0.051082 18.389704l-18.542951 291.017061-51.49117 61.299012-39.078121-61.299012 19.871097-306.341814zM118.256011 889.040008l-55.935349 64.363963-21.556819-35.246932c-6.283149-9.194852-10.471915-21.454654-11.340317-35.19585-0.40866-6.129901 0.255413-13.741195 0.868403-21.454654l14.507432-231.301606c2.0433-21.454654 6.589644-38.311883 15.988826-50.520603l38.822708-49.03921 38.618378 53.585553-19.973262 304.809339z m29.678939-451.824803l-47.353487 56.650504-22.476305-32.130899c-10.012172-13.741195-16.806146-32.181981-17.725631-45.923177-0.459743-7.662377 0.051083-16.857228 0.459743-27.584555l13.741195-208.314477c1.532475-29.117031 6.385314-41.325751 22.016562-62.780405l28.044298-39.844358 42.807144 65.845356-19.513519 294.082011z m213.67814 462.603213l45.514517 72.026339-23.19146 27.584556c-15.733413 19.922179-22.323057 22.98713-51.797666 22.987129H142.775616c-28.350793 0-39.997606-4.597426-51.389005-22.987129l-17.572384-26.052081 61.0436-73.507732h226.755263z m29.934351-448.810935l41.478998 62.831487-50.571685 59.715455H156.772224l-42.449566-59.766537 50.367355-62.831488 226.857428 0.051083zM184.305697 123.262097l-45.003692-64.363963 22.833882-32.181981c13.485783-19.922179 23.293625-26.05208 42.551731-26.05208h205.249527c18.185374 0 28.759453 6.129901 40.253018 26.05208l21.301406 30.700588-59.255711 65.845356H184.305697z m210.766437 470.163424l50.46952-61.247929 24.979348 35.195849c7.509129 10.727327 11.80006 24.468522 12.770627 39.844358 0.61299 9.143769 0.051083 18.389704-0.40866 29.117031l-14.813928 226.653098c-0.357578 12.259802-2.0433 21.454654-2.86062 26.05208-1.685723 9.194852-5.670159 16.857228-17.265889 30.649506l-28.350793 35.246932-43.930959-65.896438 19.411354-295.614487z m29.730021-451.824803l58.131897-65.845355 18.849446 29.11703c7.611294 12.259802 11.80006 24.519605 12.566297 36.728325 0.459743 7.662377-0.153248 15.324753-0.664072 24.519605l-13.84336 223.588148c-3.167116 38.311883-8.888357 55.169111-24.723935 73.558814l-27.278061 33.663374-42.449566-59.766536 19.411354-295.563405z" p-id="12862"></path></svg>