<?xml version="1.0" standalone="no"?><!DOCTYPE svg PUBLIC "-//W3C//DTD SVG 1.1//EN" "http://www.w3.org/Graphics/SVG/1.1/DTD/svg11.dtd"><svg t="1635132199767" class="icon" viewBox="0 0 1024 1024" version="1.1" xmlns="http://www.w3.org/2000/svg" p-id="8923" xmlns:xlink="http://www.w3.org/1999/xlink" width="16" height="16"><defs><style type="text/css"></style></defs><path d="M831.0272 901.1712l50.688 70.6048-26.2656 30.72c-13.7216 15.3088-29.3376 21.504-57.7536 21.504h-240.7424L512 964.096l62.208-62.976h256.8192z m31.3344-449.8432l47.4624 59.904-56.064 62.8736h-255.5392l-48.896-62.9248 57.4976-59.904 255.5392 0.0512z m-233.0112-328.4992l-46.1824-59.904L638.0032 0h243.2512c11.1104 0 18.6368 1.4848 21.0944 1.4848 8.7552 1.536 21.8624 12.288 32.8192 27.6992l16.5376 24.5248-65.4848 69.0688h-256.8704z m239.2576 469.7088l55.9616-64.4608 21.7088 27.648c12.288 16.896 16.8448 29.184 18.0736 46.08 0.5632 7.68 1.0752 15.3088 0.3584 22.9888l-17.7152 239.5136c-1.792 27.648-7.0656 39.936-24.2176 59.904l-28.672 30.72-46.592-66.048 21.0944-296.3456z m32.3072-452.864l64.3584-67.5328 16.3328 21.504c9.6256 13.824 15.5136 27.648 16.5888 43.008 0.4096 6.144-0.0512 16.896-1.2288 35.2768l-16.4352 222.6176c-1.6384 29.184-5.8368 39.936-19.456 56.7808l-36.4544 42.9568-46.1312-58.3168 22.4256-296.2944zM116.2752 435.968L60.7232 494.2848l-24.5248-32.2048c-12.8512-15.36-19.2-30.72-20.48-47.5648-0.4608-6.144-1.024-13.824-0.4096-23.0912L43.6224 18.432l94.8224 119.7056-22.1696 297.8304z m240.2304 465.2032l54.7328 70.6048-26.5216 29.184c-15.5648 18.432-29.5424 23.04-59.4944 23.04H72.6528l-48.6912-59.904L81.7664 901.12l274.7392 0.0512zM159.4368 122.8288L63.0784 0h381.4912l48.9984 64.512-58.112 58.3168H159.4368z m202.8032 328.4992c31.232 0 35.3792 3.0208 58.368 32.3072l22.9888 29.184-61.8496 61.3376h-210.944c-40.3456 0-49.8176-4.608-71.3216-30.72l-22.9888-29.184 60.416-62.976 225.3312 0.0512z m37.5808 138.1888l58.0608-59.904 25.7024 30.72c10.0352 12.2368 16.5888 30.72 17.6128 44.4928 0.5632 7.68 0.1536 19.968-0.1024 33.792l-15.872 207.2064c-2.5088 36.8128-9.984 58.368-22.0672 70.6048l-36.1984 38.4-49.0496-64.512 21.9136-300.8z" p-id="8924"></path></svg>