<?xml version="1.0" standalone="no"?><!DOCTYPE svg PUBLIC "-//W3C//DTD SVG 1.1//EN" "http://www.w3.org/Graphics/SVG/1.1/DTD/svg11.dtd"><svg t="1635132096470" class="icon" viewBox="0 0 1024 1024" version="1.1" xmlns="http://www.w3.org/2000/svg" p-id="6954" xmlns:xlink="http://www.w3.org/1999/xlink" width="16" height="16"><defs><style type="text/css"></style></defs><path d="M613.444805 887.565421l-57.822517 68.906869-17.418267-24.518382c-8.785753-13.79159-14.200229-27.58318-15.119669-41.374769-0.30648-4.597197 0.40864-10.726792 0.15324-15.272909l20.176585-300.248017 48.168404-59.763555 42.345289 59.763555-20.483065 312.507208z m28.451539-434.945877l-50.262683 62.828353-40.30209-62.828353 16.754227-266.484162c2.196438-18.388786 2.656158-29.115578 3.371278-35.245174 1.379159-13.74051 6.333915-24.518382 15.834788-35.194094l30.443658-36.726493 43.928767 67.37447-19.767945 306.275453z m208.968124 448.788547l48.883524 73.504065-25.182421 30.699058c-10.420312 13.74051-22.577343 18.388786-44.082007 18.388786h-199.211853c-21.504664 0-34.325735-6.129595-43.060408-18.388786l-20.125505-30.699058 60.887315-73.504065h221.891355zM678.418516 124.890507l-47.248964-65.842071 21.811143-30.699057c13.53619-18.388786 26.61266-26.050781 43.571208-26.050781h207.129246c15.834788 0 31.260937 10.726792 41.32369 26.050781l17.724746 29.115578-59.048436 67.37447h-225.262633z m211.368884 450.218786l50.313762-61.244874 40.19993 61.244874-16.805307 265.002843c-0.970519 19.921185-2.451838 32.180376-2.145359 36.777573-1.379159 13.74051-6.436075 22.934903-16.958547 35.194094l-32.793336 35.194094-41.323689-61.244875 19.512546-310.923729z m28.860178-428.816282l58.895196-68.906868 13.84267 21.453584c10.062753 15.323989 15.477229 29.115578 16.447748 44.388487 0.40864 6.129595 0.817279 12.259191 0.05108 18.388786l-18.542026 291.002544-51.488602 61.295955-39.076171-61.295955 19.870105-306.326533zM122.566369 437.193396l-50.722402 60.121115-22.424104-30.035018c-11.799471-15.017509-18.899586-31.567417-19.972265-46.584925-0.40864-5.976356 0.05108-16.498828 0.20432-31.567417l23.956502-325.992318L106.527261 0l42.600688 63.083753-26.56158 374.109643z m256.42141 13.48511l43.673367 61.602434-58.026837 58.588716H167.721056c-10.777872 0-17.929067 0-21.606824-1.532399-10.726792 0-24.416222-7.508754-30.903378-15.017508l-30.290417-40.55749 54.14476-63.134833 239.922582 0.05108z m72.533546 510.8507L399.573003 1021.650322l-43.571207-60.121116 26.61266-372.628323 50.926722-57.107398 44.541727 57.107398-26.56158 372.628323z m36.368933-524.33581L435.993016 497.263431 393.494488 435.660997l25.539981-371.044845L471.85115 0l42.702848 64.616152-26.66374 372.577244z" p-id="6955"></path></svg>