<?xml version="1.0" standalone="no"?><!DOCTYPE svg PUBLIC "-//W3C//DTD SVG 1.1//EN" "http://www.w3.org/Graphics/SVG/1.1/DTD/svg11.dtd"><svg t="1635131620291" class="icon" viewBox="0 0 1024 1024" version="1.1" xmlns="http://www.w3.org/2000/svg" p-id="6039" xmlns:xlink="http://www.w3.org/1999/xlink" width="16" height="16"><defs><style type="text/css"></style></defs><path d="M309.935797 885.784114 177.499744 1004.040223l32.482861-365.364754c0.770649-9.209257 1.502766-18.457047 3.891778-26.125006 2.427545-7.667959 4.932154-13.794619 9.132192-18.457047 0 0 8.554205-7.667959 22.657085-21.501111l41.037066-39.881093 50.747245 53.714245L309.935797 885.784114zM656.650842 901.158564l56.064724 61.420736-66.776747 61.420736L194.569622 1024.000036l138.17739-122.841472L656.650842 901.158564zM690.636469 552.671026c-16.954281 16.877216-30.363576 21.501111-65.659306 21.501111L360.95277 574.172137 305.042175 514.292699l43.695806-44.504987c5.625739-6.126661 12.869841-10.750555 20.268072-13.833152 7.398232-3.044064 13.409295-4.585362 21.077254-4.585362l24.583707 0 265.604224 0 55.872062 59.91797L690.636469 552.671026zM382.877738 122.841472 326.967143 62.923502 392.048462 0l313.191808 0c30.671835 0 45.198572 7.667959 62.26845 27.627771l20.576332 24.583707-78.259419 70.629993L382.877738 122.841472zM725.431277 142.762752l79.762185-70.629993 27.242447 30.710368c3.352324 3.082597 7.089972 10.750555 11.097348 21.501111 1.926623 4.623895 2.35048 9.24779 2.735804 13.833152 0.539454 6.126661-0.038532 16.877216-0.385325 30.710368l-21.578176 227.187364c-2.19635 27.666304-7.359699 38.416859-27.126849 58.338139l-42.578365 39.919625-55.756465-58.338139L725.431277 142.762752z" p-id="6040"></path></svg>