<?xml version="1.0" standalone="no"?><!DOCTYPE svg PUBLIC "-//W3C//DTD SVG 1.1//EN" "http://www.w3.org/Graphics/SVG/1.1/DTD/svg11.dtd"><svg t="1635132351847" class="icon" viewBox="0 0 1024 1024" version="1.1" xmlns="http://www.w3.org/2000/svg" p-id="13165" xmlns:xlink="http://www.w3.org/1999/xlink" width="16" height="16"><defs><style type="text/css"></style></defs><path d="M615.551137 885.096178l-97.207095 118.183362 23.841319-365.089383c0.562778-9.209093 1.125556-18.418186 2.865051-26.09243 1.790657-7.674244 3.632476-13.762478 6.702174-18.418187 0 0 6.29288-7.674244 16.627529-21.487884l30.134199-39.854909 37.245666 53.668549-20.208843 299.090882z m254.529103 15.39965l41.185111 61.393955-49.01284 61.393954h-331.37387l101.45351-122.736747 237.748089-0.051162z m24.966875-348.257207c-12.432276 16.883337-22.30647 21.487884-48.194255 21.487884h-193.851411l-41.031626-59.859106 32.078341-44.459455c4.144092-6.139395 9.464901-10.743942 14.888034-13.81364 5.423133-3.018536 9.823033-4.604547 15.450812-4.604546h213.037022l41.031626 59.859105-33.408543 41.389758zM669.0662 122.736747l-41.031626-59.859105L675.819535 0h229.92036c22.511117 0 33.203897 7.674244 45.738496 27.62728l15.092681 24.557581-57.454509 70.551886H669.0662z m251.510567 19.901874l58.580065-70.551886 20.004197 30.696977c2.455758 3.069698 5.218486 10.743942 8.134699 21.487884 1.432526 4.604547 1.739495 9.260255 1.995304 13.81364 0.409293 6.139395-0.051162 16.883337-0.30697 30.696977l-15.860105 227.004147c-1.637172 27.62728-5.423133 38.371222-19.901874 58.273095l-31.259755 39.906071-40.929303-58.273095 19.543742-293.05381zM117.646165 890.416987l-56.021983 64.463653-21.590207-35.301524c-6.29288-9.209093-10.488134-21.487884-11.357882-35.250363-0.409293-6.139395 0.255808-13.762478 0.869748-21.487884l14.529902-231.659855c2.046465-21.487884 6.59985-38.371222 16.01359-50.598851l38.882838-49.115163 38.678191 53.668548-20.004197 305.281439z m29.724907-452.524606l-47.42683 56.738246-22.511117-32.180664c-10.027679-13.762478-16.832176-32.231826-17.753085-45.994305-0.460455-7.674244 0.051162-16.883337 0.460455-27.627279l13.762478-208.637122c1.534849-29.162128 6.395204-41.389758 22.050662-62.877642l28.087734-39.906071 42.873445 65.94734-19.543742 294.537497z m214.009093 463.31971l45.585011 72.137897-23.227379 27.627279c-15.757782 19.953035-22.357632 23.022733-51.877892 23.022733H142.203747c-28.394704 0-40.059555-4.604547-51.468598-23.022733l-17.599601-26.092431 61.138147-73.621583h227.10647z m29.980714-449.506071l41.543243 62.928804-50.650013 59.807944H156.222033l-42.515313-59.859106 50.445366-62.928803 227.208793 0.051161zM183.798151 123.45301l-45.073395-64.463652 22.869248-32.231826c13.50667-19.953035 23.329703-26.092431 42.617637-26.092431h205.567425c18.21354 0 28.803997 6.139395 40.315363 26.092431l21.334399 30.748139-59.347489 65.947339H183.798151z m211.092881 470.891632l50.547689-61.342793 25.018036 35.250362c7.520759 10.743942 11.818336 24.50642 12.790408 39.90607 0.61394 9.157932 0.051162 18.418186-0.409293 29.162129l-14.836873 227.004147c-0.358131 12.278791-2.046465 21.487884-2.865051 26.09243-1.688334 9.209093-5.678941 16.883337-17.29263 30.696978l-28.394704 35.301523-43.999001-65.998501 19.441419-296.072345z m29.776068-452.524607l58.221933-65.94734 18.878641 29.162129c7.623083 12.278791 11.818336 24.557582 12.585761 36.785211 0.460455 7.674244-0.153485 15.348489-0.665101 24.557582l-13.864802 223.934449c-3.172021 38.371222-8.902123 55.254559-24.762228 73.672745l-27.32031 33.715514-42.515313-59.859106 19.441419-296.021184z" p-id="13166"></path></svg>