<?xml version="1.0" standalone="no"?><!DOCTYPE svg PUBLIC "-//W3C//DTD SVG 1.1//EN" "http://www.w3.org/Graphics/SVG/1.1/DTD/svg11.dtd"><svg t="1635132106631" class="icon" viewBox="0 0 1024 1024" version="1.1" xmlns="http://www.w3.org/2000/svg" p-id="7254" xmlns:xlink="http://www.w3.org/1999/xlink" width="16" height="16"><defs><style type="text/css"></style></defs><path d="M615.618438 885.722628l-97.270273 118.260174 23.856815-365.326668c0.563144-9.215078 1.126287-18.430157 2.866913-26.109389 1.791821-7.679232 3.634837-13.771423 6.706529-18.430157 0 0 6.29697-7.679232 16.638336-21.501849l30.153785-39.880812 37.269873 53.703429-20.221978 299.285272z m254.694531 15.409659l41.211879 61.433856-49.044696 61.433857h-331.589241l101.519448-122.816518 237.90261-0.051195z m24.983101-348.483552c-12.440356 16.894311-22.320968 21.50185-48.225577 21.50185h-193.977402l-41.058294-59.89801 32.09919-44.488351c4.146785-6.143386 9.471053-10.750925 14.89771-13.822618 5.426657-3.020498 9.829417-4.607539 15.460854-4.607539h213.175482l41.058294 59.89801-33.430257 41.416658zM669.168283 122.867713l-41.058294-59.89801L675.926007 0.051195h230.069793c22.525747 0 33.225477 7.679232 45.768224 27.645235l15.102489 24.573543-57.49185 70.59774H669.168283z m251.674033 19.914809l58.618138-70.59774 20.017198 30.716928c2.457354 3.071693 5.221878 10.750925 8.139986 21.50185 1.433457 4.607539 1.740626 9.266273 1.996601 13.822617 0.409559 6.143386-0.051195 16.894311-0.30717 30.716929l-15.870413 227.151685c-1.638236 27.645235-5.426657 38.39616-19.914808 58.310968l-31.280072 39.932007-40.955905-58.310969 19.556445-293.244275zM121.690231 438.176982l-50.836516 60.256375-22.474553-30.10259c-11.826017-15.051295-18.942106-31.638436-20.017198-46.689731-0.409559-5.989801 0.051195-16.535946 0.204779-31.638436l24.010399-326.725728L105.615038 0l42.696531 63.225677-26.621338 374.951305z m256.9983 13.515449l43.771623 61.741026-58.157384 58.720528H166.946505c-10.80212 0-17.969403 0-21.655434-1.535847-10.750925 0-24.471153-7.525647-30.972903-15.051295l-30.358564-40.648735 54.266573-63.276872 240.462354 0.051195z m72.69673 512L399.320068 1023.948805l-43.669233-60.256374 26.672533-373.466654 51.041296-57.235876 44.641935 57.235876-26.621338 373.466654z m36.450755-525.515449L435.822018 498.382162 393.227877 436.641136l25.59744-371.879612L471.760824 0l42.79892 64.761524-26.723728 373.415458z" p-id="7255"></path></svg>