<?xml version="1.0" standalone="no"?><!DOCTYPE svg PUBLIC "-//W3C//DTD SVG 1.1//EN" "http://www.w3.org/Graphics/SVG/1.1/DTD/svg11.dtd"><svg t="1635131660067" class="icon" viewBox="0 0 1024 1024" version="1.1" xmlns="http://www.w3.org/2000/svg" p-id="6921" xmlns:xlink="http://www.w3.org/1999/xlink" width="16" height="16"><defs><style type="text/css"></style></defs><path d="M303.95 890.37l-75.717 64.503-29.169-35.334c-8.477-9.21-14.18-21.502-15.374-35.296-0.54-6.165 0.346-13.795 1.194-21.501l19.652-231.812c2.735-21.5 8.9-38.416 21.655-50.631l52.52-49.13 52.288 53.715-27.05 305.485z m40.227-452.872l-64.118 56.796-30.44-32.213c-13.525-13.794-22.773-32.251-24.006-46.046-0.655-7.668 0.077-16.877 0.655-27.666l18.573-208.77c2.042-29.168 8.63-41.422 29.785-62.923l37.993-39.92 57.953 66.007-26.395 294.735z m289.263 463.66l61.614 72.172-31.366 27.628c-21.27 19.96-30.248 23.042-70.129 23.042H337.164c-38.378 0-54.138-4.624-69.55-23.042l-23.775-26.125 82.613-73.674H633.44z m40.46-449.827l56.18 62.962-68.434 59.84H356.122l-57.452-59.879 68.203-62.962h307.026zM393.421 122.84l-60.92-64.503 30.941-32.252C381.67 6.126 394.963 0 421.05 0h277.858c24.584 0 38.918 6.127 54.485 26.086l28.822 30.75-80.224 66.005H393.422z m285.294 471.252l68.318-61.382 33.793 35.296c10.134 10.75 15.952 24.545 17.301 39.92 0.81 9.17 0.077 18.418-0.54 29.169l-20.036 227.187c-0.463 12.292-2.736 21.501-3.892 26.086-2.273 9.21-7.707 16.916-23.39 30.71l-38.378 35.335-59.494-66.045 26.318-296.276z m40.228-452.872l78.683-66.006 25.547 29.17c10.288 12.291 15.953 24.583 17.032 36.836 0.655 7.668-0.193 15.336-0.925 24.584L820.515 389.91c-4.315 38.378-12.06 55.294-33.446 73.713l-36.952 33.754-57.452-59.88 26.279-296.276z" p-id="6922"></path></svg>