<?xml version="1.0" standalone="no"?><!DOCTYPE svg PUBLIC "-//W3C//DTD SVG 1.1//EN" "http://www.w3.org/Graphics/SVG/1.1/DTD/svg11.dtd"><svg t="1635132330120" class="icon" viewBox="0 0 1024 1024" version="1.1" xmlns="http://www.w3.org/2000/svg" p-id="12410" xmlns:xlink="http://www.w3.org/1999/xlink" width="16" height="16"><defs><style type="text/css"></style></defs><path d="M574.512074 121.645118l-49.098345-54.730064L583.727614 0.051197h387.411029L853.486926 121.645118h-278.974852z m264.076397 446.544073l59.18424-56.265987 46.589671 56.265987-30.872057 393.452327L857.377931 1024l-49.661517-62.256087 30.872057-393.554722z m32.510374-423.81241l115.040648-121.542723-32.510374 423.81241-55.856408 65.327933-49.917504-65.327933 23.243638-302.269687zM83.426229 121.59392l-49.149543-54.730063L92.692965 0h387.41103L362.40108 121.59392H83.426229z m264.076396 446.544073l59.184241-56.265987 46.58967 56.265987-30.872056 393.452327-56.112395 62.307285-49.661517-62.256087 30.872057-393.503525z m32.510374-423.812409L495.053647 22.782861l-32.510374 423.812409-55.856407 65.327934-49.917504-65.327934 23.243637-302.269686z" p-id="12411"></path></svg>