<?xml version="1.0" standalone="no"?><!DOCTYPE svg PUBLIC "-//W3C//DTD SVG 1.1//EN" "http://www.w3.org/Graphics/SVG/1.1/DTD/svg11.dtd"><svg t="1635132277327" class="icon" viewBox="0 0 1024 1024" version="1.1" xmlns="http://www.w3.org/2000/svg" p-id="10147" xmlns:xlink="http://www.w3.org/1999/xlink" width="16" height="16"><defs><style type="text/css"></style></defs><path d="M703.3344 121.344l-36.864-54.272L710.1952 0h140.2368l-85.0944 121.344h-62.0032z m24.5248 446.976l54.1184-56.32 47.2576 56.32-29.3888 395.264L744.448 1024l-46.0288-60.928 29.44-394.752z m31.0784-423.936l109.8752-119.808-31.0784 422.4-55.808 65.024-45.1584-65.536 22.1696-302.08zM124.3648 885.76l-59.7504 66.048-21.6064-30.72c-9.472-13.7728-13.824-24.5248-14.6944-36.8128-0.4096-6.144 0.0512-16.896 0.6144-26.112l18.2784-262.5024 56.1664-65.9968 41.5744 56.7808L124.3648 885.76z m32.0512-449.792L104.6016 494.2848l-45.3632-58.3168 17.8176-268.6464c2.7648-30.72 6.7584-43.008 23.7056-61.44l29.3376-32.256 46.9504 64.512-20.6336 297.8304z m224.1024 465.2032l49.92 72.192-20.2752 22.9888c-20.2752 23.04-30.8736 27.648-64.9216 27.648H160.6656c-40.0896 0-46.3872-3.072-63.8464-27.648l-17.3568-22.9888 63.0272-72.192h238.0288z m7.7312-449.8432c24.32 0 31.744 3.0208 47.9744 26.112l23.0912 35.328-55.2448 61.3376H164.7104l-45.568-61.3888 54.0672-61.44 215.04 0.0512zM194.2528 122.8288l-49.408-64.512 28.0064-33.7408C188.6208 6.144 200.2944 0 229.4272 0h231.9872l47.872 59.904L452.9152 122.88H194.2528z m226.6112 466.688l51.968-56.7808 28.0576 36.8128c9.3696 12.2368 12.3392 19.968 13.2608 33.7408 0.6656 9.216 0.7168 27.648-0.5632 44.4928L499.712 850.432c-3.5328 36.864-8.5504 52.224-25.3952 72.192l-28.0064 33.792-47.2064-67.584 21.76-299.3152z" p-id="10148"></path></svg>