<?xml version="1.0" standalone="no"?><!DOCTYPE svg PUBLIC "-//W3C//DTD SVG 1.1//EN" "http://www.w3.org/Graphics/SVG/1.1/DTD/svg11.dtd"><svg t="1635132306025" class="icon" viewBox="0 0 1024 1024" version="1.1" xmlns="http://www.w3.org/2000/svg" p-id="11361" xmlns:xlink="http://www.w3.org/1999/xlink" width="16" height="16"><defs><style type="text/css"></style></defs><path d="M124.3648 885.76l-59.7504 66.048-21.6064-30.72c-9.472-13.7728-13.824-24.5248-14.6944-36.8128-0.4096-6.144 0.0512-16.896 0.6144-26.112l18.2784-262.5024 56.1664-65.9968 41.5744 56.7808L124.3648 885.76z m32.0512-449.792L104.6016 494.2848l-45.3632-58.3168 17.8176-268.6464c2.7648-30.72 6.7584-43.008 23.7056-61.44l29.3376-32.256 46.9504 64.512-20.6336 297.8304z m224.1024 465.2032l49.92 72.192-20.2752 22.9888c-20.2752 23.04-30.8736 27.648-64.9216 27.648H160.6656c-40.0896 0-46.3872-3.072-63.8464-27.648l-17.3568-22.9888 63.0272-72.192h238.0288z m7.7312-449.8432c24.32 0 31.744 3.0208 47.9744 26.112l23.0912 35.328-55.2448 61.3376H164.7104l-45.568-61.3888 54.0672-61.44 215.04 0.0512zM194.2528 122.8288l-49.408-64.512 28.0064-33.7408C188.6208 6.144 200.2944 0 229.4272 0h231.9872l47.872 59.904L452.9152 122.88H194.2528z m226.6112 466.688l51.968-56.7808 28.0576 36.8128c9.3696 12.2368 12.3392 19.968 13.2608 33.7408 0.6656 9.216 0.7168 27.648-0.5632 44.4928L499.712 850.432c-3.5328 36.864-8.5504 52.224-25.3952 72.192l-28.0064 33.792-47.2064-67.584 21.76-299.3152zM616.2432 434.432l-50.7392 56.7808-29.184-35.328c-9.3696-12.2368-12.4416-21.4528-13.312-33.7408-0.7168-10.7008-0.768-29.184 0.4608-46.0288l13.8752-202.6496c3.5328-36.8128 8.5504-52.1728 25.3952-72.192l28.0064-33.7408 47.1552 67.5328-21.6576 299.3664z m226.6624 466.7392l48.2816 65.9968-26.9312 32.256c-15.616 19.968-27.4432 24.576-56.6272 24.576h-231.936l-47.872-59.904L584.192 901.12l258.7136 0.0512z m-193.8944-327.0144c-24.32 0-31.8976-4.608-48.0768-27.648l-23.0912-35.2768 55.3472-59.904h239.2576l45.4656 59.904-53.9648 62.9248h-214.9376z m7.6288-451.328l-49.8176-70.656 20.1728-24.576C647.2192 4.608 656.64 0 691.8144 0h184.6272c40.0384 0 46.3872 3.0208 63.8464 27.648l17.5104 24.576-63.1296 70.6048h-238.0288z m224.1536 466.688l54.016-61.44 43.1104 61.44-17.9712 267.1616c-2.6112 32.2048-6.7584 42.9568-23.6544 61.3888l-29.2352 33.792-47.0528-65.9968 20.7872-296.3456z m31.9488-451.328l59.8016-66.048 21.6576 32.256c9.3696 12.288 13.824 24.576 14.592 35.2768 0.5632 7.7312-0.1024 15.36-0.6144 26.112l-18.4832 259.3792-55.8592 70.6048-41.6768-58.3168 20.5824-299.264z" p-id="11362"></path></svg>