<?xml version="1.0" standalone="no"?><!DOCTYPE svg PUBLIC "-//W3C//DTD SVG 1.1//EN" "http://www.w3.org/Graphics/SVG/1.1/DTD/svg11.dtd"><svg t="1635132148453" class="icon" viewBox="0 0 1024 1024" version="1.1" xmlns="http://www.w3.org/2000/svg" p-id="8009" xmlns:xlink="http://www.w3.org/1999/xlink" width="16" height="16"><defs><style type="text/css"></style></defs><path d="M121.670716 438.19889l-50.839058 60.259387-22.475676-30.104095c-11.826609-15.052047-18.943053-31.640018-20.018199-46.692065-0.40958-5.9901 0.051197-16.536773 0.20479-31.640018l24.011599-326.742063L105.59472 0l42.698665 63.228839-26.622669 374.970051z m257.01115 13.516124l43.773811 61.744113-58.160292 58.723464H166.929254c-10.80266 0-17.970301 0-21.656518-1.535923-10.751462 0-24.472376-7.526024-30.974451-15.052048l-30.360082-40.650767 54.269287-63.280036 240.474376 0.051197z m72.700365 512.025599L399.314434 1024l-43.671416-60.259387 26.673866-373.485326 51.043848-57.238738 44.644168 57.238738-26.622669 373.485326z m36.452577-525.541723L435.818209 498.40708 393.221939 436.662967l25.59872-371.898205L471.758812 0l42.80106 64.764762-26.725064 373.434128zM574.512074 121.645118l-49.098345-54.730064L583.727614 0.051197h387.411029L853.486926 121.645118h-278.974852z m264.076397 446.544073l59.18424-56.265987 46.589671 56.265987-30.872057 393.452327L857.377931 1024l-49.661517-62.256087 30.872057-393.554722z m32.510374-423.81241l115.040648-121.542723-32.510374 423.81241-55.856408 65.327933-49.917504-65.327933 23.243638-302.269687z" p-id="8010"></path></svg>