<?xml version="1.0" standalone="no"?><!DOCTYPE svg PUBLIC "-//W3C//DTD SVG 1.1//EN" "http://www.w3.org/Graphics/SVG/1.1/DTD/svg11.dtd"><svg t="1635132377846" class="icon" viewBox="0 0 1024 1024" version="1.1" xmlns="http://www.w3.org/2000/svg" p-id="14224" xmlns:xlink="http://www.w3.org/1999/xlink" width="16" height="16"><defs><style type="text/css"></style></defs><path d="M117.646165 890.416987l-56.021983 64.463653-21.590207-35.301524c-6.29288-9.209093-10.488134-21.487884-11.357882-35.250363-0.409293-6.139395 0.255808-13.762478 0.869748-21.487884l14.529902-231.659855c2.046465-21.487884 6.59985-38.371222 16.01359-50.598851l38.882838-49.115163 38.678191 53.668548-20.004197 305.281439z m29.724907-452.524606l-47.42683 56.738246-22.511117-32.180664c-10.027679-13.762478-16.832176-32.231826-17.753085-45.994305-0.460455-7.674244 0.051162-16.883337 0.460455-27.627279l13.762478-208.637122c1.534849-29.162128 6.395204-41.389758 22.050662-62.877642l28.087734-39.906071 42.873445 65.94734-19.543742 294.537497z m214.009093 463.31971l45.585011 72.137897-23.227379 27.627279c-15.757782 19.953035-22.357632 23.022733-51.877892 23.022733H142.203747c-28.394704 0-40.059555-4.604547-51.468598-23.022733l-17.599601-26.092431 61.138147-73.621583h227.10647z m29.980714-449.506071l41.543243 62.928804-50.650013 59.807944H156.222033l-42.515313-59.859106 50.445366-62.928803 227.208793 0.051161zM183.798151 123.45301l-45.073395-64.463652 22.869248-32.231826c13.50667-19.953035 23.329703-26.092431 42.617637-26.092431h205.567425c18.21354 0 28.803997 6.139395 40.315363 26.092431l21.334399 30.748139-59.347489 65.947339H183.798151z m211.092881 470.891632l50.547689-61.342793 25.018036 35.250362c7.520759 10.743942 11.818336 24.50642 12.790408 39.90607 0.61394 9.157932 0.051162 18.418186-0.409293 29.162129l-14.836873 227.004147c-0.358131 12.278791-2.046465 21.487884-2.865051 26.09243-1.688334 9.209093-5.678941 16.883337-17.29263 30.696978l-28.394704 35.301523-43.999001-65.998501 19.441419-296.072345z m29.776068-452.524607l58.221933-65.94734 18.878641 29.162129c7.623083 12.278791 11.818336 24.557582 12.585761 36.785211 0.460455 7.674244-0.153485 15.348489-0.665101 24.557582l-13.864802 223.934449c-3.172021 38.371222-8.902123 55.254559-24.762228 73.672745l-27.32031 33.715514-42.515313-59.859106 19.441419-296.021184zM616.165076 434.10642l-50.701174 56.738247-29.162128-35.301524c-9.362578-12.227629-12.432276-21.436722-13.302024-33.715514-0.716263-10.69278-0.767424-29.162128 0.460455-45.994304l13.864801-202.497727c3.530152-36.785211 8.543992-52.1337 25.376168-72.137896l27.985411-33.715514 47.11986 67.482189-21.641369 299.142043z m226.492531 466.389408l48.245416 65.94734-26.911017 32.231826c-15.604297 19.953035-27.422633 24.557582-56.584761 24.557582h-231.762179l-47.836123-59.859106L584.137897 900.444667l258.51971 0.051161z m-193.749088-326.769323c-24.301774 0-31.873695-4.604547-48.04077-27.627279l-23.073894-35.250363 55.30572-59.859105h239.078292l45.431526 59.859105-53.924357 62.877642h-214.776517z m7.623082-450.989758l-49.780265-70.603047 20.157682-24.557582C647.117862 4.604547 656.531601 0 691.67964 0h184.488834c40.008394 0 46.352436 3.018536 63.798551 27.62728l17.497277 24.557581-63.082289 70.551886h-237.850412z m223.985611 466.338247l53.975518-61.393955 43.078092 61.393955-17.957732 266.961379c-2.609243 32.180665-6.753335 42.924607-23.636672 61.342793l-29.21329 33.766675-47.017537-65.94734 20.771621-296.123507z m31.924856-450.989758l59.756783-65.998501 21.641369 32.231826c9.362578 12.278791 13.81364 24.557582 14.581064 35.250362 0.562778 7.725406-0.102323 15.348489-0.61394 26.092431l-18.469347 259.184811-55.817337 70.551886-41.645566-58.273095 20.566974-299.03972z" p-id="14225"></path></svg>