<?xml version="1.0" standalone="no"?><!DOCTYPE svg PUBLIC "-//W3C//DTD SVG 1.1//EN" "http://www.w3.org/Graphics/SVG/1.1/DTD/svg11.dtd"><svg t="1635131921491" class="icon" viewBox="0 0 1024 1024" version="1.1" xmlns="http://www.w3.org/2000/svg" p-id="1944" xmlns:xlink="http://www.w3.org/1999/xlink" width="16" height="16"><defs><style type="text/css"></style></defs><path d="M427.4688 451.7376l55.0912 61.7472-73.1648 58.7264H160.9216c-13.568 0-22.5792 0-27.2384-1.536-13.5168 0-30.7712-7.5264-38.9632-15.0528l-38.1952-40.6528 68.2496-63.2832 302.6944 0.0512z m91.4432 512L453.4272 1024l-54.9376-60.2624 33.5872-373.504 64.256-57.2416 56.2176 57.2416-33.6384 373.504z m45.8752-525.568L499.3024 498.432 445.696 436.6848l32.2048-371.9168L544.5632 0l53.8624 64.768-33.6384 373.4016z m0.3072 136.2432L508.9792 513.536l72.2432-59.904 248.4224-3.9936c13.568-0.2048 22.5792-0.3584 27.2896 1.0752 13.5168-0.2048 30.8736 7.0144 39.2192 14.4384l38.8096 40.0384-67.2256 64.3584-302.6432 4.864z" p-id="1945"></path></svg>