<?xml version="1.0" standalone="no"?><!DOCTYPE svg PUBLIC "-//W3C//DTD SVG 1.1//EN" "http://www.w3.org/Graphics/SVG/1.1/DTD/svg11.dtd"><svg t="1635132272446" class="icon" viewBox="0 0 1024 1024" version="1.1" xmlns="http://www.w3.org/2000/svg" p-id="9994" xmlns:xlink="http://www.w3.org/1999/xlink" width="16" height="16"><defs><style type="text/css"></style></defs><path d="M613.449865 887.558615l-57.825401 68.910306-17.419136-24.519604c-8.786192-13.792278-14.200938-27.584556-15.120423-41.376834-0.306495-4.597426 0.40866-10.727327 0.153247-15.27367l20.177592-300.262995 48.170807-59.766537 42.347401 59.766537-20.484087 312.522797z m28.452959-434.967574l-50.265191 62.831487-40.3041-62.831487 16.755063-266.497456c2.196548-18.389704 2.656291-29.117031 3.371446-35.246932 1.379228-13.741195 6.334231-24.519605 15.835578-35.19585l30.445176-36.728325 43.930959 67.377831-19.768931 306.290732z m208.978549 448.810934l48.885962 73.507733-25.183677 30.700588c-10.420832 13.741195-22.57847 18.389704-44.084207 18.389704h-199.22179c-21.505737 0-34.327447-6.129901-43.062556-18.389704l-20.126509-30.700588 60.890352-73.507733h221.902425zM678.426818 124.845655l-47.251322-65.845356 21.812232-30.700588c13.536865-18.389704 26.613988-26.05208 43.573381-26.052081h207.139579c15.835578 0 31.262496 10.727327 41.325751 26.052081l17.725631 29.11703-59.051382 67.377831h-225.27387z m211.379428 450.241245l50.316272-61.24793 40.201936 61.24793-16.806146 265.016063c-0.970568 19.922179-2.45196 32.181981-2.145466 36.779408-1.379228 13.741195-6.436396 22.936047-16.959393 35.195849l-32.794971 35.19585-41.325751-61.24793 19.513519-310.93924z m28.861618-428.837673l58.898134-68.910307 13.84336 21.454655c10.063255 15.324753 15.478001 29.117031 16.448569 44.390701 0.40866 6.129901 0.81732 12.259802 0.051082 18.389704l-18.542951 291.017061-51.49117 61.299012-39.078121-61.299012 19.871097-306.341814zM125.254315 883.727427l-59.613289 65.896438-21.55682-30.649506c-9.450264-13.741195-13.792278-24.468522-14.66068-36.728325-0.40866-6.129901 0.051083-16.857228 0.61299-26.05208l18.236456-261.90003 56.037514-65.845356 41.478998 56.650504L125.254315 883.727427z m31.977651-448.759852L105.536466 493.150554l-45.259104-58.182979 17.776714-268.029932c2.758456-30.649506 6.742891-42.909309 23.651202-61.299012l29.270278-32.181981 46.842662 64.363963-20.586252 297.146962z m223.588148 464.135687l49.805447 72.02634-20.228674 22.936047c-20.228674 22.98713-30.802754 27.584556-64.772623 27.584556H161.471815c-39.997606 0-46.280754-3.064951-63.69989-27.584556l-17.316971-22.936047 62.88257-72.02634h237.48259z m7.713459-448.810934c24.264192 0 31.671156 3.013868 47.864312 26.05208l23.038212 35.246932-55.118029 61.196847H165.507333l-45.463434-61.24793 53.943131-61.299012 214.546543 0.051083zM194.981942 122.546942l-49.294623-64.363963 27.942133-33.663374C189.362865 6.129901 201.009678 0 230.075626 0h231.454854l47.762147 59.766537L453.050783 122.598025H194.981942z m226.09119 465.617081l51.848748-56.650504 27.993215 36.728325c9.348099 12.20872 12.310885 19.922179 13.23037 33.663374 0.664073 9.194852 0.715155 27.584556-0.561907 44.390701L499.740198 848.480495c-3.524693 36.779407-8.530779 52.10416-25.336926 72.026339l-27.942133 33.714457-47.098074-67.428913 21.710067-298.628355z" p-id="9995"></path></svg>