<?xml version="1.0" standalone="no"?><!DOCTYPE svg PUBLIC "-//W3C//DTD SVG 1.1//EN" "http://www.w3.org/Graphics/SVG/1.1/DTD/svg11.dtd"><svg t="1635132269171" class="icon" viewBox="0 0 1024 1024" version="1.1" xmlns="http://www.w3.org/2000/svg" p-id="9841" xmlns:xlink="http://www.w3.org/1999/xlink" width="16" height="16"><defs><style type="text/css"></style></defs><path d="M116.2752 435.968L60.7232 494.2848l-24.5248-32.2048c-12.8512-15.36-19.2-30.72-20.48-47.5648-0.4608-6.144-1.024-13.824-0.4096-23.0912L43.6224 18.432l94.8224 119.7056-22.1696 297.8304z m240.2304 465.2032l54.7328 70.6048-26.5216 29.184c-15.5648 18.432-29.5424 23.04-59.4944 23.04H72.6528l-48.6912-59.904L81.7664 901.12l274.7392 0.0512zM159.4368 122.8288L63.0784 0h381.4912l48.9984 64.512-58.112 58.3168H159.4368z m202.8032 328.4992c31.232 0 35.3792 3.0208 58.368 32.3072l22.9888 29.184-61.8496 61.3376h-210.944c-40.3456 0-49.8176-4.608-71.3216-30.72l-22.9888-29.184 60.416-62.976 225.3312 0.0512z m37.5808 138.1888l58.0608-59.904 25.7024 30.72c10.0352 12.2368 16.5888 30.72 17.6128 44.4928 0.5632 7.68 0.1536 19.968-0.1024 33.792l-15.872 207.2064c-2.5088 36.8128-9.984 58.368-22.0672 70.6048l-36.1984 38.4-49.0496-64.512 21.9136-300.8zM616.2432 434.432l-50.7392 56.7808-29.184-35.328c-9.3696-12.2368-12.4416-21.4528-13.312-33.7408-0.7168-10.7008-0.768-29.184 0.4608-46.0288l13.8752-202.6496c3.5328-36.8128 8.5504-52.1728 25.3952-72.192l28.0064-33.7408 47.1552 67.5328-21.6576 299.3664z m226.6624 466.7392l48.2816 65.9968-26.9312 32.256c-15.616 19.968-27.4432 24.576-56.6272 24.576h-231.936l-47.872-59.904L584.192 901.12l258.7136 0.0512z m-193.8944-327.0144c-24.32 0-31.8976-4.608-48.0768-27.648l-23.0912-35.2768 55.3472-59.904h239.2576l45.4656 59.904-53.9648 62.9248h-214.9376z m7.6288-451.328l-49.8176-70.656 20.1728-24.576C647.2192 4.608 656.64 0 691.8144 0h184.6272c40.0384 0 46.3872 3.0208 63.8464 27.648l17.5104 24.576-63.1296 70.6048h-238.0288z m224.1536 466.688l54.016-61.44 43.1104 61.44-17.9712 267.1616c-2.6112 32.2048-6.7584 42.9568-23.6544 61.3888l-29.2352 33.792-47.0528-65.9968 20.7872-296.3456z m31.9488-451.328l59.8016-66.048 21.6576 32.256c9.3696 12.288 13.824 24.576 14.592 35.2768 0.5632 7.7312-0.1024 15.36-0.6144 26.112l-18.4832 259.3792-55.8592 70.6048-41.6768-58.3168 20.5824-299.264z" p-id="9842"></path></svg>