<?xml version="1.0" standalone="no"?><!DOCTYPE svg PUBLIC "-//W3C//DTD SVG 1.1//EN" "http://www.w3.org/Graphics/SVG/1.1/DTD/svg11.dtd"><svg t="1635132299906" class="icon" viewBox="0 0 1024 1024" version="1.1" xmlns="http://www.w3.org/2000/svg" p-id="11055" xmlns:xlink="http://www.w3.org/1999/xlink" width="16" height="16"><defs><style type="text/css"></style></defs><path d="M124.40356 885.722628l-59.744426 66.041396-21.604239-30.716929c-9.471053-13.771423-13.822618-24.522348-14.692931-36.809119-0.409559-6.143386 0.051195-16.894311 0.614338-26.109389l18.276573-262.476152 56.160784-65.990201 41.570243 56.775122L124.40356 885.722628z m32.047995-449.747026L104.642336 494.286571l-45.358664-58.310969 17.815818-268.619538c2.764524-30.716928 6.757724-43.0037 23.70323-61.433856l29.334666-32.252775 46.945706 64.50555-20.631537 297.800619z m224.079992 465.156685l49.915008 72.184781-20.273172 22.986502c-20.273173 23.037696-30.870513 27.645235-64.915109 27.645235H160.70073c-40.085591 0-46.382562-3.071693-63.840016-27.645235l-17.355065-22.986502 63.020898-72.184781h238.005z m7.730427-449.79822c24.317568 0 31.740826 3.020498 47.969603 26.109389l23.088891 35.324467-55.239276 61.331467H164.745125l-45.563443-61.382662 54.061794-61.433856 215.018498 0.051195zM194.284572 122.867713l-49.40306-64.505549 28.003599-33.737426C188.653135 6.194581 200.325567 0.051195 229.455454 0.051195h231.964004l47.867213 59.89801L452.921108 122.918908H194.284572z m226.588541 466.641336l51.962803-56.775122 28.054795 36.809119c9.368663 12.235576 12.337966 19.966003 13.259474 33.737426 0.665533 9.215078 0.716728 27.645235-0.563144 44.488351L499.713229 850.39816c-3.532447 36.860314-8.549545 52.218778-25.392661 72.184782l-28.0036 33.788621-47.20168-67.577242 21.757825-299.285272zM601.181482 890.330167l-56.058394 64.505549-21.60424-35.324467c-6.29697-9.215078-10.494951-21.50185-11.365263-35.273273-0.409559-6.143386 0.255974-13.771423 0.870313-21.50185l14.539346-231.810419c2.047795-21.50185 6.60414-38.39616 16.023997-50.631736l38.908109-49.147086 38.70333 53.70343-20.017198 305.479852z m29.744225-452.818718l-47.457654 56.775122-22.525747-32.201579c-10.034197-13.771423-16.843116-32.252775-17.764624-46.024198-0.460754-7.679232 0.051195-16.894311 0.460754-27.645236l13.771423-208.772722c1.535846-29.181082 6.39936-41.416658 22.064994-62.918508l28.105989-39.932007 42.90131 65.990201-19.556445 294.728927z m214.148186 463.620838l45.614638 72.184781-23.242476 27.645236c-15.768023 19.966003-22.372163 23.037696-51.911608 23.037696h-189.830617c-28.413159 0-40.085591-4.607539-51.50205-23.037696l-17.611039-26.109389 61.177882-73.669433 227.30527-0.051195z m30.0002-449.79822l41.570243 62.969703-50.682932 59.846815h-226.178982l-42.542946-59.89801 50.478152-62.969703 227.356465 0.051195z m-207.697631-328.466354l-45.102689-64.505549 22.884111-32.252775c13.515448-19.966003 23.344866-26.109389 42.645336-26.109389h205.70103c18.225377 0 28.822718 6.143386 40.341565 26.109389l21.348266 30.768123-59.386062 65.990201h-228.431557z m211.230077 471.19768l50.580542-61.382661 25.034297 35.273272c7.525647 10.750925 11.826017 24.522348 12.79872 39.932007 0.614339 9.163884 0.051195 18.430157-0.409559 29.181082l-14.846515 227.151685c-0.358364 12.286771-2.047795 21.50185-2.866914 26.109389-1.689431 9.215078-5.682632 16.894311-17.303869 30.716928l-28.413159 35.324468-44.027597-66.041396 19.454054-296.264774z m29.795421-452.818718l58.259774-65.990201 18.890911 29.181082c7.628037 12.286771 11.826017 24.573543 12.59394 36.809119 0.460754 7.679232-0.153585 15.358464-0.665533 24.573543l-13.873813 224.079992c-3.174083 38.39616-8.907909 55.290471-24.778322 73.720628l-27.338066 33.737426-42.542946-59.89801 19.454055-296.213579z" p-id="11056"></path></svg>