<?xml version="1.0" standalone="no"?><!DOCTYPE svg PUBLIC "-//W3C//DTD SVG 1.1//EN" "http://www.w3.org/Graphics/SVG/1.1/DTD/svg11.dtd"><svg t="1635132074527" class="icon" viewBox="0 0 1024 1024" version="1.1" xmlns="http://www.w3.org/2000/svg" p-id="6044" xmlns:xlink="http://www.w3.org/1999/xlink" width="16" height="16"><defs><style type="text/css"></style></defs><path d="M344.744279 901.25712l50.652543 70.555411-26.247227 30.698511c-13.712002 15.298091-29.317078 21.488958-57.7132 21.488958H70.862396L25.940242 964.137903l62.164485-62.931947h256.639552z m31.312481-449.52853l47.4292 59.862097-56.024783 62.829619H112.049565l-48.861796-62.880784 57.457379-59.862096 255.411612 0.051164zM143.208554 123.459179l-46.150095-59.862097L151.855301 0.716299h243.081044c11.102628 0 18.623763 1.483761 21.079644 1.483761 8.749076 1.534926 21.847107 12.279404 32.796242 27.679824l16.526032 24.507645-65.490157 69.07165H143.208554z m239.090237 469.380233l55.922454-64.415709 21.693615 27.62866c12.279404 16.884181 16.833017 29.163585 18.060957 46.047767 0.562806 7.674628 1.074448 15.298091 0.358149 22.972719l-17.702808 239.346058c-1.739582 27.62866-7.060658 39.908064-24.200659 59.862096l-28.651944 30.698511-46.559408-66.001798 21.079644-296.138304z m32.284601-452.547217l64.31338-67.48556 16.321375 21.488958c9.618867 13.81433 15.502748 27.62866 16.577196 42.977916 0.409313 6.139702-0.051164 16.884181-1.22794 35.252123l-16.372539 222.461877c-1.637254 29.163585-5.832717 39.908064-19.442391 56.741081l-36.4289 42.926751-46.09893-58.276007 22.358749-296.087139zM607.984011 437.863096l-50.806036 60.220246-22.461077-30.084541c-11.818927-15.04227-18.930748-31.619466-20.005196-46.661737-0.409313-5.98621 0.051164-16.526032 0.204657-31.619466l23.996002-326.529829L591.918457 0l42.67093 63.187769-26.605376 374.675327z m256.844209 13.558509l43.745378 61.704007-58.122514 58.68532H653.213151c-10.795643 0-17.958629 0-21.64245-1.534925-10.744479 0-24.45648-7.521135-30.954332-15.042271l-30.340362-40.624363 54.234036-63.238932 240.318177 0.051164z m72.653143 511.641851L885.447387 1023.283701l-43.64305-60.220245 26.65654-373.242731 51.010693-57.201558 44.615169 57.201558-26.605376 373.242731z m36.4289-525.20036l-52.033976 60.220246-42.568602-61.704008 25.582092-371.65664L957.844709 0l42.773258 64.722694-26.707704 373.140402z" p-id="6045"></path></svg>