<?xml version="1.0" standalone="no"?><!DOCTYPE svg PUBLIC "-//W3C//DTD SVG 1.1//EN" "http://www.w3.org/Graphics/SVG/1.1/DTD/svg11.dtd"><svg t="1635132405435" class="icon" viewBox="0 0 1024 1024" version="1.1" xmlns="http://www.w3.org/2000/svg" p-id="15440" xmlns:xlink="http://www.w3.org/1999/xlink" width="16" height="16"><defs><style type="text/css"></style></defs><path d="M574.47147 121.51494l-49.066454-54.694514L583.681023 0h387.159389L853.265114 121.51494h-278.793644z m263.904867 446.254022l59.145798-56.22944 46.559408 56.22944-30.852004 393.196762L857.153592 1023.283701l-49.629259-62.215649 30.852004-393.29909z m32.489257-423.537124l114.965924-121.463776-32.489258 423.537124-55.820125 65.285501-49.885081-65.285501 23.22854-302.073348zM114.965924 434.844409l-50.703708 56.741081-29.163585-35.303288c-9.363046-12.22824-12.432897-21.437794-13.302688-33.717198-0.716299-10.693315-0.767463-29.163585 0.460478-45.996602L36.173079 174.060558c3.530329-36.787049 8.544419-52.136305 25.377436-72.141501l27.986809-33.717198 47.122214 67.48556-21.693614 299.15699z m226.452683 466.412711l48.247826 65.950635-26.912361 32.233436c-15.605076 19.954032-27.424003 24.558809-56.587589 24.558809h-231.773758l-47.838513-59.862097 56.331768-62.931947 258.532627 0.051164z m-193.758769-326.836814c-24.302988 0-31.875287-4.604777-48.04317-27.62866l-23.075047-35.252124 55.308484-59.862096h239.090237l45.433796 59.862096-53.927051 62.880784H147.659838z m7.623464-450.961127l-49.782752-70.606576 20.158689-24.558809C145.869092 5.321075 155.283302 0.716299 190.484261 0.716299h184.498051c40.010393 0 46.354752 3.018687 63.801739 27.62866l17.498151 24.558808-63.136604 70.555412H155.283302z m224.047966 466.361546l53.978215-61.397022 43.080244 61.397022-17.958629 266.974718c-2.609373 32.182272-6.753672 42.926751-23.637853 61.345858l-29.21475 33.768362-47.019886-65.950634 20.772659-296.138304z m31.875287-451.012291l59.759769-66.001799 21.64245 32.233437c9.363046 12.279404 13.81433 24.558809 14.581793 35.252123 0.562806 7.725792-0.102328 15.349256-0.613971 26.093735l-18.47027 259.197761-55.820126 70.606576-41.647647-58.276007 20.568002-299.105826z" p-id="15441"></path></svg>