<?xml version="1.0" standalone="no"?><!DOCTYPE svg PUBLIC "-//W3C//DTD SVG 1.1//EN" "http://www.w3.org/Graphics/SVG/1.1/DTD/svg11.dtd"><svg t="1635132281066" class="icon" viewBox="0 0 1024 1024" version="1.1" xmlns="http://www.w3.org/2000/svg" p-id="10298" xmlns:xlink="http://www.w3.org/1999/xlink" width="16" height="16"><defs><style type="text/css"></style></defs><path d="M615.623619 885.715714l-97.275136 118.266087 23.858007-365.344933c0.563172-9.215539 1.126344-18.431078 2.867056-26.110694 1.79191-7.679616 3.635018-13.772111 6.706865-18.431079 0 0 6.297285-7.679616 16.639168-21.502925l30.155292-39.882805 37.271737 53.706114-20.222989 299.300235z m254.707264 15.41043l41.21394 61.436928-49.047148 61.436928h-331.60582l101.524524-122.822659 237.914504-0.051197z m24.984351-348.500975c-12.440978 16.895155-22.322084 21.502925-48.227988 21.502925h-193.987101l-41.060347-59.901005 32.100795-44.490576c4.146993-6.143693 9.471526-10.751462 14.898455-13.823309 5.426929-3.020649 9.829909-4.60777 15.461627-4.607769h213.186141l41.060347 59.901005-33.431929 41.418729zM669.176141 122.822659l-41.060347-59.901005L675.934203 0h230.081296c22.526874 0 33.227139 7.679616 45.770512 27.646618l15.103245 24.574771-57.494726 70.60127H669.176141z m251.686616 19.915804l58.621069-70.60127 20.018199 30.718464c2.457477 3.071846 5.222139 10.751462 8.140393 21.502925 1.433528 4.60777 1.740713 9.266737 1.9967 13.823309 0.40958 6.143693-0.051197 16.895155-0.307185 30.718464l-15.871206 227.163042c-1.638318 27.646618-5.426929 38.39808-19.915804 58.313884l-31.281636 39.934003-40.957952-58.313884 19.557422-293.258937zM124.384181 885.715714l-59.747413 66.044698-21.60532-30.718464c-9.471526-13.772111-13.823309-24.523574-14.693665-36.81096-0.40958-6.143693 0.051197-16.895155 0.614369-26.110694l18.277487-262.489276 56.163591-65.9935 41.572322 56.777961L124.384181 885.715714z m32.049597-449.769511L104.621969 494.260087l-45.360932-58.313884 17.816709-268.632969c2.764662-30.718464 6.758062-43.00585 23.704415-61.436928l29.336133-32.254387 46.948053 64.508774-20.632569 297.81551z m224.091196 465.179941l49.917504 72.18839-20.274186 22.987651c-20.274186 23.038848-30.872056 27.646618-64.918354 27.646618H160.683166c-40.087596 0-46.384881-3.071846-63.843208-27.646618l-17.355932-22.987651 63.024049-72.18839h238.016899z m7.730813-449.820709c24.318784 0 31.742413 3.020649 47.972002 26.110694l23.090045 35.326234-55.242038 61.334533H164.727764l-45.565722-61.385731 54.064497-61.436928 215.029248 0.051198zM194.268687 122.822659l-49.40553-64.508775 28.005-33.739113C188.636968 6.143693 200.309985 0 229.441328 0h231.975601l47.869607 59.901005L452.918154 122.873856H194.268687z m226.59987 466.664667l51.965401-56.777961 28.056197 36.810959c9.369132 12.236188 12.338583 19.967002 13.260137 33.739113 0.665567 9.215539 0.716764 27.646618-0.563171 44.490575L499.712614 850.389481c-3.532623 36.862157-8.549973 52.221389-25.39393 72.18839l-28.005 33.790311-47.204039-67.580621 21.758912-299.300235z" p-id="10299"></path></svg>