<?xml version="1.0" standalone="no"?><!DOCTYPE svg PUBLIC "-//W3C//DTD SVG 1.1//EN" "http://www.w3.org/Graphics/SVG/1.1/DTD/svg11.dtd"><svg t="1635132314072" class="icon" viewBox="0 0 1024 1024" version="1.1" xmlns="http://www.w3.org/2000/svg" p-id="11663" xmlns:xlink="http://www.w3.org/1999/xlink" width="16" height="16"><defs><style type="text/css"></style></defs><path d="M703.324834 121.389131l-36.862157-54.269287L710.185291 0.051197h140.229788l-85.090145 121.337934h-62.0001z m24.523574 446.953652l54.115694-56.317184 47.255237 56.317184-29.387331 395.244238L744.436378 1024l-46.026498-60.924954 29.438528-394.732263z m31.076846-423.914804l109.869706-119.80201-31.076846 422.378881-55.80521 65.020749-45.156142-65.532724 22.168492-302.064896zM83.426229 121.59392l-49.149543-54.730063L92.692965 0h387.41103L362.40108 121.59392H83.426229z m264.076396 446.544073l59.184241-56.265987 46.58967 56.265987-30.872056 393.452327-56.112395 62.307285-49.661517-62.256087 30.872057-393.503525z m32.510374-423.812409L495.053647 22.782861l-32.510374 423.812409-55.856407 65.327934-49.917504-65.327934 23.243637-302.269686z" p-id="11664"></path></svg>