<?xml version="1.0" standalone="no"?><!DOCTYPE svg PUBLIC "-//W3C//DTD SVG 1.1//EN" "http://www.w3.org/Graphics/SVG/1.1/DTD/svg11.dtd"><svg t="1635132323551" class="icon" viewBox="0 0 1024 1024" version="1.1" xmlns="http://www.w3.org/2000/svg" p-id="12110" xmlns:xlink="http://www.w3.org/1999/xlink" width="16" height="16"><defs><style type="text/css"></style></defs><path d="M831.011249 901.177341l50.685466 70.60127-26.264287 30.718464c-13.720914 15.308035-29.336133 21.502925-57.750712 21.502925h-240.730364L512 964.098995l62.20489-62.972851h256.806359z m31.332834-449.820709l47.460027 59.901005-56.061197 62.870457h-255.526424l-48.893555-62.921654 57.494725-59.901005 255.526424 0.051197z m-232.99955-328.482776l-46.180091-59.901005L637.9969 0.051197h243.239038c11.109845 0 18.635868 1.484726 21.093346 1.484726 8.754762 1.535923 21.861307 12.287386 32.817559 27.697815l16.536773 24.523574-65.481526 69.065347h-256.857557z m239.245637 469.685316l55.958803-64.457577 21.707714 27.646618c12.287386 16.895155 16.843958 29.182541 18.072697 46.077696 0.563172 7.679616 1.075146 15.308035 0.358382 22.98765l-17.714315 239.501625c-1.79191 27.646618-7.065247 39.934003-24.216389 59.901005l-28.670566 30.718464-46.589671-66.044697 21.093345-296.330784z m32.305585-452.841358l64.355182-67.529423 16.331984 21.502924c9.625119 13.823309 15.512824 27.646618 16.58797 43.00585 0.40958 6.143693-0.051197 16.895155-1.228738 35.275036l-16.434378 222.60647c-1.638318 29.182541-5.836508 39.934003-19.455028 56.777961l-36.452577 42.954652-46.128894-58.313884 22.424479-296.279586zM83.426229 121.59392l-49.149543-54.730063L92.692965 0h387.41103L362.40108 121.59392H83.426229z m264.076396 446.544073l59.184241-56.265987 46.58967 56.265987-30.872056 393.452327-56.112395 62.307285-49.661517-62.256087 30.872057-393.503525z m32.510374-423.812409L495.053647 22.782861l-32.510374 423.812409-55.856407 65.327934-49.917504-65.327934 23.243637-302.269686z" p-id="12111"></path></svg>