<?xml version="1.0" standalone="no"?><!DOCTYPE svg PUBLIC "-//W3C//DTD SVG 1.1//EN" "http://www.w3.org/Graphics/SVG/1.1/DTD/svg11.dtd"><svg t="1635131955464" class="icon" viewBox="0 0 1024 1024" version="1.1" xmlns="http://www.w3.org/2000/svg" p-id="2242" xmlns:xlink="http://www.w3.org/1999/xlink" width="16" height="16"><defs><style type="text/css"></style></defs><path d="M218.0608 121.344l-36.864-54.272L224.9216 0h140.2368L280.064 121.344H218.0608z m24.5248 446.976l54.1184-56.32 47.2576 56.32-29.3888 395.264L259.2256 1024l-46.0288-60.928 29.3888-394.752z m31.1296-423.936L383.5904 24.576l-31.0784 422.4-55.808 65.024-45.1584-65.536 22.1696-302.08zM703.3344 121.344l-36.864-54.272L710.1952 0h140.2368l-85.0944 121.344h-62.0032z m24.5248 446.976l54.1184-56.32 47.2576 56.32-29.3888 395.264L744.448 1024l-46.0288-60.928 29.44-394.752z m31.0784-423.936l109.8752-119.808-31.0784 422.4-55.808 65.024-45.1584-65.536 22.1696-302.08z" p-id="2243"></path></svg>