<?xml version="1.0" standalone="no"?><!DOCTYPE svg PUBLIC "-//W3C//DTD SVG 1.1//EN" "http://www.w3.org/Graphics/SVG/1.1/DTD/svg11.dtd"><svg t="1635131966976" class="icon" viewBox="0 0 1024 1024" version="1.1" xmlns="http://www.w3.org/2000/svg" p-id="2542" xmlns:xlink="http://www.w3.org/1999/xlink" width="16" height="16"><defs><style type="text/css"></style></defs><path d="M218.0608 121.344l-36.864-54.272L224.9216 0h140.2368L280.064 121.344H218.0608z m24.5248 446.976l54.1184-56.32 47.2576 56.32-29.3888 395.264L259.2256 1024l-46.0288-60.928 29.3888-394.752z m31.1296-423.936L383.5904 24.576l-31.0784 422.4-55.808 65.024-45.1584-65.536 22.1696-302.08zM831.0272 901.1712l50.688 70.6048-26.2656 30.72c-13.7216 15.3088-29.3376 21.504-57.7536 21.504h-240.7424L512 964.096l62.208-62.976h256.8192z m31.3344-449.8432l47.4624 59.904-56.064 62.8736h-255.5392l-48.896-62.9248 57.4976-59.904 255.5392 0.0512z m-233.0112-328.4992l-46.1824-59.904L638.0032 0h243.2512c11.1104 0 18.6368 1.4848 21.0944 1.4848 8.7552 1.536 21.8624 12.288 32.8192 27.6992l16.5376 24.5248-65.4848 69.0688h-256.8704z m239.2576 469.7088l55.9616-64.4608 21.7088 27.648c12.288 16.896 16.8448 29.184 18.0736 46.08 0.5632 7.68 1.0752 15.3088 0.3584 22.9888l-17.7152 239.5136c-1.792 27.648-7.0656 39.936-24.2176 59.904l-28.672 30.72-46.592-66.048 21.0944-296.3456z m32.3072-452.864l64.3584-67.5328 16.3328 21.504c9.6256 13.824 15.5136 27.648 16.5888 43.008 0.4096 6.144-0.0512 16.896-1.2288 35.2768l-16.4352 222.6176c-1.6384 29.184-5.8368 39.936-19.456 56.7808l-36.4544 42.9568-46.1312-58.3168 22.4256-296.2944z" p-id="2543"></path></svg>