<?xml version="1.0" standalone="no"?><!DOCTYPE svg PUBLIC "-//W3C//DTD SVG 1.1//EN" "http://www.w3.org/Graphics/SVG/1.1/DTD/svg11.dtd"><svg t="1635132092933" class="icon" viewBox="0 0 1024 1024" version="1.1" xmlns="http://www.w3.org/2000/svg" p-id="6803" xmlns:xlink="http://www.w3.org/1999/xlink" width="16" height="16"><defs><style type="text/css"></style></defs><path d="M344.744279 901.25712l50.652543 70.555411-26.247227 30.698511c-13.712002 15.298091-29.317078 21.488958-57.7132 21.488958H70.862396L25.940242 964.137903l62.164485-62.931947h256.639552z m31.312481-449.52853l47.4292 59.862097-56.024783 62.829619H112.049565l-48.861796-62.880784 57.457379-59.862096 255.411612 0.051164zM143.208554 123.459179l-46.150095-59.862097L151.855301 0.716299h243.081044c11.102628 0 18.623763 1.483761 21.079644 1.483761 8.749076 1.534926 21.847107 12.279404 32.796242 27.679824l16.526032 24.507645-65.490157 69.07165H143.208554z m239.090237 469.380233l55.922454-64.415709 21.693615 27.62866c12.279404 16.884181 16.833017 29.163585 18.060957 46.047767 0.562806 7.674628 1.074448 15.298091 0.358149 22.972719l-17.702808 239.346058c-1.739582 27.62866-7.060658 39.908064-24.200659 59.862096l-28.651944 30.698511-46.559408-66.001798 21.079644-296.138304z m32.284601-452.547217l64.31338-67.48556 16.321375 21.488958c9.618867 13.81433 15.502748 27.62866 16.577196 42.977916 0.409313 6.139702-0.051164 16.884181-1.22794 35.252123l-16.372539 222.461877c-1.637254 29.163585-5.832717 39.908064-19.442391 56.741081l-36.4289 42.926751-46.09893-58.276007 22.358749-296.087139zM616.170281 434.12811l-50.703708 56.741082-29.163585-35.303288c-9.363046-12.22824-12.432897-21.437794-13.302688-33.717198-0.716299-10.693315-0.767463-29.163585 0.460477-45.996602l13.865495-202.507845c3.530329-36.787049 8.544419-52.136305 25.377435-72.141501l27.98681-33.717198 47.122214 67.48556-21.64245 299.15699z m226.503847 466.412711l48.247827 65.950635-26.912362 32.233437c-15.605076 19.954032-27.424003 24.558809-56.587588 24.558808h-231.773759l-47.838513-59.862096L584.141501 900.489657l258.532627 0.051164z m-193.758769-326.78565c-24.302988 0-31.875287-4.604777-48.04317-27.62866l-23.075047-35.252123 55.308484-59.862097h239.090237l45.433796 59.862097-53.927051 62.880783h-214.787249z m7.623464-451.012291l-49.782752-70.606575 20.158689-24.558809C647.124613 4.604777 656.538823 0 691.688618 0h184.498051c40.010393 0 46.354752 3.018687 63.801739 27.62866l17.498151 24.558809-63.08544 70.555411h-237.862296z m223.996802 466.361547l53.978215-61.397022 43.080244 61.397022-17.958629 266.974718c-2.609373 32.182272-6.753672 42.926751-23.637853 61.345857l-29.21475 33.768363-47.019886-65.950635 20.772659-296.138303z m31.926452-451.012291l59.759768-66.001799 21.64245 32.233436c9.363046 12.279404 13.81433 24.558809 14.581793 35.252124 0.562806 7.725792-0.102328 15.349256-0.61397 26.093734l-18.470271 259.197762-55.820126 70.555411-41.647647-58.276007 20.568003-299.054661z" p-id="6804"></path></svg>