<?xml version="1.0" standalone="no"?><!DOCTYPE svg PUBLIC "-//W3C//DTD SVG 1.1//EN" "http://www.w3.org/Graphics/SVG/1.1/DTD/svg11.dtd"><svg t="1635132288192" class="icon" viewBox="0 0 1024 1024" version="1.1" xmlns="http://www.w3.org/2000/svg" p-id="10600" xmlns:xlink="http://www.w3.org/1999/xlink" width="16" height="16"><defs><style type="text/css"></style></defs><path d="M831.0272 901.1712l50.688 70.6048-26.2656 30.72c-13.7216 15.3088-29.3376 21.504-57.7536 21.504h-240.7424L512 964.096l62.208-62.976h256.8192z m31.3344-449.8432l47.4624 59.904-56.064 62.8736h-255.5392l-48.896-62.9248 57.4976-59.904 255.5392 0.0512z m-233.0112-328.4992l-46.1824-59.904L638.0032 0h243.2512c11.1104 0 18.6368 1.4848 21.0944 1.4848 8.7552 1.536 21.8624 12.288 32.8192 27.6992l16.5376 24.5248-65.4848 69.0688h-256.8704z m239.2576 469.7088l55.9616-64.4608 21.7088 27.648c12.288 16.896 16.8448 29.184 18.0736 46.08 0.5632 7.68 1.0752 15.3088 0.3584 22.9888l-17.7152 239.5136c-1.792 27.648-7.0656 39.936-24.2176 59.904l-28.672 30.72-46.592-66.048 21.0944-296.3456z m32.3072-452.864l64.3584-67.5328 16.3328 21.504c9.6256 13.824 15.5136 27.648 16.5888 43.008 0.4096 6.144-0.0512 16.896-1.2288 35.2768l-16.4352 222.6176c-1.6384 29.184-5.8368 39.936-19.456 56.7808l-36.4544 42.9568-46.1312-58.3168 22.4256-296.2944zM124.3648 885.76l-59.7504 66.048-21.6064-30.72c-9.472-13.7728-13.824-24.5248-14.6944-36.8128-0.4096-6.144 0.0512-16.896 0.6144-26.112l18.2784-262.5024 56.1664-65.9968 41.5744 56.7808L124.3648 885.76z m32.0512-449.792L104.6016 494.2848l-45.3632-58.3168 17.8176-268.6464c2.7648-30.72 6.7584-43.008 23.7056-61.44l29.3376-32.256 46.9504 64.512-20.6336 297.8304z m224.1024 465.2032l49.92 72.192-20.2752 22.9888c-20.2752 23.04-30.8736 27.648-64.9216 27.648H160.6656c-40.0896 0-46.3872-3.072-63.8464-27.648l-17.3568-22.9888 63.0272-72.192h238.0288z m7.7312-449.8432c24.32 0 31.744 3.0208 47.9744 26.112l23.0912 35.328-55.2448 61.3376H164.7104l-45.568-61.3888 54.0672-61.44 215.04 0.0512zM194.2528 122.8288l-49.408-64.512 28.0064-33.7408C188.6208 6.144 200.2944 0 229.4272 0h231.9872l47.872 59.904L452.9152 122.88H194.2528z m226.6112 466.688l51.968-56.7808 28.0576 36.8128c9.3696 12.2368 12.3392 19.968 13.2608 33.7408 0.6656 9.216 0.7168 27.648-0.5632 44.4928L499.712 850.432c-3.5328 36.864-8.5504 52.224-25.3952 72.192l-28.0064 33.792-47.2064-67.584 21.76-299.3152z" p-id="10601"></path></svg>