<?xml version="1.0" standalone="no"?><!DOCTYPE svg PUBLIC "-//W3C//DTD SVG 1.1//EN" "http://www.w3.org/Graphics/SVG/1.1/DTD/svg11.dtd"><svg t="1629621223546" class="icon" viewBox="0 0 1024 1024" version="1.1" xmlns="http://www.w3.org/2000/svg" p-id="7039" xmlns:xlink="http://www.w3.org/1999/xlink" width="16" height="16"><defs><style type="text/css"></style></defs><path d="M512 64C264.576 64 64 264.576 64 512s200.576 448 448 448 448-200.576 448-448S759.424 64 512 64z m237.344 429.347c-24.884 24.885-65.602 24.885-90.485 0l-82.855-82.859v356.516c0 35.2-28.8 64-64 64s-64-28.8-64-64V410.488l-82.855 82.859c-24.883 24.885-65.602 24.885-90.485 0-24.881-24.882-24.881-65.599 0-90.482l189.28-189.291a64.115 64.115 0 0 1 2.72-2.915c12.466-12.467 28.907-18.686 45.34-18.661 16.433-0.025 32.874 6.194 45.34 18.661a64.115 64.115 0 0 1 2.72 2.915l189.28 189.291c24.881 24.883 24.881 65.6 0 90.482z" p-id="7040"></path></svg>