<?xml version="1.0" standalone="no"?><!DOCTYPE svg PUBLIC "-//W3C//DTD SVG 1.1//EN" "http://www.w3.org/Graphics/SVG/1.1/DTD/svg11.dtd"><svg class="icon" width="16px" height="16.00px" viewBox="0 0 1024 1024" version="1.1" xmlns="http://www.w3.org/2000/svg"><path d="M297.38 553.38l180.69-180.69c18.72-18.72 49.16-18.72 67.88 0l180.69 180.69c12.5 12.5 12.5 32.75 0 45.25s-32.75 12.5-45.25 0L512 429.25 342.62 598.62c-12.5 12.5-32.75 12.5-45.25 0-6.25-6.25-9.38-14.44-9.38-22.62s3.13-16.38 9.39-22.62z m203.31-135.76v0.31-0.31z"  /><path d="M896 512c0 211.74-172.26 384-384 384S128 723.74 128 512s172.26-384 384-384 384 172.26 384 384m64 0c0-247.42-200.58-448-448-448S64 264.58 64 512s200.58 448 448 448 448-200.58 448-448z"  /></svg>