<?xml version="1.0" standalone="no"?><!DOCTYPE svg PUBLIC "-//W3C//DTD SVG 1.1//EN" "http://www.w3.org/Graphics/SVG/1.1/DTD/svg11.dtd"><svg class="icon" width="16px" height="16.00px" viewBox="0 0 1024 1024" version="1.1" xmlns="http://www.w3.org/2000/svg"><path d="M726.62 470.62L545.94 651.31c-18.72 18.72-49.16 18.72-67.88 0L297.38 470.62c-12.5-12.5-12.5-32.75 0-45.25s32.75-12.5 45.25 0L512 594.75l169.38-169.38c12.5-12.5 32.75-12.5 45.25 0 6.25 6.25 9.38 14.44 9.38 22.62s-3.13 16.39-9.39 22.63zM523.31 606.38v-0.31 0.31z"  /><path d="M128 512c0-211.74 172.26-384 384-384s384 172.26 384 384-172.26 384-384 384-384-172.26-384-384m-64 0c0 247.42 200.58 448 448 448s448-200.58 448-448S759.42 64 512 64 64 264.58 64 512z"  /></svg>