<?xml version="1.0" standalone="no"?><!DOCTYPE svg PUBLIC "-//W3C//DTD SVG 1.1//EN" "http://www.w3.org/Graphics/SVG/1.1/DTD/svg11.dtd"><svg class="icon" width="16px" height="16.00px" viewBox="0 0 1024 1024" version="1.1" xmlns="http://www.w3.org/2000/svg"><path d="M512 0C228.266667 0 0 228.266667 0 512s228.266667 512 512 512 512-228.266667 512-512S795.733333 0 512 0z m305.066667 405.333333L541.866667 680.533333c-8.533333 8.533333-19.2 12.8-29.866667 10.666667-10.666667 0-21.333333-4.266667-29.866667-10.666667L206.933333 405.333333c-14.933333-17.066667-14.933333-42.666667 0-57.6l4.266667-4.266666c14.933333-14.933333 40.533333-14.933333 55.466667 0L512 588.8l245.333333-245.333333c14.933333-14.933333 40.533333-14.933333 55.466667 0l4.266667 4.266666c14.933333 14.933333 14.933333 40.533333 0 57.6z" /></svg>