<?xml version="1.0" standalone="no"?><!DOCTYPE svg PUBLIC "-//W3C//DTD SVG 1.1//EN" "http://www.w3.org/Graphics/SVG/1.1/DTD/svg11.dtd"><svg class="icon" width="16px" height="16.00px" viewBox="0 0 1024 1024" version="1.1" xmlns="http://www.w3.org/2000/svg"><path d="M0 512c0 283.733333 228.266667 512 512 512s512-228.266667 512-512S795.733333 0 512 0 0 228.266667 0 512zM405.333333 206.933333l275.2 275.2c8.533333 8.533333 12.8 19.2 10.666667 29.866667 0 10.666667-4.266667 21.333333-10.666667 29.866667L405.333333 817.066667c-14.933333 14.933333-40.533333 14.933333-55.466666 0l-4.266667-4.266667c-14.933333-14.933333-14.933333-40.533333 0-55.466667L588.8 512 343.466667 266.666667c-14.933333-14.933333-14.933333-40.533333 0-55.466667l4.266666-4.266667c14.933333-14.933333 40.533333-14.933333 57.6 0z" /></svg>