<?xml version="1.0" standalone="no"?><!DOCTYPE svg PUBLIC "-//W3C//DTD SVG 1.1//EN" "http://www.w3.org/Graphics/SVG/1.1/DTD/svg11.dtd"><svg class="icon" width="16px" height="16.00px" viewBox="0 0 1024 1024" version="1.1" xmlns="http://www.w3.org/2000/svg"><path d="M512 1024c283.733333 0 512-228.266667 512-512S795.733333 0 512 0 0 228.266667 0 512s228.266667 512 512 512zM206.933333 618.666667l275.2-275.2c8.533333-8.533333 19.2-12.8 29.866667-10.666667 10.666667 0 21.333333 4.266667 29.866667 10.666667L817.066667 618.666667c14.933333 14.933333 14.933333 40.533333 0 55.466666l-4.266667 4.266667c-14.933333 14.933333-40.533333 14.933333-55.466667 0L512 435.2 266.666667 680.533333c-14.933333 14.933333-40.533333 14.933333-55.466667 0l-4.266667-4.266666C192 661.333333 192 635.733333 206.933333 618.666667z" /></svg>