<?xml version="1.0" standalone="no"?><!DOCTYPE svg PUBLIC "-//W3C//DTD SVG 1.1//EN" "http://www.w3.org/Graphics/SVG/1.1/DTD/svg11.dtd"><svg class="icon" width="16px" height="16.00px" viewBox="0 0 1024 1024" version="1.1" xmlns="http://www.w3.org/2000/svg"><path d="M512 64c-247.00852 0-448 200.960516-448 448S264.960516 960 512 960c247.00852 0 448-200.960516 448-448S759.039484 64 512 64zM694.752211 649.984034c12.480043 12.54369 12.447359 32.768069-0.063647 45.248112-6.239161 6.208198-14.399785 9.34412-22.591372 9.34412-8.224271 0-16.415858-3.135923-22.65674-9.407768l-137.60043-138.016718-138.047682 136.576912c-6.239161 6.14455-14.368821 9.247789-22.496761 9.247789-8.255235 0-16.479505-3.168606-22.751351-9.504099-12.416396-12.576374-12.320065-32.800753 0.25631-45.248112l137.887703-136.384249-137.376804-137.824056c-12.480043-12.512727-12.447359-32.768069 0.063647-45.248112 12.512727-12.512727 32.735385-12.447359 45.248112 0.063647l137.567746 137.984034 138.047682-136.575192c12.54369-12.447359 32.831716-12.320065 45.248112 0.25631 12.447359 12.576374 12.320065 32.831716-0.25631 45.248112L557.344443 512.127295 694.752211 649.984034z" /></svg>