<?xml version="1.0" standalone="no"?><!DOCTYPE svg PUBLIC "-//W3C//DTD SVG 1.1//EN" "http://www.w3.org/Graphics/SVG/1.1/DTD/svg11.dtd"><svg class="icon" width="16px" height="16.00px" viewBox="0 0 1024 1024" version="1.1" xmlns="http://www.w3.org/2000/svg"><path d="M512 992C246.912 992 32 777.088 32 512 32 246.912 246.912 32 512 32c265.088 0 480 214.912 480 480 0 265.088-214.912 480-480 480z m0-64c229.76 0 416-186.24 416-416S741.76 96 512 96 96 282.24 96 512s186.24 416 416 416z"  /><path d="M572.512 512l161.696 161.664-60.544 60.544L512 572.48l-161.664 161.696-60.544-60.544L451.52 512 288 348.512 348.512 288 512 451.488 675.488 288 736 348.512 572.512 512z"  /></svg>