<?xml version="1.0" standalone="no"?><!DOCTYPE svg PUBLIC "-//W3C//DTD SVG 1.1//EN" "http://www.w3.org/Graphics/SVG/1.1/DTD/svg11.dtd"><svg class="icon" width="16px" height="16.00px" viewBox="0 0 1024 1024" version="1.1" xmlns="http://www.w3.org/2000/svg"><path d="M607.898 768.043c-17.717 0-31.995-14.277-31.995-31.995L575.903 383.935c0-17.717 14.277-31.995 31.995-31.995s31.995 14.277 31.995 31.995l0 351.941C639.893 753.594 625.615 768.043 607.898 768.043z"  /><path d="M415.93 768.043c-17.717 0-31.995-14.277-31.995-31.995L383.935 383.935c0-17.717 14.277-31.995 31.995-31.995s31.995 14.277 31.995 31.995l0 351.941C447.925 753.594 433.648 768.043 415.93 768.043z"  /><path d="M928.016 223.962 768.043 223.962l0-63.989c0-52.98-42.659-95.984-95.296-95.984l-320.806 0c-52.98 0-95.984 43.004-95.984 95.984l0 63.989L95.984 223.962c-17.717 0-31.995 14.277-31.995 31.995s14.277 31.995 31.995 31.995l832.032 0c17.717 0 31.995-14.277 31.995-31.995S945.734 223.962 928.016 223.962zM319.946 159.973c0-17.545 14.449-31.995 31.995-31.995l320.806 0c17.545 0 31.307 14.105 31.307 31.995l0 63.989L319.946 223.962 319.946 159.973 319.946 159.973z"  /><path d="M736.048 960.011 288.124 960.011c-52.98 0-95.984-43.004-95.984-95.984L192.14 383.591c0-17.717 14.277-31.995 31.995-31.995s31.995 14.277 31.995 31.995l0 480.435c0 17.717 14.449 31.995 31.995 31.995L736.22 896.021c17.717 0 31.995-14.277 31.995-31.995L768.215 384.796c0-17.717 14.277-31.995 31.995-31.995s31.995 14.277 31.995 31.995l0 479.231C832.032 916.835 789.029 960.011 736.048 960.011z"  /></svg>