<?xml version="1.0" standalone="no"?><!DOCTYPE svg PUBLIC "-//W3C//DTD SVG 1.1//EN" "http://www.w3.org/Graphics/SVG/1.1/DTD/svg11.dtd"><svg class="icon" width="16px" height="16.00px" viewBox="0 0 1024 1024" version="1.1" xmlns="http://www.w3.org/2000/svg"><path d="M1008 505.8 1008 505.8 1008 505.8zM507.528 1006.264 507.528 1006.264c-250.512 0-453.56-203.016-453.56-453.56 0-189.616 116.408-351.984 281.52-419.72l0 0.112c4.88-1.744 10.144-2.68 15.664-2.68 25.84 0 46.936 20.992 46.936 46.896 0 20.392-13.056 37.832-31.336 44.264l0 0.032c-128.664 54.736-218.944 182.384-218.944 331.064 0 198.688 161.032 359.72 359.72 359.72 198.696 0 359.728-161.064 359.728-359.72 0-148.68-90.216-276.304-218.984-331.064l0 0c-18.24-6.4-31.264-23.84-31.264-44.256 0-25.912 20.984-46.904 46.904-46.904 5.456 0 10.68 0.936 15.632 2.68l0-0.112c165.248 67.744 281.52 230.112 281.52 419.72C961.104 803.248 758.016 1006.264 507.528 1006.264M507.528 521.44c-25.872 0-46.896-21-46.896-46.944L460.632 196.904 460.632 102.048 460.632 52.24c-0.032-25.848 21.024-46.904 46.896-46.904 25.912 0 46.904 21.032 46.904 46.904l0 140.776 0 93.832 0 187.624C554.44 500.408 533.448 521.44 507.528 521.44" /></svg>