<?xml version="1.0" standalone="no"?><!DOCTYPE svg PUBLIC "-//W3C//DTD SVG 1.1//EN" "http://www.w3.org/Graphics/SVG/1.1/DTD/svg11.dtd"><svg class="icon" width="16px" height="16.00px" viewBox="0 0 1024 1024" version="1.1" xmlns="http://www.w3.org/2000/svg"><path d="M195.2 195.2c12.8-12.8 32-12.8 44.8 0 12.8 12.8 12.8 32 0 44.8-73.6 70.4-115.2 169.6-115.2 272 0 211.2 172.8 384 384 384s384-172.8 384-384c0-108.8-44.8-211.2-124.8-281.6-12.8-12.8-12.8-32-3.2-44.8 12.8-12.8 32-12.8 44.8-3.2 92.8 83.2 144 201.6 144 329.6 0 246.4-201.6 448-448 448s-448-201.6-448-448c6.4-121.6 54.4-233.6 137.6-316.8z m316.8-131.2c19.2 0 32 12.8 32 32v384c0 19.2-12.8 32-32 32s-32-12.8-32-32v-384c0-19.2 12.8-32 32-32z" /></svg>