<?xml version="1.0" standalone="no"?><!DOCTYPE svg PUBLIC "-//W3C//DTD SVG 1.1//EN" "http://www.w3.org/Graphics/SVG/1.1/DTD/svg11.dtd"><svg class="icon" width="16px" height="15.97px" viewBox="0 0 1026 1024" version="1.1" xmlns="http://www.w3.org/2000/svg"><path d="M561.04256861 549.9683599c0 24.52146197-20.96189553 44.69234265-47.0653872 44.69234265-26.10349245 0-47.0653872-20.1708799-47.0653872-44.69234265v-387.59730709C466.91179421 137.84959006 487.87368896 117.67871017 513.97718141 117.67871017c26.10349245 0 47.0653872 20.1708799 47.06538719 44.69234264v387.59730709z"  /><path d="M118.86523206 532.96153941c0-133.68152012 74.35540155-251.54274241 185.88850502-317.19698058 21.75291037-13.05174623 50.22944662-7.11913445 64.86322254 14.23826889 13.05174623 20.1708799 7.51464148 47.0653872-12.26073139 60.11713344-0.79101486 0.39550781-1.58202971 1.18652267-2.37304454 1.58202969-85.42961025 50.22944662-141.59166941 139.21862486-141.59166942 241.25954856 0.39550781 157.41196801 134.47253497 284.76536854 300.58566714 285.16087636 166.1131314-0.39550781 300.19015932-127.74890833 300.58566713-285.16087636 0-104.41396826-59.32611857-195.38068325-147.52428121-245.21462359-21.35740255-11.46971651-29.26755186-37.5732082-17.7978361-58.93061076l1.18652267-2.37304457c13.44725327-21.35740255 42.31929808-28.08102919 64.86322254-15.82029859 115.88368479 64.86322254 194.19416135 184.70198236 194.19416136 321.94306971 0 206.85039977-176.79183307 374.94106867-395.11194935 374.94106867-218.71562333 0.39550781-395.50745638-167.29965405-395.50745639-374.54556087"  /></svg>