<?xml version="1.0" standalone="no"?><!DOCTYPE svg PUBLIC "-//W3C//DTD SVG 1.1//EN" "http://www.w3.org/Graphics/SVG/1.1/DTD/svg11.dtd"><svg class="icon" width="16px" height="16.00px" viewBox="0 0 1024 1024" version="1.1" xmlns="http://www.w3.org/2000/svg"><path d="M510.546905 845.556888c-28.559453 0-56.403614-2.591011-83.47518-7.057743l-195.717544 118.735242L231.354182 759.550049c-102.028745-71.6519-167.516248-181.482331-167.516248-304.864406 0-215.879746 200.007243-390.870222 446.708971-390.870222s446.708971 174.9915 446.708971 390.870222S757.248633 845.556888 510.546905 845.556888L510.546905 845.556888zM510.546905 119.65417c-215.879746 0-390.871245 150.004409-390.871245 335.032496 0 113.523543 66.053392 213.706243 166.830633 274.27983l-1.757017 129.515772 131.422192-79.007425c30.286794 6.431479 61.764716 10.244318 94.374414 10.244318 215.879746 0 390.871245-150.004409 390.871245-335.032496S726.425627 119.65417 510.546905 119.65417L510.546905 119.65417zM733.900879 510.525416c-30.852682 0-55.838749-24.985044-55.838749-55.838749 0-30.823006 24.986067-55.838749 55.838749-55.838749 30.853705 0 55.838749 24.985044 55.838749 55.838749C789.739629 485.539348 764.754584 510.525416 733.900879 510.525416L733.900879 510.525416zM510.546905 510.525416c-30.823006 0-55.838749-24.985044-55.838749-55.838749 0-30.823006 25.015743-55.838749 55.838749-55.838749 30.853705 0 55.838749 24.985044 55.838749 55.838749C566.385655 485.539348 541.369911 510.525416 510.546905 510.525416L510.546905 510.525416zM287.191908 510.525416c-30.852682 0-55.838749-24.985044-55.838749-55.838749 0-30.823006 24.985044-55.838749 55.838749-55.838749 30.823006 0 55.838749 24.985044 55.838749 55.838749C343.030657 485.539348 318.04459 510.525416 287.191908 510.525416L287.191908 510.525416z" /></svg>