<?xml version="1.0" standalone="no"?><!DOCTYPE svg PUBLIC "-//W3C//DTD SVG 1.1//EN" "http://www.w3.org/Graphics/SVG/1.1/DTD/svg11.dtd"><svg class="icon" width="16px" height="16.00px" viewBox="0 0 1024 1024" version="1.1" xmlns="http://www.w3.org/2000/svg"><path d="M679.3 400.6H299.2c-10.8 0-19.5-8.7-19.5-19.5s8.7-19.5 19.5-19.5h380.1c10.8 0 19.5 8.7 19.5 19.5s-8.7 19.5-19.5 19.5zM679.3 553.1H299.2c-10.8 0-19.5-8.7-19.5-19.5s8.7-19.5 19.5-19.5h380.1c10.8 0 19.5 8.7 19.5 19.5s-8.7 19.5-19.5 19.5zM679.3 705.5H299.2c-10.8 0-19.5-8.7-19.5-19.5s8.7-19.5 19.5-19.5h380.1c10.8 0 19.5 8.7 19.5 19.5s-8.7 19.5-19.5 19.5zM934.6 954.4H489.3c-10.8 0-19.5-8.7-19.5-19.5s8.7-19.5 19.5-19.5h445.3c0.4 0 0.8 0 1.2-0.8s0.1-1.1-0.2-1.4L816.5 772.8c-7-8.2-5.9-20.5 2.3-27.5s20.5-5.9 27.5 2.3l119.1 140.5c10.3 12.1 12.5 28.6 5.8 43-6.7 14.4-20.8 23.3-36.6 23.3z"  /><path d="M489.3 954.4c-102.8 0-202.9-36.1-281.9-101.6C105.8 768.6 47.5 644.6 47.5 512.7 47.5 269.2 245.7 71 489.3 71 732.8 71 931 269.2 931 512.7c0 93.7-29 183.3-83.8 258.9-6.3 8.7-18.5 10.7-27.2 4.3-8.7-6.3-10.7-18.5-4.3-27.2 50-69 76.4-150.6 76.4-236C892 290.7 711.3 110 489.3 110 267.2 110 86.5 290.7 86.5 512.7c0 120.2 53.1 233.3 145.8 310.1 72 59.7 163.3 92.6 257 92.6 10.8 0 19.5 8.7 19.5 19.5s-8.8 19.5-19.5 19.5z"  /></svg>