<?xml version="1.0" standalone="no"?><!DOCTYPE svg PUBLIC "-//W3C//DTD SVG 1.1//EN" "http://www.w3.org/Graphics/SVG/1.1/DTD/svg11.dtd"><svg class="icon" width="16px" height="16.00px" viewBox="0 0 1024 1024" version="1.1" xmlns="http://www.w3.org/2000/svg"><path d="M355.71712 558.96064c-0.512 0.65536-1.04448 1.37216-1.26976 2.23232l-40.18176 148.41856c-2.33472 8.64256 0.06144 17.98144 6.41024 24.53504 4.75136 4.64896 11.01824 7.22944 17.67424 7.22944 2.21184 0 4.42368-0.26624 6.59456-0.86016l146.30912-40.18176c0.22528 0 0.32768 0.22528 0.49152 0.22528 1.69984 0 3.33824-0.63488 4.58752-1.92512l391.168-394.0352c11.63264-11.71456 18.00192-27.68896 18.00192-45.056 0-19.6608-8.2944-39.36256-22.79424-53.94432l-36.94592-37.2736c-14.49984-14.62272-34.05824-22.97856-53.5552-22.97856-17.24416 0-33.0752 6.41024-44.76928 18.10432L356.29056 557.60896C355.88096 557.9776 356.02432 558.53056 355.71712 558.96064L355.71712 558.96064zM849.22368 265.99424l-38.85056 39.1168-62.99648-64.47104 38.31808-38.56384c6.0416-6.12352 17.8176-5.24288 24.73984 1.76128l36.94592 37.29408c3.87072 3.91168 6.08256 9.05216 6.08256 14.15168C853.44256 259.4816 851.92704 263.2704 849.22368 265.99424L849.22368 265.99424zM425.28768 565.16608l282.25536-284.40576 62.99648 64.53248L488.83712 629.10464 425.28768 565.16608 425.28768 565.16608 425.28768 565.16608M373.84192 680.448l20.39808-75.42784 54.39488 54.80448L373.84192 680.448 373.84192 680.448 373.84192 680.448M874.00448 422.15424c-14.82752 0-26.97216 12.14464-27.01312 27.2384l0 326.41024c0 51.95776-51.32288 75.85792-75.63264 75.85792L236.40064 851.6608c-34.0992 0-69.46816-33.71008-75.6736-96.33792L160.72704 258.10944c0-77.80352 56.54528-75.89888 75.6736-75.89888l356.352 0c14.86848 0 26.95168-12.1856 26.95168-27.17696 0-14.97088-12.0832-27.17696-26.95168-27.17696l-360.448 0c-46.63296 0-125.52192 29.22496-125.52192 105.6768l0 525.94688c0 102.83008 64.3072 146.61632 125.52192 146.61632l543.15008 0c69.0176 0 125.5424-43.17184 125.5424-126.13632L900.99712 449.24928C900.89472 434.29888 888.77056 422.15424 874.00448 422.15424L874.00448 422.15424z" /></svg>