<?xml version="1.0" standalone="no"?><!DOCTYPE svg PUBLIC "-//W3C//DTD SVG 1.1//EN" "http://www.w3.org/Graphics/SVG/1.1/DTD/svg11.dtd"><svg class="icon" width="16px" height="16.00px" viewBox="0 0 1024 1024" version="1.1" xmlns="http://www.w3.org/2000/svg"><path d="M618.6 316.4c-41.8-41.8-97.5-64.9-156.6-64.9-59.2 0-114.8 23-156.6 64.9s-64.9 97.5-64.9 156.6c0 59.2 23 114.8 64.9 156.6s97.5 64.9 156.6 64.9c51.8 0 100.8-17.6 140.3-50.1l104.5 104.5c8.6 8.6 22.5 8.6 31.1 0 8.6-8.6 8.6-22.5 0-31.1L633.4 613.3c32.4-39.5 50.1-88.5 50.1-140.3 0-59.2-23.1-114.8-64.9-156.6z m-31.1 282.1c-69.2 69.2-181.8 69.2-251 0-69.2-69.2-69.2-181.8 0-251 69.2-69.2 181.8-69.2 251 0 69.2 69.2 69.2 181.8 0 251z" /></svg>