<?xml version="1.0" standalone="no"?><!DOCTYPE svg PUBLIC "-//W3C//DTD SVG 1.1//EN" "http://www.w3.org/Graphics/SVG/1.1/DTD/svg11.dtd"><svg class="icon" width="16px" height="16.00px" viewBox="0 0 1024 1024" version="1.1" xmlns="http://www.w3.org/2000/svg"><path d="M925.7 337.7c-22.6-53.5-55-101.5-96.2-142.7s-89.2-73.6-142.7-96.2C631.4 75.4 572.6 63.5 512 63.5S392.6 75.4 337.2 98.8c-53.5 22.6-101.5 55-142.7 96.2-41.2 41.2-73.6 89.2-96.2 142.7C74.9 393.1 63 451.9 63 512.5c0 60.6 11.9 119.4 35.3 174.8 22.6 53.5 55 101.5 96.2 142.7s89.2 73.6 142.7 96.2c55.4 23.4 114.2 35.3 174.8 35.3s119.4-11.9 174.8-35.3c53.5-22.6 101.5-55 142.7-96.2s73.6-89.2 96.2-142.7c23.4-55.4 35.3-114.2 35.3-174.8s-11.9-119.4-35.3-174.8zM753.8 537H270.2c-13.8 0-25-11.2-25-25s11.2-25 25-25h483.6c13.8 0 25 11.2 25 25s-11.2 25-25 25z" fill="#333333" /></svg>