<?xml version="1.0" standalone="no"?><!DOCTYPE svg PUBLIC "-//W3C//DTD SVG 1.1//EN" "http://www.w3.org/Graphics/SVG/1.1/DTD/svg11.dtd"><svg t="1617545080382" class="icon" viewBox="0 0 1024 1024" version="1.1" xmlns="http://www.w3.org/2000/svg" p-id="24113" xmlns:xlink="http://www.w3.org/1999/xlink" width="16" height="16"><defs><style type="text/css"></style></defs><path d="M845.603967 489.488926l-315.493554 289.428099-315.493553-289.428099a39.842909 39.842909 0 0 0-53.146447 0 34.426711 34.426711 0 0 0-11.170909 25.049917 33.140364 33.140364 0 0 0 11.170909 24.711405l341.897521 313.800992a39.775207 39.775207 0 0 0 26.742479 10.155372 40.41838 40.41838 0 0 0 26.74248-10.155372l341.89752-313.800992a34.426711 34.426711 0 0 0 11.170909-25.049917 33.140364 33.140364 0 0 0-11.170909-24.711405 39.842909 39.842909 0 0 0-53.146446 0z" p-id="24114"></path><path d="M503.706446 577.163636a40.282975 40.282975 0 0 0 53.484959 0l341.897521-313.800991a34.426711 34.426711 0 0 0 11.170909-25.049918 33.140364 33.140364 0 0 0-11.170909-24.711405 39.842909 39.842909 0 0 0-53.146447 0l-315.493553 289.428099-315.493554-289.428099a39.842909 39.842909 0 0 0-53.146446 0 34.426711 34.426711 0 0 0-11.170909 25.049918 33.140364 33.140364 0 0 0 11.170909 24.711405z" p-id="24115"></path></svg>