<?xml version="1.0" standalone="no"?><!DOCTYPE svg PUBLIC "-//W3C//DTD SVG 1.1//EN" "http://www.w3.org/Graphics/SVG/1.1/DTD/svg11.dtd"><svg class="icon" width="16px" height="16.00px" viewBox="0 0 1024 1024" version="1.1" xmlns="http://www.w3.org/2000/svg"><path d="M315.076923 275.692308h433.230769a39.384615 39.384615 0 0 1 39.384616 39.384615v433.230769a39.384615 39.384615 0 0 1-39.384616 39.384616H315.076923a39.384615 39.384615 0 0 1-39.384615-39.384616V315.076923a39.384615 39.384615 0 0 1 39.384615-39.384615z m0 39.384615v433.230769h433.230769V315.076923H315.076923z m196.923077 196.923077v-98.461538a19.692308 19.692308 0 1 1 39.384615 0V512h98.461539a19.692308 19.692308 0 1 1 0 39.384615H551.384615v98.461539a19.692308 19.692308 0 1 1-39.384615 0V551.384615h-98.461538a19.692308 19.692308 0 1 1 0-39.384615H512z" /></svg>